<mxfile host="app.diagrams.net" modified="2020-04-09T09:59:55.014Z" agent="5.0 (Windows NT 10.0; Win64; x64) AppleWebKit/537.36 (KHTML, like Gecko) Chrome/80.0.3987.163 Safari/537.36" etag="r9TJKBf0SFQ_YcpAxbj1" version="12.9.10" type="github">
  <diagram id="63wQcrX5-C925co8Wq7L" name="Page-1">
    <mxGraphModel dx="1422" dy="762" grid="1" gridSize="10" guides="1" tooltips="1" connect="1" arrows="1" fold="0" page="1" pageScale="1" pageWidth="850" pageHeight="1100" math="0" shadow="0">
      <root>
        <mxCell id="0" />
        <mxCell id="1" parent="0" />
        <mxCell id="WPf8kOVnsTrV6K4uPzjd-2" value="" style="shape=image;verticalLabelPosition=bottom;labelBackgroundColor=#ffffff;verticalAlign=top;aspect=fixed;imageAspect=0;image=data:image/jpeg,/9j/4AAQSkZJRgABAQEASABIAAD/4QBoRXhpZgAATU0AKgAAAAgABAEaAAUAAAABAAAAPgEbAAUAAAABAAAARgEoAAMAAAABAAIAAAExAAIAAAARAAAATgAAAAAAAABIAAAAAQAAAEgAAAABcGFpbnQubmV0IDQuMi4xMAAA/+IMWElDQ19QUk9GSUxFAAEBAAAMSExpbm8CEAAAbW50clJHQiBYWVogB84AAgAJAAYAMQAAYWNzcE1TRlQAAAAASUVDIHNSR0IAAAAAAAAAAAAAAAAAAPbWAAEAAAAA0y1IUCAgAAAAAAAAAAAAAAAAAAAAAAAAAAAAAAAAAAAAAAAAAAAAAAAAAAAAAAAAAAAAAAARY3BydAAAAVAAAAAzZGVzYwAAAYQAAABsd3RwdAAAAfAAAAAUYmtwdAAAAgQAAAAUclhZWgAAAhgAAAAUZ1hZWgAAAiwAAAAUYlhZWgAAAkAAAAAUZG1uZAAAAlQAAABwZG1kZAAAAsQAAACIdnVlZAAAA0wAAACGdmlldwAAA9QAAAAkbHVtaQAAA/gAAAAUbWVhcwAABAwAAAAkdGVjaAAABDAAAAAMclRSQwAABDwAAAgMZ1RSQwAABDwAAAgMYlRSQwAABDwAAAgMdGV4dAAAAABDb3B5cmlnaHQgKGMpIDE5OTggSGV3bGV0dC1QYWNrYXJkIENvbXBhbnkAAGRlc2MAAAAAAAAAEnNSR0IgSUVDNjE5NjYtMi4xAAAAAAAAAAAAAAASc1JHQiBJRUM2MTk2Ni0yLjEAAAAAAAAAAAAAAAAAAAAAAAAAAAAAAAAAAAAAAAAAAAAAAAAAAAAAAAAAAAAAAAAAAFhZWiAAAAAAAADzUQABAAAAARbMWFlaIAAAAAAAAAAAAAAAAAAAAABYWVogAAAAAAAAb6IAADj1AAADkFhZWiAAAAAAAABimQAAt4UAABjaWFlaIAAAAAAAACSgAAAPhAAAts9kZXNjAAAAAAAAABZJRUMgaHR0cDovL3d3dy5pZWMuY2gAAAAAAAAAAAAAABZJRUMgaHR0cDovL3d3dy5pZWMuY2gAAAAAAAAAAAAAAAAAAAAAAAAAAAAAAAAAAAAAAAAAAAAAAAAAAAAAAAAAAAAAZGVzYwAAAAAAAAAuSUVDIDYxOTY2LTIuMSBEZWZhdWx0IFJHQiBjb2xvdXIgc3BhY2UgLSBzUkdCAAAAAAAAAAAAAAAuSUVDIDYxOTY2LTIuMSBEZWZhdWx0IFJHQiBjb2xvdXIgc3BhY2UgLSBzUkdCAAAAAAAAAAAAAAAAAAAAAAAAAAAAAGRlc2MAAAAAAAAALFJlZmVyZW5jZSBWaWV3aW5nIENvbmRpdGlvbiBpbiBJRUM2MTk2Ni0yLjEAAAAAAAAAAAAAACxSZWZlcmVuY2UgVmlld2luZyBDb25kaXRpb24gaW4gSUVDNjE5NjYtMi4xAAAAAAAAAAAAAAAAAAAAAAAAAAAAAAAAAAB2aWV3AAAAAAATpP4AFF8uABDPFAAD7cwABBMLAANcngAAAAFYWVogAAAAAABMCVYAUAAAAFcf521lYXMAAAAAAAAAAQAAAAAAAAAAAAAAAAAAAAAAAAKPAAAAAnNpZyAAAAAAQ1JUIGN1cnYAAAAAAAAEAAAAAAUACgAPABQAGQAeACMAKAAtADIANwA7AEAARQBKAE8AVABZAF4AYwBoAG0AcgB3AHwAgQCGAIsAkACVAJoAnwCkAKkArgCyALcAvADBAMYAywDQANUA2wDgAOUA6wDwAPYA+wEBAQcBDQETARkBHwElASsBMgE4AT4BRQFMAVIBWQFgAWcBbgF1AXwBgwGLAZIBmgGhAakBsQG5AcEByQHRAdkB4QHpAfIB+gIDAgwCFAIdAiYCLwI4AkECSwJUAl0CZwJxAnoChAKOApgCogKsArYCwQLLAtUC4ALrAvUDAAMLAxYDIQMtAzgDQwNPA1oDZgNyA34DigOWA6IDrgO6A8cD0wPgA+wD+QQGBBMEIAQtBDsESARVBGMEcQR+BIwEmgSoBLYExATTBOEE8AT+BQ0FHAUrBToFSQVYBWcFdwWGBZYFpgW1BcUF1QXlBfYGBgYWBicGNwZIBlkGagZ7BowGnQavBsAG0QbjBvUHBwcZBysHPQdPB2EHdAeGB5kHrAe/B9IH5Qf4CAsIHwgyCEYIWghuCIIIlgiqCL4I0gjnCPsJEAklCToJTwlkCXkJjwmkCboJzwnlCfsKEQonCj0KVApqCoEKmAquCsUK3ArzCwsLIgs5C1ELaQuAC5gLsAvIC+EL+QwSDCoMQwxcDHUMjgynDMAM2QzzDQ0NJg1ADVoNdA2ODakNww3eDfgOEw4uDkkOZA5/DpsOtg7SDu4PCQ8lD0EPXg96D5YPsw/PD+wQCRAmEEMQYRB+EJsQuRDXEPURExExEU8RbRGMEaoRyRHoEgcSJhJFEmQShBKjEsMS4xMDEyMTQxNjE4MTpBPFE+UUBhQnFEkUahSLFK0UzhTwFRIVNBVWFXgVmxW9FeAWAxYmFkkWbBaPFrIW1hb6Fx0XQRdlF4kXrhfSF/cYGxhAGGUYihivGNUY+hkgGUUZaxmRGbcZ3RoEGioaURp3Gp4axRrsGxQbOxtjG4obshvaHAIcKhxSHHscoxzMHPUdHh1HHXAdmR3DHeweFh5AHmoelB6+HukfEx8+H2kflB+/H+ogFSBBIGwgmCDEIPAhHCFIIXUhoSHOIfsiJyJVIoIiryLdIwojOCNmI5QjwiPwJB8kTSR8JKsk2iUJJTglaCWXJccl9yYnJlcmhya3JugnGCdJJ3onqyfcKA0oPyhxKKIo1CkGKTgpaymdKdAqAio1KmgqmyrPKwIrNitpK50r0SwFLDksbiyiLNctDC1BLXYtqy3hLhYuTC6CLrcu7i8kL1ovkS/HL/4wNTBsMKQw2zESMUoxgjG6MfIyKjJjMpsy1DMNM0YzfzO4M/E0KzRlNJ402DUTNU01hzXCNf02NzZyNq426TckN2A3nDfXOBQ4UDiMOMg5BTlCOX85vDn5OjY6dDqyOu87LTtrO6o76DwnPGU8pDzjPSI9YT2hPeA+ID5gPqA+4D8hP2E/oj/iQCNAZECmQOdBKUFqQaxB7kIwQnJCtUL3QzpDfUPARANER0SKRM5FEkVVRZpF3kYiRmdGq0bwRzVHe0fASAVIS0iRSNdJHUljSalJ8Eo3Sn1KxEsMS1NLmkviTCpMcky6TQJNSk2TTdxOJU5uTrdPAE9JT5NP3VAnUHFQu1EGUVBRm1HmUjFSfFLHUxNTX1OqU/ZUQlSPVNtVKFV1VcJWD1ZcVqlW91dEV5JX4FgvWH1Yy1kaWWlZuFoHWlZaplr1W0VblVvlXDVchlzWXSddeF3JXhpebF69Xw9fYV+zYAVgV2CqYPxhT2GiYfViSWKcYvBjQ2OXY+tkQGSUZOllPWWSZedmPWaSZuhnPWeTZ+loP2iWaOxpQ2maafFqSGqfavdrT2una/9sV2yvbQhtYG25bhJua27Ebx5veG/RcCtwhnDgcTpxlXHwcktypnMBc11zuHQUdHB0zHUodYV14XY+dpt2+HdWd7N4EXhueMx5KnmJeed6RnqlewR7Y3vCfCF8gXzhfUF9oX4BfmJ+wn8jf4R/5YBHgKiBCoFrgc2CMIKSgvSDV4O6hB2EgITjhUeFq4YOhnKG14c7h5+IBIhpiM6JM4mZif6KZIrKizCLlov8jGOMyo0xjZiN/45mjs6PNo+ekAaQbpDWkT+RqJIRknqS45NNk7aUIJSKlPSVX5XJljSWn5cKl3WX4JhMmLiZJJmQmfyaaJrVm0Kbr5wcnImc951kndKeQJ6unx2fi5/6oGmg2KFHobaiJqKWowajdqPmpFakx6U4pammGqaLpv2nbqfgqFKoxKk3qamqHKqPqwKrdavprFys0K1ErbiuLa6hrxavi7AAsHWw6rFgsdayS7LCszizrrQltJy1E7WKtgG2ebbwt2i34LhZuNG5SrnCuju6tbsuu6e8IbybvRW9j74KvoS+/796v/XAcMDswWfB48JfwtvDWMPUxFHEzsVLxcjGRsbDx0HHv8g9yLzJOsm5yjjKt8s2y7bMNcy1zTXNtc42zrbPN8+40DnQutE80b7SP9LB00TTxtRJ1MvVTtXR1lXW2Ndc1+DYZNjo2WzZ8dp22vvbgNwF3IrdEN2W3hzeot8p36/gNuC94UThzOJT4tvjY+Pr5HPk/OWE5g3mlucf56noMui86Ubp0Opb6uXrcOv77IbtEe2c7ijutO9A78zwWPDl8XLx//KM8xnzp/Q09ML1UPXe9m32+/eK+Bn4qPk4+cf6V/rn+3f8B/yY/Sn9uv5L/tz/bf///9sAQwACAQEBAQECAQEBAgICAgIEAwICAgIFBAQDBAYFBgYGBQYGBgcJCAYHCQcGBggLCAkKCgoKCgYICwwLCgwJCgoK/9sAQwECAgICAgIFAwMFCgcGBwoKCgoKCgoKCgoKCgoKCgoKCgoKCgoKCgoKCgoKCgoKCgoKCgoKCgoKCgoKCgoKCgoK/8AAEQgBqgKAAwEhAAIRAQMRAf/EAB8AAAEFAQEBAQEBAAAAAAAAAAABAgMEBQYHCAkKC//EALUQAAIBAwMCBAMFBQQEAAABfQECAwAEEQUSITFBBhNRYQcicRQygZGhCCNCscEVUtHwJDNicoIJChYXGBkaJSYnKCkqNDU2Nzg5OkNERUZHSElKU1RVVldYWVpjZGVmZ2hpanN0dXZ3eHl6g4SFhoeIiYqSk5SVlpeYmZqio6Slpqeoqaqys7S1tre4ubrCw8TFxsfIycrS09TV1tfY2drh4uPk5ebn6Onq8fLz9PX29/j5+v/EAB8BAAMBAQEBAQEBAQEAAAAAAAABAgMEBQYHCAkKC//EALURAAIBAgQEAwQHBQQEAAECdwABAgMRBAUhMQYSQVEHYXETIjKBCBRCkaGxwQkjM1LwFWJy0QoWJDThJfEXGBkaJicoKSo1Njc4OTpDREVGR0hJSlNUVVZXWFlaY2RlZmdoaWpzdHV2d3h5eoKDhIWGh4iJipKTlJWWl5iZmqKjpKWmp6ipqrKztLW2t7i5usLDxMXGx8jJytLT1NXW19jZ2uLj5OXm5+jp6vLz9PX29/j5+v/aAAwDAQACEQMRAD8A8jksNSuH5qxbeFby4T978lfgc6nKz94jTcjQs9Eht3Xzf79aEaW1ui+VXDVleR1042J0m/d/6umP9plrmlI6LogmtvM6/wAdUJtK8w/+jKRBVezS3dqrPGmz/VpWkCZEexPm/wDIn+3VS/s0kT/V120Ze8YTMj+zYd/72NKbNpuiXP8Ax9W6V6MZOMro43GMtxJvhv4Y1jd+7Sqt/wDsx6bqds0trbpXXTzCWHscVbL44i55F8Uf2UbyN5Pstu9eHeMP2VPE+9pbW3evrstziEo2bPk8wyetGpdI4y/+BfjDR93m6Y7/APbOsu58GXlm6/arOZP+ukdfQ08XCpszwJ4OrTk20RpoCRzfuo/v11fh7wfbSQ4lqqlXRGUKfvcrLepeEraO3bKJXH6lo8NvNRCqyqtPlloVnsE6Vn6hYfPW0JGM4jrPSk3/AL2uj0rTbbYsX9+icwpxtI6vQtOsE/uPXdeG7WwG392lefiJXiz0KJ2umppu1fJq/wD2X5navIk/ePSirxK9zpX7lqzJtHeP+/WsSZFHUtHm+Yf365250e/jvOkldVKRzVInVeDLCaP/AFtdPrH7uzaL/YqpS98qCtA8g+IVy9m7V5y+vTyTNL5lepho+6ediJe+x4154z532imv4h5/1ldHKYy+Egm8Tvsb95VKbxPNv/1tHKRdlR/E9yaSDxVJG/m0fZLjI0LP4hX9ui+VWtZ/ELUNRg8qWSs5RNIyJH1Wa4RZZJKxb+58yZpaqAfaKbzfPUM0z/8ALL+KtANHwtC8k3m1694Js/Ltlr53P6lsMz08qj/tCPSdKs7m4to7W1t3d9lWbzR9Vs4f3tvIlfkkqcpyufodOS5bGez+YP8AWVBNsk/1tNe7qVvqVZkqs6VUTCQ5E/5a1MjpHRIcRry/P/rKru5qofEEhE/6Z0ju/TzK0MSN/wDnrTPkkoKkQunvUcyd8VtEiWxTdPLem+Z7V0R2MpDd/wA9NfZW0UYjahfrVQRMys78VFs8zdWxiR+T5vao5oX/ANVWkZAfpcltb2//ACzSnXE37nEX3K+PlUcpH2UUolPyXkmo8l5P+WdZv4i79huyeNKRLny0qJRC7Klzqrxv9ymf2smz97S5GTzsrTXiSSfwb6pTXkMaNF5ldEERKRl3mvQ2+796lZdz4qcf6qu6jT1MJyM28157gfupKbD51x/y0r0afLGN2csm5bGtokN19pWLzK9G8PXN/b2y+VJXFipRlY6sPGUTU/sSbVP+PqzR6a/wr0HUP+PrR0+esI4qdOXus65UIyWqKd/+y14P1hP3tn/5DrivGH7BOj6ojS2tnD/37r18HnlSjuzzMZktOtFtI8Z+Iv8AwT3m0rdNYWb/ACf8868w1v8AZ1+IHhPd5WnzOn/TSOvrcFnVLEJXPjsdkdXDy5kcF4ns/E+hwyQ3+jvXBXl48lz+9j2V79CpGR4NSlKMtSCWVNlU5v3tdUEYziEMyR1fttShj/5aVpKBjb3jRtvFSW/+qlrc0H4ivH+68yuepSvFnVCVjvvCXjZLjb+8r0fRNbhuIV/eV5FalaR6VKXumk8KSbfLpf7Khk/e1ESmiO50eGSHPl1n/wDCMQyOorSMrEuJq6PocNu/+ro8Q2f7lv8AcojL94LltE8S+KOmv82K8juYnjm8r+PfXvYV+6eRiI++xr/cx5lQvvrr5Ucsn7pA78VA7/JU3YroqzP2qHeKf2RRZPDNW3ols/8ArazkdETeff8AZqybr7/72pgafaKkzmq801aEnV+BrDzEX939969b8K2f+rir5PiV2w7se9k8b10exfDKbSvt8cV/Ile1eJPh14VuPDEd/aeS7um//WV8ph8LGVC59DPEOnXsfOvi3QTo+sSRRfc+/HWO78V8/ioclVxR6tN3p3Ksz/8ATOoH71EdhSBPkp3me1EhRInfioJn9a0j8QSGpJ38yiaZM5q+VmIxJv3jUzef+elWVIb/AKymO61USJbEb5kRhUDw9q2j8JlIj2CmOn/TStIyMSJ174qGZH710QJmQ+X70iQ/u60JEdPK7VDP8/WqiZn6RPc+Yn7mpfk2fvY6+NZ9jdgk0NNe/T/VVLHKRBNdQyVVmvLONG/eVpFBzGXf6lFH/qqx7zVRI/8ArK6Ix94xlIpvqNzHu+/VCXW/L/1sldEaaZm5HPeJ/GFhZo37zfXH3nxCSR/9bXrYejenc46lUu6D4h+2P5vmf3a6Wy1J7h18qlVjyxYU480jsvCtneSTL+7r0nw3pTybfNjrxMRVVz2qNO0T0HR9BQQ1qWWiWcb150ZHZy+6Xvs0MaYijSj5B/00rqjIloZc2FteJ5Utun/bSOsjVfhX4R8QJ5V1paVvCtKl8JNShGtuefeM/wBirwN4kRpYbNE3/wDTOvFPiL/wTN0i/SSXS7ZH/wCef7uvewWeVsPKPOeDjsio1FofP/xF/wCCdfjPQ3k/su3mRU/4FXi/iz9nL4neF3bzdHd0T/pnX3mX5zh8Ra7PiMfk+Iw/vJHD6roOvaXN5V/plzD/ANdI6z97x170ZKolys+cqRcJWsTQz/P/AKyrUMzx7ZYpKUtjSkdN4b8Ty2cyxeZXq/gbxU9w8f7yvLxNPqehRl7x6foN6lxD/rK2UdAnWuA6hXRNlOtrNKmUveAsQ2b7P9XTNSsPMtpP9iqiVI8j+J2lLskrwTxIn2e/avdwcvcPHxXxmW83yVDNMmc13nDJ+6QPNULzcfuqDO9xnku9RvF38qouy47Eab43rr/Db/uV/d1EvhNYGvNMkaLFXM3+qp50kR/v1nSNGytNcpmqr3O91rb7JDZ618LvDz3FnHL5f8FdaniFPDepKZZNlfL5zR9vTaR7mW11RkpGjbfFCGNlliuK7/wr8frk2y2Etx8lfP0Yyw9FpnsylGtVUivrniVPEFz9qlkSs26618hipyliW2fRU7KmkinNDUew1HM7hJCo5pafxAQvv/56VDNC++mTL4iPyaY3+rrSMiWMjptXEn7Ix0pklXEzkNd6iffXREzkR7/npmTmtImciJ3NQzOa0iZyIMf7FGwVrdEjXT3qCZPn61cSZH6QW00Mf9ypbm5TZ5XmV8bI+tujOudQ2P8A6ysy/wDEMNu/7oVUURKRlXPiqbf/AKyqT63c3EzeVLW0YkXZFNczyf624qB9Sgt60i/eHGNzF17xbHbwt5Ulefax8Rbn7Y1r9yuzDw5iasTJ1WHUtYTzYrisyHRLm3m/e16dOr7P3DlqUTqvDGm3Msy+VXrHgDwTJceXLJH5iVwYyvypnZhKXNI9n8JeCbO3RfNjSuz07wwY9vlJsr5mpVfMe5CnaJ0NtpTx/wB+pfsFzv8AxoizTl90Xyf993qzbabNcbf4K2jIzaLtvoMOz97VpLe2s0/gSuinLuRK/QqzOklQzIZNxrRvmepF7opXPhuw1HdFLp6Pv/6Z1zut/s5eCfFCN9v0OH/v3XTh8ROjazMq2Hp1vdaPNfH/APwT3+G/iC2k+y6eiM9fOvxU/wCCVls4kl0aNP8AtnHX0uX8RVqNRKTPmsy4bo1o81NHgXjz/gnj8TPC7yS6XbzOif8ATPdXlviH4FfE7we7f2p4bm+T/nnHX3WFzSjio7nweKymvg6jOeeG80+ZYrq3dH/6aR16L8Pbyb93+8rfEW9ncwot8x7T4SmfyVl/2K6VJvkryDvgTRS+ZV2zfzKmS94o0of3tF5D/obER0o7lSPI/iuj+TJLXzn4ztrmTUvJ8uvewfwnj4r4ylb+Hr+4T/V0+bwTqX+txXZznHKl7pDN4PuI/wDW76g/4RiaN6vmM4QLVn4Vfr5lFz4bSP8A1tYXR0xh7pHZ+G0kmX93XY6J4Yfyf3UdKWwoRGa3oM0ds3lR1w1/ptz50nNFMJFRraaOpdKsJri/ji8t/v1p9kzZ9Q/Bbwl/xJF82P8Agrk/jTo/2a9mli+SvDqe9VaZ6VNPlSPLHvNVs38r7R/2zrS0fxhrFt/frnrYWNaLSOqliJU2kdDZ/FS8t9vmyOldBpXxXiuJFEslfO4vI1K7R7WHzTlsmb1t4zs7hF/eJV6HWLORMeZXzeIy+pTZ7lLERqFh7mGTd5UlDoa4fhOgimqOOqJluOqGbZVRJkRbPkpHRKuIW90jqN/v1rExkQ7BTG/1ldETOQyoX6VpEzkRu/8At1XkzurSJnIj/wBXupz7615USRzI/wDy1NQunyVcTGR9+Tax9ndZfMqpc+J5tvT/ALaV8nyWkfXcxWm1ia43ebI9Vfs9xcP5tC+IL2K+pJZ2aN5smz5Kw/8AhK9N+2eVFJveuqnSlON/Ix5o8yXmajpNJbebFHs31l3Nhfybs1z+2Vz1KdEfD4SS8RvNjrz74i+AJLOb7VapXXhMRyzROIo81NmPoly9uPsssldj4a8PWesIvneXXTiHyvmOSFpWR2/hjwBF50f2WOvXfA3gnZDH+7rxcViOZNHp4ejy6npnhzw28aL+7rsNN0qGNP8AV7683c7+Sxqw6b/0zSnf2bZ/79aQiKUhr6VDs/1aJUbw+X1jramrGVR8onnSf89Khm/ed99dcYnMypMk2/mrulaUkm3zathGLSNuGwsLdarXMyb2MUdVFFRkUfJubl/9XU8PhuF/+PqPfWkYmMqg6bwN4YvE8q60uH/v3XI+MP2Xfhp4sRvtWh229/8ApnXdh8VVo7HHiKNGrT2PFfiP/wAEwvh74o3S6XpcML/9c68h1z/glfqujzNLoNfRYXPaihyTPl8Zkcfac1MwtV/ZO+JPgOFvN0/eiVzl54V8Uaf/AMfOjzJ/2zr2MPi6dfWJ4dTA1MPH3kUEuHt3/ex+XWjp9/DGmPMSurl5tzl5tNC9DqSR/wDLT7lPudShuIaqKvuTzRiziPGdgdQRvkryzW/h6lxeeb9n/wCudelRlyxOCtHmkT6b8PfL2+Vb1qDwANn723rWNRofs1ymFrfw6+95Udc9c+CJo5/+Pd63jUjymDpyHw+DLyP/AJZvUV54JuZE/wCPesXUsW6bZa0TwT865t67nRPB8McC/wCj1nKuiqVFi6x4MhuIW/d1yWpfCtJH/dW9ZxxRtLCymZs3wp8z+CrXhv4XeXqsP+j/AMdP65HYl4SUbtn0R4D0GHS9AY+X/BXkXxlZJLqT/beuScvebNto2PLLnTUkmzU+laJ5j8x1PtLJkwjzFrUvBz7P9W9Zc2jvZHzan2ymrHTGjJajYdSv7N8+ZWjZ+M763/5aVy1sPTqHTRrVKZq23xFmt+klalh8VIflilkr53FZTzbHrUcdbc2Lbx/YXnPmVoW2vabcbf3iV4tbB1KXQ9SGIjItx3NtIn7qRKR0TP8Afrj5ZRNrxqDdhqB/+mtXHlZNvdD5/aonXvirpmUtiGbpUeD6V0QZm/iGv1pjp/0zq4mUipMnDf7lMRK6I7GUhdhpnz+1XERE/Wq7v2rSJk/iPue5sLz/AFXlvTLbw9f3f/LN0Svk51LRPqS//YP9np+9j/eViax4kfT3aLy6vDx9pIVQ8/8AGviTUrzdnfXCeHry/k8VL5skn369/DwiqEn5HNyy9vFeZ9A6Psk0qHzY/wCCrn2CH7NiKvjakmpM+o0SKsOY5WrI8Z2cF5YSebH8+yu6lLlkjNyUk0eBa9cTaPrzR+b8m+ux8GeKkt3X/SNlfQzpe0oRZ4sZ8lRo9o+GPi3Sru8jilkr6H8Eww3FtHN8iV8tjqLp1Gj3sHUU6dzr7a8sLP8A5ab60IdbT/llsjrip02dE5liG88wf36spcwx8yybK66dMxlVFfWLD/ll89R75rx/3SVtaxnfnLcPh7zP9aamfSbC3T999+tYyKlEz7hIUf8Ac02J3z+5jq4RZEqkUiwnnSf8takeFI66IxOWUrDoZkjqfzn2VUSJSQxJn3Zqz5z+uytIykjHmitCSG/ijHR3qT7f5n+ujStIvmd2Td2sjO1jRNB1NPKutPSuQ8RfBbwBrCN5tnDv/wCuddmHq1KEuaL0OfEYenWj7yPNPFX7IHgzUPM+yW6I/wDyzryzxb+xjeWdy39l/JXsYbNeT4zw8Rknu+4cTr37NnjzS0b7LZu+yuR1L4e+NtHmaKXS5v8Av3Xu0MdRrbHg1svxFF7GReaFqXzfb7N0eqLeDHuH/wCPeun6yoxONYZtj4fCVzGP+Pf/ALaeXV1PCtzJH/q6zljoo6YYGXKUr/4e3lwjReXWVN8K7+SbH2d6zlmlNR3NY5bUZLD8MbmT/XW9E3wraT/Wx/JXNUzRHRHLbjU+G8Nm/m+XVtNBWzT/AFWysXmBtHLUiC8toZN37uqT2FtI/wC9rCWYHRHBxiO/sqzkj/1dWNE8PW/9pfuovuU6GMdSpYyxGHjGm2egzWyaX4bb/rjXzj8VLxJdVb/0XXur4Gz5qekrHEYPpW94Vs0k21hPRM0oq9SxuarZokNcTrdykbtXnU6n7yx7Uqa9nc5fUL/5+DVCbUpq9KmjllTkRPqU0feo/wC0pv8AW+ZWvs+Ym3KOh12/t3/dSPWrYeOdTt/+Wlc9bB06hpCvKJvab8UbmP8A1sldJpvxOSTb5klfP4vKeXY7qOMZu2fjazuE/e1eTVbOfrKleFUwkqZ6VPEXiSF4ZP8AVSUrp8lY2say+ErzQvvpqQvs/wBXWhi/iItgqN0etYmUiCZPk83y6jR3reL90iQOhqN3NVEggl/i/d1Vmzs8quiJk/iP05vNK0GJP9YnyVTmudKt0byo1r4OUpan2cImS8NtqD/vvuVJN4M0TUUb92n/AG0rSOIlS2OhYdHnPxR+HVtZhpbU149Do6af4kWXy/46+ky/EOph2vI83FUvZ1kz2PRL9P7Nh/efwVp/2kkdm3lfPsr5etDlrP1Pab/do84vPiXf2/ir+y/s/wDHXV63c+ZpSyy/xpXqVsPGhKNupx4Ws63Nfozwj4hJFJrHmxffrm3vL+zmXypfvvX1mWx56aueLmD9m213PWPg/f6l9shlluNnz19XeA/FTx6VH+8d32V4GbUf3x62WztTOos/EjyPiWR639K1h5E/dR15Xs4xPQ5mzT/tu62dKqTX9/J0uHo+GI4xtItaVqSW83+lXFb8PjCwt0XypI6qMeaJtflZK/jN7j/VUkN/c3laRpmU5EyKkf8AHTw8mz91TcjGQ5Fm/wCWQpdlzH/rY6uMjOURYkvZf+WeypnTy/8AWyVpzHPUXKRfbJN/+rrRs4ZrkebLHW3N7pjy+8Oudke395VWa/8ALRvKj/7aVpCUUVyFT7ZNcP8A6yo5vOrbmuPlIks7y4p/9jvJ/wAs99YyZfKL/wAI3Zz/APH1Zo//AGzrO1X4XeGNUT97paR/9s6PrNSjsTKjGp0OR1/9mDwNqm6WLT499cR4h/ZIto3aa1jrqjm1U8+WV05Sujl7/wDZsvI38q1s3rL1L4Fa3paebLZ/+Q656mZVI3Kjlyic/eeCby33CXT/APyHWbdaPDHu/wBHrl/tCUjo+qwiU5rNU3VnX8MP/LKrjipOxn9XjExr/Z833aw9SmSP/lnW/wBalIzdNGJfzfPVTe+/HmVtGo7GMok1s9a/hX/j882X+/XpZe/30Tz8dpQZ0njzWEt/DflQyJ9yvmHx5qX2zWJj5n8dfYSf7s+L6tmRZw+ldT4bs3jRZa4a1+VnZh4+8i34kvEjh8r+OvO9emeR282vNoc3tD2pW5Tnb9PMqhMhjr2qRxyiRVHXRExDZ89SInz5FEhxLNsh2cVch3x8RS1zVGXFF+2v7uPbiSStez16+t4fN8yvOrUYs2jUkVLz4qXOlzeVLJW14Y+LsOqOsUtxUzyb21HnRms09lNQfc7Ww1WHUE82L+Orjv8AJ/q6+Xr4eVOVj2qNT2kbkOyOSmuh2Vn1SZfRtFV09fkqs6e9dEZOOhk4xcRyfvaHh+Sj7RlysqTQ/wDTOqlyldUGRI+7H8c3lw/+spz69N83+kV8dKmtT7GEiN/E723+qkptl4/ufOzFI71k6aW5vGoyzqt/L4kg8ry971x2q/DpLab7VEK7sLiFRbj5CqUfbNMbbGaz/deZWrYXg2fvf465q0eZtm8eiOZ1jQdN/tv7f9n+ff8A6ym+OfEUNnpv7qT+CuuPNXlG/RHLTgqfM11PCPEOt/2hrLfvP460NH0G51i5jupI/kr7TDw9hSXofO4mp7as4+Z678PdH+xpH+7+5XrGg+JEt4fK+0bK8PGfvZNnsYP3aZup8QtN0dPtMtx9ytvRPj3oPk+VFJ89eXUw0metTlElm+NLSO3lfco0r402dxN5NzThhueI5TtI1H8e/wBqTLFayb/+uddb4Y0S7uEW6v5KzlH2aHzczOus7Dy08qKOtSz0S82eb5dKJM0WP7NuY3zVi2s8f8s6UomMpFuG2hjf99JVp3s9n7qOiMSZSIdyf88qqXEIuH6VWpKj7Q0NK0G28vzdlaH2Ty08ryq35vdD2fvFW501JP8AlnWbc6O+/wC5Wd5Fcg628NzSD+5V9PDf/Tv/ANtK6qcrmNQVNH8tv9Xvpf7KfP72PYtTIz5hz2cMaf6uqNyiVzSlJbmkfdM9/tMj+VFHU1tpU0g82XfWcpNHRHljG5YTSrD/AJaxrVHVfD2j6in/AB5pWb5p3HJnP6l8I9E1BG/cIm+uR1v9mDR9Q3Sx1lKKgPkjI4fxD+yLqEjt/ZcleZePP2e/GHhf95Fvm/7Z1tRqLQ5a1CUTzDXvDevafuN1p7/9+65PUvOx+9r0KbjI8+qpIybl/Mf/AG6hjrqj8JzykTbPLhasm88cpodysXmV62WR/enk5lK1Fmz/AMJOnii2W18xH+Sufu/hRZ6pM0ssCfO9duJzRU6nIebRy/2lNMRPgPbb18oOlXP+FRalp0P7qSslmSqJmywMqclY5Hxh4P8AElv5n+h7/wDrnXm2vabqVu/72zdf+2db4epHmNK1OSic9cr3xVGbpXr02ccpEEv3/wB1TNp311RMR6JU0MNZyLiWYUSrcMKYzXLUkXEv2tmu/rV77N+5b/crjlJtmkbHnvjxP3zVT8B75NVWvqcJG+Ds+x8tjJWxi9T33wSnl2yxS10HiGY2dh5tfEY6lF4ux9ng5f7Ldnlvif4r/wDCP3n+t/jqzoPx1sLzb5twldcsjdSgppHB/aipV3BnT6d450TVf+XhK0EvLG4T91LXhVsHVoT1PUp4inWiSIi0N/q659bm1kVpoaqTQ53fvK6IMwaPsJ7a68791TP9Mk/5Z18zJ2PrIxvIa9nNI/73e++rlhoMsm2Ty9lZVJnRCn7xsWcM1mn+zUGseMLOzh8qXYn/ADzrn+KR2RfIee+JPElzJc+bax/JVXTfiL5dytrLvrtp01OJySqtSPQNB0SHxRbfaoY/9YlZvxI+FFzJpTSx0Uaqp14ourG9K/keDzfCW/OsN+7f79d34V8Ky6fCsX2f56+uqYqLpWR87DDuNZux33h7R/scP+ret6z8JTXifa4pHSvEqYiKqXPoKOHlKmZeqeBvElx5n+udKw20fWND6W712UakK3umcozoxuamleLdVjhaKbS3f/rnR/bGpRzebFZum+t/q8YNmMsS5JHp/wAJXfet1f8AyIle9eGNS028hXyrivBxUeWpoehQqL2ep2Wif2Pn/Wb63kudNjX/AI+ESlTsTUlIY8+myf6qTfWbqV+lmjS+ZTn7isc/vc1znZvFqSXPleZW1ptykkP+s3vWanylxjzE0+pPGG/d1UTxJbRuvm0ROmMeWJp2PjC22f6ytGw1hNQfmSt4e9EmSN3T7O2uf+Wla8PhuKRF8yOt407nHUnyyJovD1tH/qo6c+gp/wAtark5TCVXmkULyzhtz/q6yb+ZMf6uueo+UumuYy7lbmTnzKYmlzfL5sdYSjzHVGKiL5KR/wDLOnujyJWNmDIktX3YqVNK8z97LHRJlxiTvpUPkt/B8lcn4kvbnT93lSVE/hNYnOzeNtSs937uqv8Awkmm6x+61q3TZ/00rPlD3TnvFvhj4daxD5UtvDXnGt/sueBvECNLa7U310UakqSOepSjUPO/Gf7GHllpdFvHrznXv2bPHmj7vKg3pXqUcRGpGzPLqYWcb2OM17w3r2h7rS/090rxz4hXNzHrHlS70evost5Yt27HzeaR0Vzo/h000ds0vmPXYw+JL+zT/Wb6+bx8ubESfmehg7Rw6XkXrP4ivH/rbf5K17P4kaPcHyrrelRRqcp0fES/afDesJ/rIfnrM1j4daDqif8AHvDJ5ld9LFcpjVo+0OI8Q/s8eHtR3eVbp/2z+WuF179mm8j3S2Fw6V7WGzLlPPrYLl2ON1j4J+MNOdv9H3pXP3nhXXtPdvtWlzJs/wCmde5TxlOfU82dGUSBIXj/ANbUiIlaSceg/hLEKPlf3dXbaF/lwa5ajiitJGnZ2ydKvvF5dm37uuGT/eI1+yeaeP8A/WNUHw0h8zVf+B19dhdMLfyPk8ZrjV6nvnhuzfyVzV7xIj/2bzXxuKlzYp+p9dRv9WPnn4xW7idq89S6ubc5hlZa+8yy0sKj4fNJSjimaFh4u1vT2UxXrV0mkfGXWLIr5sr1OKyyjiOhWFzKrSOu0H49pK6/arjZXYaP8XdD1BFHmJXyWOyOcfhR9JhM3jPdm9Z+J9H1BP3VwlWf3Nxt8qSvnKlGrQ3R68atOpsz69+3f7FWLMvI/my/9+6+XqH21OPvFzfZ78eXVtL2GOHEUdcm51wWpVubma4/dRffqj/wiX9oP9quo6r4ZGcpXM/VfCthInleXUOifCjStQvFl8utfaOlAI0+aR7V8P8AwBpun20ddhqXw603WLP7JlK5Yycpcx1ON1y+R5/r37Pem2UzS+XWdD8KLOzf/V769OOKlJWOeOFjB3Z0GlfDe2kRZZY9iVtW3hvR9HT/AFiVzPmqanVGpGnoQ6rf6bHbeVEUrj9Y8Nwax+8+xPXdheen7xy4mpGceU2/CXg/wxp6f6fbp/frZudH8GXA/dW8NdU6leTZyyjRjFD/AOx9KtIf9F2JRDrM1n/qtQf5KIw5tWYyqdEXrb4hazp/+quHeh/G3j/WH8qw3om+rUKcSHVnI6nwvf8Ai2zTzdUuXq9qviTUbiFraKuCtLmnY6qcJuNznJkvI5vNkuPnrS0rxnf6f/rd9TGHMax9063QfFsOsbYpZErRv/Df2hGurWtoxLjPmRkOlzpz+VLHsrS0fVRH/wAvFaQ92REpHceG/EONsXmJXc6PfpcQ81tTkcNT3pF6a8toEbzZKyL/AMVJHujijorT5SKdPmkZD6rNePSfY0kT+5XL8Z129mI6Qxf6pKo3N+kb+VLUSfKEbyKyO87/ALm3/wC2lY3irxR/wj6eb9+sjpjEw0+LVz5P+i2dSJ8VLxLZpZbeiUTSWhk3PxY8Q3kzfZbN0X+/VG58VTXn/H/vepn8JlGRnXmqoUaX7Psrlde8QwyborWTf8lFOJjUqWOU1WbUpHb56zn1jxJb/wDHreTV6FOlHl1OeVSXQ0tK8T+Ko0826nd0/wCmlWpvG0X+qv7NHqvYx5tCo1JLc5PxbpvhXxJcrmzVK4XW/wBiH/hYlyt/Yaf5Kf8APSSOvUwdSVGTPNxmFpYlIz/EP7D154P01vsFz86JXmviT4LeMNERs2+9P+udcmIpc1RsSw3JTSRx15ouvae7ebZPVJ7ia3/1sbpXNKjymHwipfvHu/ef9+6nh8T6rZv/AKJeTf8Afys1FocTUsPiLrFu/wDpQR/+ula1t8QtNuE/0+z2f9c6tVJRFtuWf7S8H6x0kh/65yR1BdeA/DGqJ/q0f/rnXXTxFSMtzOdGMjnte+APh7VN3lafDXGa3+zNDlvsEjpXrYfMpLRnHWwfKc5f/A3xPp/+qj86subwZr2lvm60uZNn/TOu761CocPsXEfbW3z/AL2P56t36eXZt+7rOT/eI0+yeU+P3P2lqt/CK28zUv8AgdfZUP8AkXv0PkcV72NXqfTXgzw8txZr+7q94n8Ev/Zrfu6/O8diHTxT9T7zC0b4b5HzP8e9HSz3eT/frx1wTwK/SMklzYGLPz3O48uKY2nDZ3NeweKJ8/vU9vqN5B/qrlqmUYy3RUZyjsbGlfEHXdLb/j4auq0T4439vtiupK8nG5TRxGyPWwuZVKW5+okOlQ2aL5sfz0x0ubh/9Fj2JX4Gz90j8I62sZv+ebu9X7PQby4/1sexKmWpcX7tjbsPDFtbwrL5dOv9KeRPJijo+AXxkFh8Nrm8/eXUez5619N8BrZsvlVE6lzqjTtE7HRNP+xbfNketSbxVZ6en+srOnGUkaS5eXU5/UvGb6pN5XmVk6l4z0fQ082/uE3/APPOvRo4eTtFHLPER5dTBv8A48QyO0Wl/wCr/wCelZF58VJpD5t1cfPXsUcCeXUxnUpf8LO+0P8A6um3PxdTT05k+eu6nguY45YvTmKqfEvVdQRpZbjZUUPxOvI5vKsJHd/+WddH1SLk12OeWJkvmbuiar4z1yZZfKmeu30HwN4k1B1lupHRP+Wlc9eVOhc6MNGVbc7vSvA1hbwqNQrW+2aVpEKxWsaV4VXEOctD2qWH5dxyX9zqCcRvUn2dLdKzjE3n7pRmsHuJvNqT+xU2VvE4p/ERpbXOlv5sUlbOlfEi5s2WK6oi+YmMuUn1Lx/oN4PKlkRHrnNe8Y/2d+9tZN6f9M66o05Oxo5RqKyDw38Y/LmWL7R/5Er2TwB49udUhXyriipGVMz5eU6ya8mMH72Sqf8ArH/e1nJcwRfKW0mht0+5UD6x8/lRR76yTJt7Qjma8k/1smyq001hb/vfL3vXNVk2dVONkQ3Oq+Z+6qCaw03U0/0q331nze8bfZIP+EDsJH837Omypx4b0Szh/fWaU5S3Ik/eM+807w9cfuo7eOqH/CK+HpN37tKiRMtTG8Q+BrORGEUnyVxWq+A4Y932VEraM+UynG5kv4DubibzZfuUXPhiws0/49q29tdnP7Nozry3h/1X2f56i0r4LeIfHE37rfbQ/wDLOOOP5q78P78knsTUfLCx3ng/9lqz8Pot/qkm90rpZodP0ewaw0uw3un/AC0retWVN2RNONzw/wCLuq+ObO8aWK33xyP+7jriIdS8SaxCtrdeG3f/ALZ11UY+0hcxrVXRloZeufCh9QRpbrQ3Tf8A9M652b9le58QP/oulvXRUo0/Z3OOc+eZWm/YS8T6h/x4W71yXi39i34l+H93lae7on/TOvLq04xH7FnnmsfDHxnobt9q0eb5Kxrmzv7P91Lbulc8kZWlArPM+9alh1i8s3xFcOn/AG0os+Wxnz9zSs/iLr1n/wAviTJ/00rXs/ivDIV+36f/AN+6cbor2nMbFt4w8K6h+6ll2u//AD0q5/Y/hjVI/wB3trWniHzGc4qZn3/wi8Paru/0SF9//TOuY8T/AABs5LNpbC4dPkr0KWJ97UyqYb3TwP4o/ArxfZ3MktrbpMv/AI9Vb4ReEtb0vUl/tTR5k+f/AJ5193hsVCWWvXU+JxFGpHMFpofVXw301JIY/wB3W94z0pP7Hk/3P3dfm2Pk5Y7TufomF93B/I+O/wBpBPs7zGvC3/1nFfqmQ/7ij8yz3/e2Mor2jwwooAKf8/tQB+1sOlQ9KWHQXkfhK/muR/RkvhNGHR9Ns0XzauW1t5j/AOix0wjrIv23hu5uP3ssladnpWm2f/AK5qk+Y7adHlJ5nh2fuvkqncaxZ6cnm1Kjc1k7RMLUvGepXk3lWEdQ22la3eJ9qut713U4xjFHDUlKpKyKWttqun2bS2sfz15fr2m+KtYvG+1b69TCVI07yZx4ilJx0L3h7wfqP/LWptV8GXNw/wDrK7I4z37GMsH+7uT23w3uTbN+82f89Km0z4F63rl4vlRvs31p/aHIZvA+7Y7nSv2Y7yS2WK6krpfDH7M3h7S5lurpPnrCWZSp02u5pHAxl8j0Cw8DaDpdt5Vrp6fJVpNKvM/uoq8aviqle+p6VDDxhsK/h6/uE/e/JUb6DYaf+9upKzjKzOmUeUhfVbC3/dWuxKjfVYevmV0xkYz94gm1d49ssVaFnfveJ5nl1pI4p/EMluUkm+y+XVS88JX95zEn+spxfKSo8xz2sfCLxDcT/arCSRHT/lpTNH+G/iS8dob7e9ehRxEXYxp05Uamo7WPgbr1mjX0Ujo9Hh7xn4/8Dutra2fnf9s67ZRjWOioz1z4e/EXxLrkKy69Zuj132mm/wBQ/wBVHsrgrLlMU+Y0k0RNi/arjfUn2NLdP9FjrhqaG1OPKUL+ZN/+lSVVeH7Z+6tawlK50L4RH0T7P/rZKfZ/u3/dR1l9or7JopDNJ/rZPkp82iQ3CfupKuMb3MZP3jndb8P+W/7qWsqbRLwf6qsJFx1KN5pF5/y1kqk+g3Mn+rjqZTsa+yuCeDLy4/5Z1DN8NJpH/e1VOpeQ500WLP4Y6Vb/AL2WNN9bOlQ/2G/laXbp/wBdJK9KOJVGml1OB4fn0JNYm1u4TEsjvv8A9ZWLLM9mf3tv871pR/fPmZM/3ZlXOiWGsO0l/bpsq/o/hXw3bv8AutLT/v3XZHEey905fZ+0eout+CbbVE8q109UT/rnTdN8B2Gl2flS2/8A208uqljl8Jn9XtM1NKsNN09/+PdKTWE0e8RormzR/wDtnXG6zqG/KjgvEPwQ8H+KJmMuhw/PXJa9+w94D8QJ/wAeaI7/APPOiMiJ04yOD8W/8EytKuEaXS/3b1454/8A+Cenjzwukl1YSO//AEzrT2i5rHNLB+02PJNe+APxC0OZopdHmfZ/zzjrl9S8MeItHmaK/wBLmT/tnWzicU6bplTfNH/rv4Kkh1W8s3/dXDpWfLqLm5TX0/4i+JLP/l83/wDXSug034xySp/xNLP/AL9043Ux814su/8ACQ+D/EA8q68n/tpHV/RPCvhKSZZYvJr1cPjqkYNX0OGthac5J9T0Lwx4e8MRov7tKv8AjDwXol5ojfZbj5689SUsVd9z1afu4e3kfE37Wnwr1tEkutLs5Jvn/wBXHXzHdWlxaSeVcWzxt/00j21+rZLKn9VSPzLPYv622V6K9g8MKKACnJ0oA/caH7Hb/wCq+/VhLO8vOYo/kr+bZWgf0XBSnK5bh8MJ8v2qStC2htrP91FHXPKd5HbTp+zQ2bUvL/1txWbeeJ4bdG+f56mFMuVQzJvE+pXn/Hr8iVNYWb6h/wAf8m6tuVQMZS5zZs7aw09/+Peuk0ea2vE8r7HsqZSbiVCwzxD4JfU4fNtbeuK1n4e39ujfu0rSnNjqHP8A/CN+KvO8q1s3/wCulXrbwB4nkmX7VG9ehTnGJyVZXOn0T4d3gdZbqT5K7/Q9PsNDhWK1j3vROpGJnHm5jQd7+R/NqxDN92uGpKUztpxNG2SGR182ta2ezj/u1NONjaMirqUz3CeVax1lXPhK/wBQk/1lANmdf+Bjbj9387UWHgO8u/8Aj6krf2numFSBYv8AwH9nhWKL79aeieFpreHyvLrX2vunJ7P95c0bPwGftHmeXW9baJYW6KZY6z52XGPIaEOiQ3kPlRW6VLZ+EtH0ubzZUR3rsoswmyS/s4dUh8qK3+Sqdh8MdHkuftUtuldLqsInSWfhLRLNF8mzSrbwpbp/crCcgkUbnWLOP9z/AKx6i+2alc/7CVxznc2jEieGwjf97JvepE84J+7j2VlEqRPFZwyn9789WrbSv+meyr5feM5SLiabDGn+3R9jm/3KmcuUmPvFW50qHf8A33qlcaVNv/1fyVz1GddOJD/wipkf96lWrPwZD/y1SojGXU19oorQt/2Jptv/AMs6oalpvmf6qOtZSUTJt8xnHw3NI/7yq1zo/wBnf/WVMZSnIcrRRDf3NtHbf6ysa50q81R1+yx16dGpyQ5UcdSPNLU1NK+HWpXDr5sez/rpXR2fgWw0tFMtKMZOWplKUY7FPWDaWe4ebXK63rfm/uov3lEncz1MvydVuB5vlvWlpvhua42y3UlEboduY1LbR0tzj79TO1nbp5t1tWnzMqNPUoXnjazt/wDj1rGvPtniT/W2/wAr/wDPSjn94uNMgufA3gbyfNv9Lhd/+udeafEL9nL4b+MJv+QWif8AbOto4rljYccJ7Tc8n8c/sK+BvJaWwkRHrwzxt+yLc6PM32C4+SnRxUpSOXEZbE4fVfgJ4qs/9VHvrndV+HvirS3bzbD5P+mddPNE8mrhp09jMm0rVbP97LZzbKbba3qWnv8A6LeOn/bSr5VI51Lubul/FfxVpf8Ay+eZ/wBdK6vSP2gZnT7LqkTolVCMRxqSQ3WL/wAMeOOZbiH5v+WdcH4q/Zv8K64jSx2aP/2zr6DL8zlRtE8nG5fDFXPLfF/7HUILS6NGy/8AXOSvLvEnwD8Z+H3YxQecq/8AAa+ywOb060bSZ8jjMqnR2OQv9B1jS38u+0+aP/rpHVPZJXtU5xlqjyJ05R3HUVWnUn3ubQ/dG0s9Ns/3ssu96sPr1tZ/3Er+ZZc0z+lIqMY3Ks3jCzjP+s+eqz69eXjt5Ub1pGjqTUq3RYtrC5vdst1cU6bSrOP+CqMXIbD4bubh/wDRbetrRPCU1mn7yR99Z1LyNIxsdBYaDDHt82Ouj0fR7CNPN8upjJcpRNcpdSfuv4P+mdVr/SrGOH97IldFGmTKZStrOwj/ANTZ76fcw/OsUUdbT5YmMZKQ+2tPM2+bVlLaK3/u1jLmkaRtyk329NnlRVIjvJ/q46HaJorlq0hvJH8ry607bSrkD+4lRzWNIo17DTUjT7lSvCkZ/wBbTKkN8m2kfHl760LbTU8n/nnT5dCJSHQ6JDI/m1ZSGws3/e7Heqt7plzaXLKf8TD91F8iVIlhbx/7da07GUnzE6JN/qsVPHYf8DrqjoZSiWP9Ht/9b870x9V8vtsSplUCMSrN4nff5VrFveo5P7SvP3t/cbErGdQ0jC5VmvLCzfyrWPzn/wCelWLb7Zcfvb+TYlZblvQtQpYed5Vr871oRabL/wAvT7K1jEwlIlRIY3/0WPfViGb5/wB7JUzlqKKuWo79NnlWsdPS2muf9a9Y35zeMeUc1mlv+9lqvNc20j1p7MPaDn3yIvlR097ObZRWt9kKbstR0Nh8nXfUVzYpWEqbkaOorlG/2Rw8fJWHc21zeP5UUf36cbRkJpyRNZ/Dea4/e3VblnpelaOn+rTfXTTXI7s5as+aWg288VWdvu+5XOar4tubh/Kta1qVlJ6GEabjuYtzYajrD/vpHqSw8EpH+9l+elGojTlNSHw28ieVFb06bTU09P3tzTlUQ6cbnLa94gvI5vKsLffWfNYeIdY/1u9Epc6NI0/eGf2bYaWnmy/O9QPrFzcDyrWP5an7RvFEHk3Mm6WX56yde1WazT/V1EnzSsU32POvE/iS/uJmiikfZXC+JIrm8f8Adb66qKjGRx1JSZzs2j6q/wDraoXOg28n/H3p6SV2e6cvLKW4z/hCfCV5D5V1p+zf/wBM6zbn9nXwBrCN5UkKPT1iZ1KFKpsYmpfsYWdxDJLpdxvrjNe/Y/8AG1hG0trG71rCtTOKpgZo5jVf2f8A4naPC11Lo82z/rnVG28PfEvS082Kzudif8s5K25krSOCVOVO5InjPxJp/wC61nR9/wD2zpLnV/CWuJ5V1b7Xf/lnJHXVh8RKnKyZz1KMam6Mi/8Ag/4P8QI3kxw/P/yz+9XDeMP2SNHvxJdWtuiN/wA9I/lr6bB5xKG7PBxmVRlseX+LP2XfFWjbpdMd3T+5JHXB6x4J8T+H5PK1TSJk/wCmn3lr6vDY+liUfL4jB1cMz9g7bxhcybRF8/8A1zq3DZ6lqj+ZLJsr8E9iqcj98lWdTY0LDR4bd/Ol/wC/lattGd6xxR76mYom3puj3Mif6VJW7pvhu2k24rlqS5ZGkVzG7pXhtJHXMdbMfhhJOcVnGUpS5Ub+7GHMyX/hG0+XzZNiVNeQ6bplsv8AG9dUKMbOUjnqVtbRMbUtVubhGitY9lVtN0q5uP8AWb62lOMdjOmpSlqakOj+WnmeVVe5s3tz5v8AHWFSpc2p07EP2l5NvlR0iaVf3HX5Kz9pyxLjHmNLTdFeNK1YbOGMfvY6ylUudcUX7N7S35EaVak1KKT/AFUdESZD0mmkH7qp00qaT97dS1pEiUiX7N5e3yvkpLzVfs6LFFJvetjGQlnealJ+9PyJU0KPJN5vl76rl94TNKGZI0/0qTZUyX6Sf8ep3/8ATSnzcsiuX3Sx9vht0/0mT56bDqV1ebvKTYlXze6zOUNCGa88t/3Um96fDYTXH+lapJ5Kf9NKS1iDK2peJNE0/wD0XS497/8APSq8NtresP5l1cbEo8wcvduaMMNnp/7q1j3vUqQ23/H1ql4kaf8APOiMeYxlJkkPiHR4P3Vh89Nudb/5ay3lKVS8QjF3C28T/aE8q1j/AO2lWEuf+etxvrlnK+2x1U6fKa9m9zs/499if89Kt22pQ2+7zfnroo0m/ekZVqiceWJma3r1zeS+VF8iU/SvJ+X+N6qVbUcKfunRaakNLqt5ptv/AMtKNPZmevtLHP3/AIzhj/dRfP8A9c6ji1LVdUfyoo3SsebmOhQj1NWz8LeYi/apKs/YNH0runmVrGEYnPKpJ+6Z+peJ7a3RoopK5fVfEs15/qqipVuEaJQTR7/UH/1ladh4V8v/AFqVlzSdjSUeU17Pws/y/u6svYWelp5t0a6adP7TMW/e0MfUvESb2isI6pJ4b1XWH82/k2LRrJFS+HQmm0rw3ocOJSjvWHf376g7RWEexK15EXTMm50qwj/4/wCTe9VdtnG/735EpbDkNvL/AE23hbyo971x3iS5hu1bzfkrCUgl8Jx1/pSXDtFFHsrO1Hw9Z2cX9963jLQ55HP3+jzSfvZRsT/nnVS5sLP/AJZR/PXRTk+U5/tGdeaCtxulpLDw87zfuq6PaLl9CZXVmup0Oj+HtXuHWLS7eabZ/wA867Xwl4P1K8dft8ezZ/rI6z9nLl52tCnPv0Oq1Xwr4eks/sF1pcP3P3n7uuO1L4e+BvJki/sOH/v3Uyrakey5onD69+z98OtY3ebo6JXGa3+yF4K1B2+yxon/AGzreGJ1MJ4WmcpefsQ/O0ujXjp/1zkrF1L9mz4m6Hcra2Ej3if9NK7KWIsefWwdtjB8SfDTXtH/AHWvaG//AF08vdXLar8CrPxHC3laPvT/AK516+Fx/s/eueTi8v8Aa3jY+ndK0rTbP915fz10GmWdzJt8qP5K+LrSbkfaUtDRh0TzGX+OtrTdHS3Rf3fz1y89zpibC20Uf+/WhYP5f/LTZ/00kqfZ88hylyF5/EOm6XD5st4j7KisPjHpfneVLJ8m+u6hSjTldnHVrSqR5UdTYaloPiS2/wBF1BEeoLzwq8f76KTzv+mlejiMLTq03KJw0cQ6dS0ip5NtZ/urqPZU0L20f+qFfOS5o7n0kIxlG6LW9LinPYfaP+WVKWpdiW28JGR/NqxNo0NnHWfxIuMeUgR0joSQpURiyZSsPttNmlfzfuLWlZ6Um9f3e962iS2bCaVNHCpl+RKZNeQx/urX53roiYyYz+zby94urjZVqz0FJE/0W33v/wA9KoUdSK5019Pdpb+4/wC2dRw+IftA+y6Xb7/+mnl1V/eLjEq3+g6rJ/p91cbP+mdc9rfjbxN4fRorDS3mT/np5dPl55FcvumYnxgnska/1m3ZP+mclYN/+1jN9v8AsFro7pD/AM9K6qeG91mVSWhoQ/tUabodt9ql0x3esDXv2qNb8WSf6Lp00MP/AE0q6eH0OapJmZbftD/Y5vLi0+aSb/rnWtYftLaxIn+n27wp/wA863+qrkMZV/e5TStv2kftH7q1jem3XxvhuP8Aj/vP+2dYuhyhGrqS2fxdnuE/0D7n/PStPTfH/mbfNuN71xVqfLE7ITVzsfCWt3+sfuok+T/npXoHhXTfLm82/jqcNhff55fCOdXljyHRXl5beT5UUdZzzL/yxjroxFZS92JlRpO3Mwg0FLh/Nlj2U2//ALN0NPNluK4+TU35vesZT+OZt7RWEe+m/wDEy1h/9KkfZRrsXZfEXbDStO0/97LJUk3iuws+Io6JWiZ/xNirN48fpFJUM2sXOoJ+9uawlWcjSNNblWZ7bP8Az0otrOOSfzfLpR94Oa0TYsLP/nklbVn9g0+H/T5ErrhGOhyy5pFPUvHNhGjRWHzyVlvZ6r4gf97JsStre00QKPs43ZL9g0vw/D5ssvz1l6l4nvNQ/daXH8n/AD0rTSMQjrEw7/yY90t/cbn/AOedZVzrmpSP5Vrb7Epe8PmtsZ015NcP5UW93qjNbXMcnm6pcbE/551nPQbZTv797j/RdLj3/wDTSq82lW1vtlv5N71lKJMtjK1hEnT918iVzut39nbweVa/f/56VtSV4mcjldSea4/1sn/bOqiabc3j11xlHlMp/Eaem+G7nUJlsLWzeaZ32xwRx7mevbPhF+xnqusQx6z43k+zQv8AP9lj/u/7VejleXyxte/2UeZj8csNF+Z3GqaD8LvhXbto2l26TTbP9XH8zV59LeJHfyX/AJaoj/6uOtc6xGHhahS6BlsatSPtKnUzNS177Y/lWsdZVzo7SfvZZK+b+0exblRUfTUl2/u/npj6I8e6WSumFuYxnGJB/Y9/cRL9l+5/z0qC/wBQttCt/wDno9bx9057W3MNPCs3jSb7VqkaeT/zz8un3/gnwrZ232CLR0d/+mcdaxqu/KZ8i1kZWm6DZ26fuo/+2lbNhZpG/wC9FePOXvHp00ajvD5P7qD/ALaUQ3Kb/K+0fN/zzjoo0eYcqhV17Vb/AE8eVYR/PWA/iHWLhPKupf8Av5Xq0aUYxOOrKUpEFy81x/rbh3SszULzy5v3Umys6vvbFUo2kXPDvjO8s5v3V6//AH8rttB+LutyOtrLcb0rljiKlN2NvZU5nSp4ks9UTzfM+d629HhS424+SuHE1OeR6OGhaJvWegpj+/WlNp/2Pb/HXHzHTL3SX98U/uVnXltcyPn949XF3lYn3oxuiD7A/wDy0k2UtnbTSS5sLPf/ANNKuL5tnrcmXu35loaKWEVs3m6peIn/AEzrQs9SWQ+ToulvN/1zjdq6qNGp9mLZyVMRThfVIvw+HvFeofvZPD+pP/1z0+Vv/ZKv2fgnxtIn+geA9VT/AKaf2XL/APEV6FLLcVLaNjinmOEhpzXJ/wDhX/jm33Sy/D/XJn/6Z6XK3/slN/sT4lxp5UXw71iFP+ekmly//EVrLK8dTlpEKea4J9ShqXh/VY/3uvaPfp/10s5V/wDZKo/2lbaX/wAetns/66fLXJLD1qfRv5HdTxeHqbTSK954htrj/Wnf/wBM/vVPbp/bEHlf2fsT/npJU8soys42fYvnXLzRlddzI1j4V6DqP726kR/+mdc3qXwN0e8f/QLNP+/ddUZ1Ixs0c0nF6p6mTqXwXtvJ+yywI9OtvhdPp9t+60dNlQ5BzC23hXw9p832rVNDR3/651neJPDfhHXLlYv7L2J/1zpyqVBSjcvW3w38GR6b5VrF8/8Az0qGw/Z+8PXrtdS3H/bOsfrM4lU8PCpuMvPg5c7/ALLYS7Err/h78ENK0tFutU1RN/8A00krop/vI6jnFU5aHotvaeHvD6L9lkSrCeLbAf8AL4iVy1q03HkRtTpRd5Mr3PxC0SP/AJeN7/8AXSqz/EiHZm0jrkU5L3To9kijefEvVfL/AHVwiLWBqXjy0kf/AE/Vd7/9dKtRnOVyJONOwab8RdHj/wBVJV//AIWpF/z0q3Tsc9SpzaIY/wAQvth/dXFPs9V/tB8+ZWNR3iXGNmaDvbR7fKq1ZzeYlZRp6mjZoWFnDJ/ra10/s2zj826kRNldVOKRzyk5GJ4h+KOlaX+6sNjvWHD4h1jxJN/pUjoj1TiH2To9Nh0TRoftV1Om+m3njya4f7Jo0dar93sLl5tyhNM9x+91m53v/wA86ktheXj+VYWfkw/89KUXzESILy28N6XN5t1cedN/zzqhqFzZ3Cf6Xshhqpe6TH4TNm17TbZPK0a03vWPqVs9xKt1qkn/AGzrMrm90pXN4ke42FvsrH1Kb/pr89BJlXKTXn+tk2VSvPCV/eR/uo/k/wCelX8JMveK1z4Gns7bzZYHd60PCXwZ8T+KLyOKK3+zW2//AFnl/wANb0YyrVOWO5jWlGnG57h4S8H/AA6+CdtHf6hGj3Wz/WfeZ6wfip+0P4h8QQNpejSPptht2fu/vPXvVcwjgMKsNS+J7s8WngpYrFe1qfCeVzeLJt7eVI7t/wA9Kls7/VtUf95J8lfNv3pXZ7tP3VY2rCztrP8Aey/PUkyQ6g/lH5EqYxLkQ3UNhZp5Vr871VSweTdLqkmxf+edaQlaTM5FXVfEMNvbNa6X9+ufh015JvtV+nyVtCSMuVj7zxPbW8P2Wwj2VDbX9tb/AOlS/O9bRiYzZSttNm/5a7I6v2y2FvH5v3v+uleb7P3jt5ih4h8QzSJ5WjW9YlhNrGn3P2+6f5dtbx/dmcolp/G1nLN5Xl76m+1eHrz97LcfPS9u4xNo0eZkOpaJqUkLf2XGm2uP1LRdYjf/AEuN1qY1uYmVLlkMtkezf/V/9tK0bB5t/m+Z/wBc446zqt8xUHGKOr8N6rNZ7ZZZK7rw9rz3G3ypN9cNaNpHdRnaJ2th4nSO2XzZK2NP1tNQTzYv/IlYx952RtzRlqzp/D3w08f+LEWXRvCd5Mj/APLSSPy4v++mrq9N/Zd8bXm3/hI/Emm6Oj/70jf+yrX0WX8P4nER563uwPExufYXCy5KXvTIfE/gD9nX4WQrdfEH4sQzf9M47hF/8dWvPvE/7Y37K/w7muItL8N2F+sPyQSXEjyNN/tbf7tdleGW5fL2cI+0f3HBTqZlmEXOcvZx+88+vP8Agpxo+lzNJ4c+Gelvv/1ccejpH/49WZc/8FX/AIhW2lSRWHgu8e8mdvLgjjeCJP7vzR1pRx2O+zFL7gqZbgZX1b+8zNS/4Kg/G/VNHj8rwPqSXMjr58n9oPtRf9lawNH/AOCl/wAftPtrr7f4TuZppn/d/wCkOqo3/ffz1pLEYyUuduxj9TwcY8qVzP17/goj8fryNrW6vNYhX/pzkddmf4l/+zrB8Q/8FEfjZJZLYaX4g16w37U8+3uJVbcPvfx7az9pjb61PwD6rhIdDS0r/gqn8ftDf97481VEtkXzP9If51/ib947fN/sV12if8FnvFuoeda6p++eH/Vx6ppdvOr/AO81dlHMM2p9U/kjlqZbgKnw3XzZ0fhL/gqb4A8Qayth48+Dfgt9/wDrL6OP7Mv/AH0teu+Hf2kP2XfiBbNLdeG9S0r5/wB5Jo+seYqZ/i2t5ny1p9Yy/EaYilaXcz9nmWF1o1bx7WOu8PeHvg/4s/e+A/i4jv8A88NYt/8A2aH/AOIq9efCXx/ZwtdWulpqVmn+sutHuEuf/HV+ZP8AvissRknND2uFlzI68PxBHm9liY8rOS1K2s4HaWKPfMlUIEv9Q3C6k8lK+dnGUXqj6SlKM43Qj6JbXH7qK33/APTSSnp4F0F0/wBKRHes5TlzFxj3KN/4S02P/VR7KTTfDmiWaNLf6p/5EqOWUjZ8q2JLlNNuEki0u8rjdem1uNJPsGqb3/5Z100/h0OeUXzanMTa94k+zSS+I9Umh21554h+Pb6PeNa2uqTP89duFwsK0m2ZznKnFSII/jxNsW68uZ3ep4f2hPEMkOIo3q55XFe8P66zf8GeIfFXj/8AdS6g6Vu6b8MdevL9orvUHmSuapGFG8Oo2pVbM6ez+Er2e2SW4krX/wCED0q3i82W4rz6kjow9Ll3Mf8AspDf+VayfLXVabZ/ZIfJ/jrHl900k/eNew0e8vH82WPy627PQXt082WTYlKNP3jNsxfE/jnTvD6NFayb3rj5/EnjDxZc+VHvSF60jGxLfKaGleD3t/8ASr+Srtzqq2/+i2Hzv9ytZMPskFtpWqyP9q1m82J/zzq5DeX/APx66Nb/APbSpj5mcpc2xe0lbPT5vtWsXHnTf886n1LWNe1SZYrWP7PbbP8AWVpGPKTIx7yG2s5v3W+aaoU0i81TdLqlz5Kf886Je8TL4SG5ubTT91ro0e//AKaVhX6Xlw/m3Um//pnHWZP2Qh0q/uE/ex7EqvNoPmf6qP8A4HTsyijc+Hnt5l8r53rSh0fVbjbFLHsSq+ImXumxon9m6Hc+br0abP8AnpJT9e+LX2fd/wAI5b/Zk/5+JI/m/wCA11xrRw9Hmj8RxShKrUucfqvxC/tB2ll3zP8A89JKyHR/Ej58zYqV57nKSu+p204x5eXoXbDwZYR/7b1o23h7y0/dHZShLUrkIpoXs3aL770abomuXjtLdP5MNdMTMsf6HZv9ltY/OepP+Fe6l4g/e3VxtT/nnU7SYMdbfDfTdO/5ab3qW88GW15Z+XLIiJTpxkLlRzOq/DexTd9l+d6qab8Pbzf5t/HsRK641DmnE5ZLwSTfvJKV7+H/AFR+esXGPLY0hHYjfzpOYo9lRTab9o/1lYSmdEYkD+HrS3T97HVObwBc3j/arXelYX3Nm/dLCXmt6Pti+0b0SrE3iO21RI4pLNP+mklTF2CXwmjZ+BtE8QIotbhN9U9S+Gmq6O/m/Jspzqc0iPZsz7nztLf/AFe9/wDnnXRfDrRPiL4816Hw54N0C8vLmb/V2tnG7NV08PLFVFTir32/zMp4hYeLlJ2S39Ox9U+A/wBi1/B+iR+KP2h/Hltolt9+Sxt9kkv/AAKX7qUar+1v+yv8D4bq1+HPw/TWLyH5LS+uPm3t/tSyf+yV9FHD4PIOVSXPV/8ASTxebG53dxfJS6f3jxXxP/wUp+N+oX9wfDmuW1rDNu/cWdn5jIv91a808Z/G/wCOXxInW78R+MNYut+793cap5a/98rWMpYrERtVle/yPQp4bB0JJ0o2dvU5V/Der3btdapqELu//PSN52/8ep0PhK2kTzbq4vP4vLj8tI60p0Y82q2CVSM/RFjTfA2kXj+Vfx3L/wDTOS4r0r9nv9lrw98aPiFa+Df7YhsIbn55J/vM+P4VX+9XRh8P7fEKmna73MMRWjh6Mqlr2V7eXY+zPhj/AME0/wBmy3hkOqeE/tk0L7JI9QuHZv8AeZflVKyfj9/wTo+EsngHUrrwR8N7PTb+zTzbG6s5H3cf3l/u19nU4ZpRwLkleVrnwlPiepLMFFu0bosfDf8A4JufBi38DWcXi34N2F/fvbL9uury8lW4dinzfdddleZftS/8EsvhF4b8JXnjf4X6pNo81miv/ZuoXHmW9yzf8so2b5kk/u/6yssRw9Rp5e5pWlFXv38jTD8RTnmip7xk7W7LufIvxC/ZA1Xw/q6+HPEen/ZrzYssaSbG3qf4q8z8Z/sl3ke6X+z4d+/dH5fy18jGpUpu0lZLc+yqUY1NnvseaeKv2fvEml7opdPvPv8A7v8AePXP21745+Hd1/xJtcvLN0dXkjk37eK6IyoVrxepyVKdanK+x6j4J/bi+Jfh+aP+3tLs7xE/189nHtl2/wCztr61+An/AAUm8O+TDfy+JYd/yxeRrm+Df/u3K7djf8Drow8amBqKdP4exzYinSxlJ33PprTv2q/hX8SJo7Dxlo8N4k0KtHPeXCR3SZ/553ke3f8A7O+tfVfgtDqmlTeI/hVqE2twwpvn0q4jRb+2X/dX5Zl/20+f/pnWuPweHzqm6uH0qLdHPluYYjJayo19actn2OGS8uf+WsexKZcvef62K3r4aSnF3mtdmffU5KpHm+aMu/t9VvP79ZFz4S1mT/WyO9Zx946LRZSm8B+KrxGitd8KVXsPh7rGhzN5V47u/wDrPMrb2vs46GfIy0/wl1XxJC32+3315d8afgNc6fbNLYaJ8/8A0zjrrweJ9nWimY4qP7u6PIH+HXjzT0bytL+T/ln+7qPRPDHjm41JbW/0d9n/AFzr6CpXwzi1c8KEcRUeqPf/AIOfDq8jhWWXfD/z0/d17Hpug22j2y/Zbfe//PSvlsRW9pVcj26WkStr14lnD5118n/TOuN1LW7nVHaK1+5XNzc0joi+Qu6D4emBWWWut0qz02z/AHspqpGV9bljU/iR4b8Pw+V5iVxfiH4p6l4hdrXS96J/z0pi/hy0DQfDcNx/pd/Jvf8A6aVuTarpWj23+gW+9qmSNIxKbz6rqCebcyeTD/00qXTZk3+VoNm803/LSShvsZyLj2cNmn2/xRefP/zwjqpNrd5qafZdGt/s1t/z0raK5Y6mcSBNS0rQ5P3Un2m5f/gVX7NNb1z97f3H2eGpiEpD7m/0rS0+y2Cec/8Az0rHv0vLzdLf3nyf886pGV2VIbO8k/dWvyQ/89JKkhhtrP8A1UnnP/z0/hpfCW3zEyOkj/vfn/6Z1as9HvNT/wCPWzfZS5Z1JKMOoSlGMby2NKHwP9ntvt91HGiJ/rPMqvrFzDGixaXH/wBtJK65RjShc44ylWkcf4qdI0x9o8x65q8hvLhK4JSub8jIIdESP97L92prN/LdorWiJrHQtJrcOn/8fdz9ynW3iTUtQuf3SeTD/wA9KfL7ocxqQ6xoNmnmzSI81OttSm1yZo/uJVWZP2S7ZvpWlv8Auo/OetWzvxLC0t1JsSriyZ/DYpXOt6bI/lWr/PWB4h1hNORpbrUPk/551puZnA3/AMe9K0O8aLy3env8cofEFn5VhJ89dKoSlFM53L3mjlY9sk3my3FaNjbPcf6qP5HriqSalY7qcdix/otvuilk3yf8846tWdnf6gn+r8lP+eklYyNpaF6z0Szjfq8z1qPZwxw/6V8nyf6us+5MvhK7+FYbz97Fb7ErO1bwTptvbNL9o3un/LOs2y/smFZ2GvafM11YR+TsrR0bxhe29z/xPpHm2f8ALOjlvIfMe3fs3/sr69+05rf2+Kz/ALK0G2f/AE7VZI/mfH8Mf+1XufxF+O3wB/Yv8NyfD74QaHbfbEh/0q+k+Zppf+mjf+yV9vgaUclyuOJmr1amkV2j3PkMVJ51mn1WDtTp/G/PsfCPxy/bA+IXxY1i8N1rFzNvf/lp/qk/3VrzF3v9UvP+JpqFxczP/rP3ny/8Brgo0ZKUqk9ZS38z26lSMIxpw2jt5G74f0p9Q1KGwsI7ma5mdUtbWzj3SzN/wGvpz4V/8E6/jx40sIdZ8eyab4SsJv8AVx6p+8uv+/Uf/s9ezl+V1cwl7qtY8jMc1p5bRvJ3k2erf8O+vgV4L0db/wCI3xg1h9kOySeOO3tIv/InmNVC2/Yq/Zv+ImiXFj8FvjhNealDt8v7ZJFcxJn+95KKyL/t17FTJsFF+x5veZ4dPPMwqQVdQ91HjniX9njUfhf4tt9G+Ksn2Ow+07f7Y0uRL633f3t0b7tv+w/z19QeAPhc9x4It7qXwf4e+Iumwov2XWPB+ofZNWs/9rb8vzL/AL9ceW4NQxEoNXcXsd+aY5SwsZp2Utb+fY73wT42v9PvYdB0b4mW2q3KfJHofjyN9L1aH/Zjn2fvf+BpJXqGg+Nn1TzNG8UaHc2Fztb9xebG+X/Zlj+WVa+1y/EOMVGUvd2Pgcww/NLnivesmUvEPxLs7T/QLDXLDTY9n/H1eR+Yz/8AXOBfv1xGt3PifxDeLf8Aw++Heq+JNST/AFHiDxh/oNhZ/wDTWOJtv/jiVOMxTxEeSOvS36hgcLDCy5p7vVvs+x8yfH74W2eneJ7i61T4mP4t8YXM2+e18P6fut7NT/CzLuZP9mof2Zvg78K/FFnr2u/F+zmmXR7n95PqHmrbw2+z5mZY3Vnk3/IqV8THBU/7SUKjvFXufoX1yt/ZXNSXLKyt1PWX/Yw/Zy+JGlNFoPgy5tvOh82OTT9YiaXn7u6BbuZk/wBzZXgPx1/4JTQ6hDdS+A9XttSRP9ZY6pZ/ZrhP95tiqn/A0jr0sZklGVNVKLsePg88rKp7LFI+HPjf+xD4k8F63dWFrHNYX9n8kljcfKyf5/hrwfW9N8VeA9R8rXtLdHT/AJb/AN//AHv79eLRqSjJp7nu1KMdJx2Oo8B/tFeOfA9tHYaXrl59jeb95H/rItpT5laJq+9f2Nv2z5o7PSdUi8SXjpZvH9q/efvbBj8v+88P/oFZ80sFiI1afV6mNWksbhZwl8vI+9td8DeHPj54EuPir4X09LbXtNTfrlrbx/LeRf8APddv/LT/ANDSvMk0q2dPKtbPf/00rl4my+NHGRqw+CornXwzmFTEYN0anxQdmI/hWzj/AHt/KiVSvL/w9p/7qwt/Oevl5R5D6qMpMz5rbUtUf/V+SlWLbStH0v8Aey/O9RGHc15yObxhptm7RWttWdfuniT/AJc0+elOV9ERGPvNyIofhv4euH/063Stew+FHgmTb9l0tN//AFzqb1OZq4ScY7Iuv4V0HQ0x+5RErntb8W2kc32XRo970a3aCK0OUvPCuseIJvNv5HRKvWHgy209F/d/co5eVkylzDdSv7DR0/0q4RK4zxJ48vLx2sNG3/8AXSnEvl/d3M3RPDGq65c+bfeY9ddZ+HtK0NFll+d6sFH3tSaAXmof6r9zDVmzubO3/wBF0yzkubn/AJ6VLY5SsW4fDz7ft/i3UPJhT/ljHJU8XiFJIfsPhLT/ACYf+e9Uo+z3M5GXq95o+lp5uqXn2m5/551mPHrGuIsksn2aGiUuaJnEXztH0fbFax+dNT9mt3n72/vPJh/551UTORZtobm4TytLt/k/5aT1btrCwsv+PqTzpv7lUiuUT+ypr+bF1JsT+COOnW3h6/vJltbW3f8A+LoSdTRESfIdr4V+C00aLf69+5T78nmVY8Q+LfDfhdGsPC9mkzon3/4a9qjTp4DDuU/iZ5jqSxlbkWxweseLbm8RvtNx/wBs/wCGsG51i5vP3UVeBWrSqTuepSpqnErvpXmJ5t1/HTUtIfmi8qoibFHUtLs7LddX9wn/AEzjrFh0TWNYuWl0u38mH/npJWiRMkRarZ6X4bDS38nnTVQtr/VdZT/RrbyUrW3umGpYs9ESzf7VdSb3/wCedaOmw394P3X7mGq5UZc/uljUtSt9DRYrWXfNVb+2NYvLb7VdSbEpxiTz3lY53XvH9tp7ta2HzTf89K4rW/E/iC4hkv7qR3T/AJZ10U6ZXtD55+KPiTx3b+I5vKkRLbfWBpvjbx5cXkdrpeobH/66V9dh8PReFTPFqVKirNH05Z77h/Kijd2rdtLN7eHzdQ1DYn/POOvg6p9HH3DR026tv+XCzTy/+eklalm9tvXzZPOf/nnXPU1NOY00heP975iQw/8APSlm1jRLfb9lj+0vUMLoz9V1u/kT/SrhbZP++ao2Gt6dIn2XS43vH/56U+XlQuY0bbwZ4h1z/Sr+4Sztv+eddJ8Lvhx4V8SeM9P8JWv+lTTTL5kn9xf4mrsy/D/WsdTpd5JGGMxH1XCTq9k2faf7SfjDTf2W/gDpvg3wHbpZveW2+Py/7tflN8b/AIha94x8RzRXV40yb28/958z19pnvvZw6f2aaUV8kfNcNr2eTKt9qq3J/ecjYP8AOvlfI/8AzzrX86S3RpftGxEeuK6PSlI/R7/gm58BPAHgv4LW/wAeP7LS817WIZJftVx/y7Kv3Vj3fc/2q958Va9eaekNhpfkvqV/fw6fBPJH8vmuu5mb/pmqfdSv0PL6ccHldPk3kr/+BH5pmVWWMzWfPtF2/wDAdynonw00HxhqV1a3/wC+ttKm8q+1K8jWS6vJdm75dyMsKr/sJXAX/wCy9omj+LZviX8L5LnR79Hb7DfSSfupmH3opF+6itXLi8vlWpxqw31t8jtweaexlKnP4bK/z6HNf2J4V0fx5J4yl8H6b/ausOqaxo2qaX9psL9h/FDKu5rdm/74rspvhR8BLi8bXovh34z+G+t/fkuvD9xLbW7/AO0rLuif/gfl1y4Knh5cylHXdeX+Z3Y6riISj7Nq2zWmvz6E03/CdapZto2jfHDQfGdtbP8A8g34geG9rP8A7K3MO5d3/AKi034kT+G4dQtfFGjzaJc2aKtxpsl55kUOflVreX5t8bfw1VevKm1Lmv5mNPD0qkeS3K/5d/xNfw34/wBV1iaOLQbPWLb5N8cmn6WkbP8A8Cmfd/45XVp8P7Pxoi/8J54c8Xa2m/8A49dQ1SXyuP8AZXyYq7sLzYj3OW6PPx0Y4T3o+7P7yv48vJvhfojaX4X8HaV4btrlNkMGn3FvHf3Lf3V+Rvm/4BJXgv7QMNh/wj3h/wAHeEtH1vTZLl2e6024t3aK8uH/AOW/myIrTMv8T/8AfFefm0rKdPl1skn2TeqPTyKMpShNyvzNt36uK09Dzy9/Z7+IWj6rN/wjkd5c3+m2DXt99jjaOWwUfxbm2t/7JXqfwH/aN+JdveaH4I+OdveXOk68mzw54mk/1sMv3f8AW/xr/ery8DPFYGsub4Xv99mexmVLB5hhb0/ijqvW11+BZ/a9+CHh7x/8O9U1S6t4bPVdBs5LiCeOP/nm/wC9gZl/5Zt99f7j1+cfxj+F2j+KdEaW6s977G/eeX8yVjmlONHGcy6pF5PU9vgXF/Zeh8qeJ/B7+E9YktfMeZd37v8Ad16L+zH4nm8GeNrfULWN3s7l1tL6PzP3Tq/97/drOVNV6TXkax/dy9T9u/8AgmJrF5qnhfS5ZTu/4luy6j/hdQ+1f++krmfi+b/wZ8TfEHgnQtP/AHNjqkkUb/7P3lro4ijfh/DVHvqvwPM4Xly59iqXz+5nKzabf3H73XtQ/wC2dJbXOj6f/wAesfzV8DbU/Qpy93lRVv8AWJbxvKtY6WHR7aRGl1S8/wC2dKcveJ+FGXqUOg2bt5Xz0W2vQ2/7q1jrOW5d7xNC21hJE+1ah8iJVDUvijZ27ta6NHvf/npSt710K3vamEJPEnii5b7VePsf/nnW9o/h6zs0XzfnenK0ZFbxNG5ms7OHzZZERK4Lxn8TLOORrDRo981Q7yLjHlVzkLPwl4t8WXn2u687Z/zzrok8B6b4ftvNutm+lzXHFbk8KanqH+i6Dp/yf36khtv7Lfyr+P7Tc/8ALOOnJSYc3NJmhD4emuE+3+I9QSztv+ef8VJ/wk9nbv8A2X4D0vd/z0upKqPuGcveK9/Npul/6V4j1X7TN/zwrH1LWNb1h1tdBj+zW3/j1LmD7RJZ2GlaX+9upPOuX/56U68sNVvNssv+jW1MzkN+32HnLYaDYedN/wA9K0raztrP97r1x5z/APPCOqfQOUnmubm4T91Gltbf886n0rQb/UH/ANAt9if895Krm5tH0Cfux0Ov8N+A3uXX93/10nkrp7zW/h78N7Nfsuy81L/nnHXsYGjToQder8keLjKlTESVOnt1PP8Axn8Ttb8UTN9qvPJh/wCWcEf3a4+51ib/AFX8H/PSvNxeKnWqcx6GGoLD01FFCa2+2TLLFUn2NLf/AFtwlccafMdXMVbnUvMk8qL7tVbnxPbRv9g0b99ctVFfZuQw6JDH/wATnxbeeY6/P5f8NU7nxtc6xM2l+HE2Qp/y0qo+4ZykXNE8GaVHD9v8RXG93/56U6b7NcTfYNBs0+f/AJaeXVRkYt/ZJJtBsNHh83VJPnrHvLzU9c3WGjx7EStEY1PdWgr+GLbS7ZbrVLje6Vy/ifxTcyf6LYJ8lVH4jOP8pl6b4YhuH/tTVPkjrP8AFVzYeT9ltR8lbxk5Sua8vLTPHvHnw0m8UXPm6XI9VvCv7PFzpdzHfyyP/fr3aWN5MPyHl1KTdXnPaUtk85vKOxKu21gn/Pu7/wDXSvk6h7LlzEm+w0+Fhf3ifN/yzjplt4kv53+y6Dp+z/pvJU8pcGSXNykcPm69rG9/+ecfzVLo9z4k1h2i0HR/JTf/AKySs5RLLl/4J0SN/t/i3xBvf/nh5lWNN17Tbf8A0Xwb4f8Auf8ALSSOp+JFcpP9g8T6g/m+KNY8mH+5HXXfBbxh4V8J+ObOXS/nmhmV5P3n8O+vXyP93mtKT/mTPLzmLqZbViuzR9R/t26ZN8VPhR4X+Jfhz/SbNYfsl15fzeSx+Zd1fmT8TvCF5pniK8/d7Ed/3fl/wV9fndFxzSo+js180eLw9VVTJ6cOsbp/ec1Zw/vVj+fd83lx/wAXH8NXLCa5+WWWTe2/Z+7jryuVHoyR9m/8E6P2ydH8H/8AFh/iZcQ22j3Lt/Zd1J8qwsf+WTf3FavtDxP4bubywW60u8d9jx3djfW+yRUlT7rf7fyfI399K+1yau8VlqpL4ofkfDZ1h/qmZ+0+zP8APqZ0PiTxJ4b1j/hKLCzhS51JF/tLQ5Ljba3jD/lvazt8qSN/cetjR/ij4SE02ly272H2l2+1aHrEfkSox+95e7/9ivQp4rlfJPbW3zPMqYOVaPtKe+l16dTas7nR7zT/AOy5ZLDWNNmTZHY3kaLKi/3V3ffWp7DSrbRLZYtB8STabCn/ADDdUjdov91d27/xx66oRoyjeP8Aw5x1JVl7nK+Xt2+ZT1Xw94Y1h/8AifeD7CZ/+Wd9o955cu7/AHflauT174daVeNINKk86GGHfB/aG9XhlH/PTbXn43C0K0UkreR6GX4qtRnZu6HeCL+8s/8ARb/x7cOiNsjtNHt/Lt0/2dtun/s9ejabcm9s1tf+EovLZP8Apnb/AL1/+BNuaujLJRVO17M58yp8tT3Y6eoth4Y0TQryTVPDng95ryb/AI+NV1SR93/Amk+f/vioLnStKuNVj8R6nZrr2qWqN9ln8vbb2f8AwJvlT/0OvQlRo8tktE737tvY4IV6kpfFbS3ourMbxDMn9g6x9l1Sz+06qmzXPE1x+7s7OLZt2xt/y2ZU+6n/AH3XnOpeBvBPji/8Oy/2M9n4Y8JWbRaP9sj23F/Kf+W7L8uxf7v8b15WMp05SUUt9/vuz2cFVq071E/L52svwMr9qXxzong/4b6xYapJC+seJLOS3sdNkuEVkt3+9PIv93+7XwX4qs4ZLP7L5f8AD/y0k/8AQa+UziUKmMsuiR9jkNP2eBbf2nofL/x78Gf6f9qtbP7ifvKvfsc/B/xh8YPH9n8PvCWnzTTXmpRv+7j+VIk+9Ky/7NPC03UqRiuqKxlSNHmqPof0E/shfASH4P8Aw9t7WW3/AHyWypJJ9Er5u/aQ8R3Mnx18XeVHtRNYkTzPpXq8X4f2OU0YLZNfkfO8G4j22dVqz6p/izzW61iSV/3t5/5Epqa3bW/+qj31+XTl7x+o293mEm1h5P8AVVXmv7y4T+4lTb3h/FEr/ZHuH+/VHWPE+j+E0xdSI7v/AMs6mSNIR90wv+Ezv/EE3735IX/5Z1fsIbCL979yml7OOpnKXtJaG7pOpQxwt5X3Kp638RbDS0b9589YNOUjppw904rWPFXi3xheLa2ErpDW/wCG/BOleH4f7U1mT5/+mlOpLkGvelzdDb/4Sea5tlsPDln9/wCTzK0LPw3plun2/wAUahvf/nhSpxuTJ2uTzX/7nyrCNLO3/wCekny1gal4ns7N/svhfSvtl4//AC8VpGRNuWLZRv7B/Ja/8Zax/wBsKrQ6leaoi2Hhez8lP+elRJ3Jl7pd/wCEY0jw/Z/2p4juPOm/6aVFZ3M3iCb/AIk1n5MKf8tJKfKjP7RYd9H0OZZZY/tNz/zz+9Tru2v9cRbrWZUtof8AnhH9+qsEjR0Tw2lxbY0aNLZE/wBZPJVzTfDdtJef8Su3e8m/571cuhnzGnD4VsLO583X33v/AMs4P4a6XRNe8E+H4ZL/AF6Te6f6iCOurB+zjWU59Dhxcqs4+4cv4q+KOpa5NJFpQ+x2f/LOOP73/fVcRqWqvb3n+s/dvU4rFe2k2vkjahh3Tikt+pnTXn2ibPm1K8MMcH+trilJyTR2Qjdpso3l/wDZ0/dRv89ZupXkNmn2rWbjZ/0z/v0otxK5TMudN8SeNIVi0uP7HZ7/APWf31q5NeeG/h3bLaxbJrx/+BM9a2RHmZ9npHifxxctf6pI8Nt/yzjrYSHSvC6fZLCy85/+mdKXvGU2TQaPquuFbrVJPJhpb3WNN0BPK0v55qqMTKX8xUSw1LxLN5t/JsSl1LxPo/hNPKj2J8laRMr8sdThtS8bal4ov2j0uPem+oNSvNK8N2zfajvmraO40vtHOar4wv7zdDF/ueX/AA1nJbalqk3lXVv/ANdK2jaMbkzvLQ6fw94Vh+X/AEfZWy9hbW8n2Xy98j0oy5mZPflMZ9V0rT0/0WP7TNVbfrGqbpftH2aFK4JR947IyIPs1hG/+i2815N/y0q7Y+Gtb1T97f3CWcP/AHzUylcuGho2f/CH+G3/AHUb39zWzpSfEvx5eLo3hfQ5ofM+SOO3j+anRw9bFVlCG7/AVbEUcPR557I9L8H/ALCvxT1RFl1SOwhf/qIahub/AL5j3Vp+MP2KPj34X0pr/wAN6h4bmRE/1cdxLHs/76Svr4cF46VH2snrY+Vq8ZYGOIVOOx47rHwT+Lv2rzfGWqQw23nbZJLO8SRd3935alsPD3h7wm6xaNcedf8A/LT/AGFrxlhcVg8dCMlbU9z65hcfl85QZ9Bfs6/tPw+G9NuPBvjezh1Lw9fp5WpWMnzdf4v9iq/x1/ZC0T4gaVN43+EuqTa3pWzf/ofzXlmv3ts0X8a/9NUr7+tRjmGFTfxpfgfE5fjJZbjHGXwSf3M+P/G3wW1LwvM0sulzIibngn8v/P3a4/8A4R68t5vK++n33jj/AL3+zXyc4zpScHufZPlqK6+8RLl7fbdSyPH8/wDrP9r/AHa92/Z3/b5+N/wLhh0vS9YTW9HhRfM0fWN7Ki/d/dsvzJ/uVthMZWwddVYHPi8HRx1B06kT7B+F37ef7Mfxoh/srxRI/hXVbn5JLXVNjWrt/vfMv/fdeov4GtvFGlRyeF9Ys9V0378cdncRXNun+7FJu2f8AeOvtKGKwuZU7wdpHwtbB4zKa3LUV49zj9W+D9tb3LSxXmpaJMj/AOss9Qltov8Av1J5kX/j9WbPw38V47NYvDnxEunRH/dx/Y0k3r/tNC+2s/qtek/3TOj67hqlvaq5Pc6r8WvD9m0us6Zpt/5Kfu/vwNN/sbtiruqzYeOftHgmTzdPmjubybyvst5In+jKP7zN8v8Au1jOpiKcmp9io0cPUgpwezX5mr4e1jXks/KivEfY6p+7ki+9/wBs91bT694h0t7WK6kvP9K3eXHHHdydPm+ZliVU/wC+678PKrCnFM4MRTpyq+6r7le5+IWj2Y+1azqltD/18XETP/49LM3/AI5WdrPxattcRrDwvZ3OtzW239xb6e93sz/108uJP++K6J4xRjyfa7f8Eyp4Hman9nv/AMAyvEPiG28L20eqfFDxTpWj/wAdrJrmoLc3Sf3VhiVNibf9hI68e8bftyaVpD3Fh8K9Duby/Xcn9ueJLfayN/E0MC/L/wADevGx2YRwsd7yPcy/LPrXS0UeB+KPFWpeNNeuNU8UahNc38372SS4vNzP/u7q8/8AH/jBNDjkiv40RNv7uSSRP87a+bpwlVqX3Z9W1CnBRjol1Mr4af8ABPf49/tqa9Z3Xw+8LzaP4ekm/wBO8R6xbvHa7f8Ap3/iuG/2Er9Zf2DP+CbPwi/Y78Hx2ug2X2nVZkX+0tcvI0+0XLD/ANAj/upX3GS5Z7H9/U36HwHEmcRqv6rSe+7PpO8dI7P7Lax+XCiV8C/tG/EvwNZ/FfxZ4Xl0t5r+HWJopJP9qs+KsRRo4Fe16v8ARnPwlQr4jMJRpPp+qPH7aze8dpT/ANs60rPRP+eVfjPxVGftfLyU4omm017dP3VvvrPm+2dLr5KfvdRwjHY4r4l/Fr/hD9HuPK++iNXhlt8b5tcvJLq6+f566sNR9pFyfQwxFT2doxOv8H/EizkmbzZa6zSvGyaxNiLfs3/6ysKtN3ZeHjzWY3XvijNb/wDEr0uN/wC7TvD+g3niB4b/AFST79SoKmro2cuZ2Oiv9e0rw3ttdLt/OmplmmreIJlv9euHSFP+WdY8vuhJnQ6VMl4q2GjR+Sif8t6k1jW9E8Pp+6vPt95/31UxCWiucjcvr3iS/W61nU3trb/nnV1/Fr6f/oHhzT98n/PSqJj8LZWttNm1C5/tTxHcb61v+EztrOwWw8OaX501LuYyIZ7NLlF1TxbqG9/+eFWkudS1iHytPj+x239+jlsO/Ys6VZ2dn/oujR+dN/y0nkq7FDDZ7pbqN7+8/wCWcEdW/ekoj/vM6Tw34P17XLBdU8ZbLC2/59Y/7tS6r430Tw+n9l+F49iJ/wAt66Ix9nqzhlL2hyupeKtVvO2yTf8A6yqT6lbSI3myb3rGcjWMNTP1KZ5EaLzKr+S8hXEdYykbxiK1tDH2qO5s2jTzZZNkKfP+8rOJcomTealNqjrYeHLN3d/+W8n3ak/4RKwsE/tTxdeb3T/lnWkV7xLMebxtrfiiZtB8Eae6Qp8kk9XPD3w4sNDm/trxReeddf8ATStJSuYNmzNNqviD/RdG0/ZCn/LSlm/sTwvD5t1++m2UdjPn94yby/1vxI/+i+ZDC/8Aq6ks/DFhpcPm38m9/wDppVX5djPm5tznvFvxF/s+2a10tN7/APLOuOutN1jxJ/p+vXGxP+edbR92PMEVKe4r6xZ6HbfZdLj/AO2lc9fzPeM0t19+R60plSfu2LOj+Hru4uY5Yo/krttN8PQ2aLLJHVS1MLotyWbyf6r5ErM8Q+LfDngu2aW6k3v/AOh06ceaRHLb3jlobaWSb7Lpdn/20rWttH03R4luvEeqb9//ACz8yuKUveOyMS1a+JJv+PXwb4fT/rvJHUc2iXNx/pXi3XNn/TCOpjHmZeyOx8E+EtHuEhv/AC/Jhdd8f7v5nX+9/u16/wCALDUreaG1lj+z233/ALLHHt3/AO9X33D+XrDQVWS1l+B8Jn2Ye2m6UXoj6H8Ga9puj6bH5skKfJ/q/wC5WH8af2kPDHg/w9cWv2iF7mZNkcdfoNXFKjg3zPWx8DRwsq+KXKtLnyRqvxIS81j/AFiSed9/+/Wz4YOj+ILa80GWOFPtMLSwT+Wi75R/A22vhqjjKopSVmfaU+anScb9Dx3xPf3+h38kunyOnzsldf8ABb9q7xP8L9Yj1n7H9shRNkkH2yWBv96No/mRlrqo1nRlGf8AVjOpTjVp2l1X3M9ruf2ov2Y/joi2HxL8JvDNefLJfW8iQXW7/aaP5Zv+Bpvrmde/Yj+F/jS3a6+EPxY01/8An1tdQ/0aVP8Ae+fynrTFUMHmV2vdkbYHMMZlseSp70TzDx/+xV8afB8P+n+AtSubNU3yalZx+fsUf3Wj+/XnWpfDTW9LmaKXTneZE/5aR7Wr5zE5ficPbm2PqMLmGFxkeaEjEm0rVdLfzbqzm2ed+8/d10HhLx541+G+oLr3hfxxqWjzXL7PMt7h1Xd/u79u6uaMq1GV07M6pQp1o8s9fI9i8H/t+ftUeF7aOG1+KH9qwo2z/icWcU//AAHdXfeHv+Cg/wARdYdf7e+B/hvVX37J5LPfaMmP4ty169HOsQn+9978Dx62R4N39l7n4nXeG/8Agoj4At3a11Twv4q0R9/7ySz1RL232n+LbN823/Yr0m5/aK+D/wDwhlv430HxhbPDNcs88ml6X9puIW/h/dN/qf8AgdevRzihVjzNctkvM8atkeIpyST5k36dDj9S/bn+G8af6V4x+JFyjbov9Ht7WBf/AB1/krjtV/bb+D+oal5UXwj8Var5b/u5NY8SJ5T/APAV3Vz1M4pS+P3vwOmjkdaDvF8m/mYk37bGt6fctL4E+B/hjR4d/wC7muI3u5Ux/wBdH21zfi39qX9obxBC0XiL4qXlhbTO3lwaX/o0X+z8sNebWzSvUjyUlyx7b/iepTymjTanUfNLvt+ByUN/NeJHqktvc6rNc/PJH5m5n/2l/wBqux8K/s3/ABv+JkXm+CPhvraJM6vG95ZvbKn/AAJvlqcLluKxlS8Ltl4nMMHg6ac2lFHrngT/AIJZfFTxY8cvxL8YWGmw7NnkWcf2m4/4C33Ur6D+DP8AwS//AGbPhc66pqng+HWLzer/AGrxJsuVRh/dib5Ur7jK8jjhVerufBZtxPWxCdKh8L6n0do+leG/D8KxaXp6M8abI3/hT/dWtJLme4T97Xv8qj6dD5OXM7t9eol4mYG/3K/Nb9oTTbeT9pPxxfyyJ8/iGavhOOuaWXUmusv0Z994e2/tOo/7v6oxX1LRNLT/AEq8REqtefFHwro9s0v9oQps/wCeklfmHs+W5+rVKl2c3on7QNz4guZhYWaPbI+zzK4/x/8AtA2Gl3kkV/qEML/88/MrKVOpUl7NHXBQ9nzHifxv+LWj+JNKb7Lqnz/c/d14npviHXtPvPNilTZ/00r6PLcP7Gi4z6nk4z3qicT2DwBa+JNcto7qLQ97/wDTOSvU9N1K50O2j0aXT3Sab/npHXmYqUY1Wj0KUeWkmdLongy2s7Zte13Zs+/Vn+1bzWH+weF43SFP+W9cOvxMb91cpo6bpum6G/8ApUn2m8etK9ms7dFv/FF4iJ/yzgjkqb+6THUy7nxJrHiS5bS9Bt/s1t/z0p8NnonhOL/SpftN5/zz/iqZEx953H2ej6x4sb7Vdf6NDH/q46ualqWlaPCtraojzJ/yzjqRSvuVU0fVdc23WqXHk2336s22pWcCNpfhfT97/wDLSeT7qVNPW5EiKazs9PmWW6uHvLx/+Wf8KVchTUrz97r1x9mhT/lhHVVJWLhE3NCsNV8SP9g0G3+zW3/LSeuktr/wt8O4fKtf9Mv/APnpJ81XR1k5MwxEvso53WPiR4h1x2F1G+x/9XWNf3MMaebdSVdWpf3TGnTK95eTSIv7zYj1RRJo7nyokeufmOmO5M95Db/vZZPuUW1zNqj+bax7ET/lpUyRrFiXniHTdMm+yxb7y5f/AFccfzVNbeGNV1yZb/xReeTbff8AIojEUpEt/wCJPDenr9g8OW/76sO28Dazrd7/AGp4jvHWHf8A6uqi/eM5GrDf2Glw/wBl+GNL3yf89PLq3D4eto7ZdU8UXn+15daRjc55FLWPGb7/AOzPC9vtR/8AlpVGw8N3MkzX+sy/frTsYfaE1jxVovhe2aGGVHdP+WdcTrHi3WPFE37q3eGGmo8u5SjzbGPeX+j6On+s86bfWJf6xf6i/wDrP3f/ADzq173vdDaUktiGz027k/5Zu9a1n4VS9mj83/tpHVc1jnk/esdronhhLdF/d0+80ezjb7Vd6j8if8s/MqosjlRy/iTx+d7aL4cs/Of7n7v+CuWbRIbyb7fr376b/nnJ/BXVCPLG45v7JoW1z4k1xPKtbdLCH/npJ97bVmHSvC2lu0t/ePeTJ/z0ry+/KdO/xE0Ot69qEP2Xw5p/+x5nl1NpvgyaPUre/wDGV49zvffHY/wvj+9/s13ZbTVbGRh3ZhjqvsMHKb6I9k+HvjOHwnqS69Fo9teX/wDy4/aI90UMv8MrRfdfb/Cn3K7rw9eareTTa9rN5NNNM++4muJNzO399mr9SwP7y0Oi1Py3GxtefV6HPfEv4zTaXA1ha6okP/TSSTb/AOO/er588YfE/wAPXGpNLf63eXlxM/8Ay72byf8As9ePmnEeDp4h0N7bs9rKcgxlSiqm1yGGb5I9UtLh9j/8s7iN93/fLfMlWrbx5c6XNHfxSOjwv+8jrCFajjaSq09tjSrh6mDm4VPUx9Y1X+3Ekuv9tqy7C2SOFvNH3HauiPw2MfM5p7m8t7lvssjpvrb0H4neM/Dcy/YNcmT/AJ51izZL3T07wN+298XfB80f2XXJtif6z94616rpv/BQKPxAn2Xx54L0fVU/6iGnxSN/31s3V1UcdOMfZyWhxywMZS54OzN6z+OX7JfiyFote+EdnbPM++T+z7yWD5v7336tJ4D/AGKvGFmsUt54ks085pf+QhFP83/Ak+7XSoZbivijYn63mmE+1zFT/hjn9mPxBctJYfHHUoYZkVJ7W80+3ZX/ALv3duyrqfsH+AJLaT+xv2hLNXkf93J/Y/8AD/tfO1THIsLV+Cp+Bs+JsZS/iUfxET/gnvo92jWsXxs0HyXhaKSOPR3+fP8AvbquaD/wT6m0/wD0CX46aV5OzyoJLfQ3Vki/hi+//wCh1pHhyO3OT/rbJX/c/iaum/8ABNPwrbosX/C9XRN++Ty9DT/x1meun0T/AIJ3fCvyVi1n4ualf/Jskkj0uKNtv/fbV2U+F6P8xw1uMK8vhp2+Z0Oj/wDBPr9nKzdf7U1nxDqX+xJqCRr/AN8xpXbeG/2Qv2V9ATyrX4X2dz/z0k1C4ln3/wDfT16VDI8voy+A8nFcS5pW+GVj0Hwr4J+G/hOFbXwl4H0qwRP+fPT4o/8A0FK6q2vIti/6Pv8A+ulexTpxox91Hg1MRWrT5ps0YdSuT/qtif8AXOOrMO+4fzZZN9UZxNG2QbOavw/coKC8BkTyq/Mr46olv8WvF3iiW4R3vPEN08Cf3Pn218Rxp72DpLz/AEZ95wH7uNqy/ur80eH/ABUv9Qt9BmutZ1SSGZ3/AHFfI/xO8c+NrzU2tZdUmSFH/wCelfH5ZQo1JXmj7jG1qkI2ubXhjxx4k07wktrpesTf9NPLrB16O7vN1/FcTXM3/LT95u31rGnSjWbtuz1IynLCRa6IxIZn1DUvsEsb79m/y5KsXmiJJ5f7/Y9dVaKjKyMcPKVSn7+57B+z2niSz8zS7CebfMn7iT+5XSp4n+LXgPxDHF43s4b+Hd+7kk/jSvmsRCjUxMoyPUqe2p0Y8h21zf3/AMSPJuoX+zWcPzyQV0+larDZ2f8AZejW/wDB+8nrg7x7Ff3xU1Wztpli0uLzrl/9ZJVlPCKagn9s+KNUT/pnHJWZPKJC+pXjtYaFb/Zrb/np5fzVoWGiaDof/Ew1iTfNUyfYPiYv2zWPEj/ZdGt/Jtf+Wkn3ab9j0fw1/otrbyXl4/8AwKknYm9x1zpWvXm2/wDEcm2H/lnax1pWmg6lqFssVrH9mh/56fxVMmoj3NDSvByfaY4tBs3uZv8AlpPXSf8ACAabokX9qeKJEmm/551NODk7sVSpGEeVFC/1uaRGsNLj+xps/wBXHHWBf2z5b7VLsetXI54xcii73McLfu/3Kf8ALSsq8ea4/dWsf/bSseb3TXlZXeZ4nX7VeJ8nyVXtvEVze3jWFhHvdKqJZfNhbaf/AKVr0kb/APTOOk8jUvFCeVYSfY7NH/3flqQl8KRG3iHwl4D3RWFu9/f/APTP+9Udhb+NvHl59q1CR7a2/wCef8NaEN2kdFbaH4Y8Np5ttH9quamTStV8QfvdUk+zW3/POiMTCc7ivrGh6PatYaDp6Oyf8tKwbmHW9dufNv5Pk/551oZSLJk0Tw3D5ssiVx3iH4hPqlzJa2Eb/wDXSruhKLtocteQxRytdazeb3/55+Zuqhf+JLnyWitfkSlzHRFchjRveag7eVb/AH/+WldDong+GBPtN19//nnVGMviNyw8PTXEyxRR7FrpNN8MWenosssdBl/y8uQeJ/HOieG7bypbhEb/AJZx/wAVedarbeLfHFyt1FJ9jsN//Anrooxv7zHLqdDo/hKHR7Nv7Lt/4P3k8lYuvarZ6fM0X2fzpv8ApnWsZSlIxl7upBbaV4u1yb+CFK3dH+Hum2brLf8Azv8A9NK8qpK1+U9OnDm+I2Jtb8K+G080XsPmfc8uOqNzqVtJMus3Xyb0by4/9mvc4cpuWIlUfRHi8RVeXDxprq9TvPg/oj+IJl1m6j2R/wDstZn7QP7Q9/4b1Jvhf8L9Le8v4dqaldRx/urZ/wC7u/56f3v7lfZ5hjP7Nydz6y0R8dl+BlmGcRh0jqzyFPB/iTxJN9p8b+IHRH+eSO3/APZqlub/AMJeB0W10uzSZ/ufu49zV+Q1KlSrUa3u9Wfq0YwoxXS3QqXmt+KtdtvK+xrDbP8A8s5P7tZafaR51h5m90fZ/v8A91q+v4ZquKnR6bo+X4io80Y1fkGm3Lx3kkUv3Jtv/fVamm2ybZP3n8dfWx+Kx8zb93c5a/tvLuZIvM/5bNUXkpWEjSK90mS28t1q/Zo+/mSkn9w5RXXc6GwR/l/eV1mgu8e2WORq1pNdHcxmlHodzolzNIixfaK63Rrm8/1X2h9n/XSvaw8n3PKxEYnV6DeX42/6Q9dv4emud6/6Q9etR5ux4tanGNzqra8mG3yrh66LRJpv+elehHQ82ajL4kdHpu+t2wT3rqjzKOrOWWvxI2LNPStayT5+KObTUzXM9GadslalmlBUTTh61ah+5QUVtb1JNL0ya/l+5bQtLJ/uom6vzZvNN03xR9o1mX99Nc3kkskkn+2+6vz/AI4qezp0Y/4vyR+icB0XP28v8P5s8q+J3wHvNQuZrmXWXdX+5HJ/B/u18/eP/wBlfxfrFx5WjRo6b/3klfD4LMPYzvI/QK2V+2p2vqcnpXwQ+Jfgt5NB1nwu81tM/wDr4/vJSX/wK8T20DS6XJMn/XSuipmFFVrrqd2FwtSFFQfQ57Vfgt421B18qP8AfRv+7kjkrs/BPwN8W67pX2XxHoeyZP8Al6kkq6mZYeMLPcVPBy9trse0fBn4aeDPhfbNLqniVLm82f6iOTdUXxa8K+IfFE1vdWtn+53/AOs/uLXge2lUxXtXsd9any4fkRt/D34evpemtLdXkn2ZE/eSSfx0/W9K1jVH+y6MHtrBP/H6mdRKo33OeEZezig0q8sNDeO2sLd5rqtweGL+8T+2fEeoImz544KykO7D/hJ7rf8AYNGs03/89Kmh0P7PKt/4jvPOf78cFFvZ7mfxM2E0Hxhqlt5trZ/Y7NP+AtWl4bsEt90Wl6P503/PeSomOETRudKSz/e6zcedcf8ALOCOrNh4V1LUEW61m4+x23/POpjFzKqSUIG1YeIbO0tvsvhfT96J/wAt65/W7a/1Gb7ddah8/wDzz8ytKlVRpciOJRlKV2VJry5L/wCg26f9dJKhubfzLxZbqPe+z/lnXHKbOuMeUp3OgalP+9uvkT/nnVS80qHasVhHvf8A55x1V/dNOU5/VNBs7K5X+1JP4/8Aj1j/AI/96pNPsNYkufKsNLS2tqqMjOegl5/Ztg7fb5/tM3/LOP8AuVXjTXtY22sUeyHf/urWhnL4kWrLTdE0N2llCTTVv2dtrWsWP73ZYW1aGFSXvEsWpeF/D9n5WlxveTf8tJ6y7y51jxBef8fjpDWkWY7k1tpWl6ejf6R5j/8ALTzKwdc8eabbzNpdh881BTRxmtwzXE32/wASapsh/wCWcFc1qXi2GPdFpf7lP+elBpGPs46nP3mpJJuljuHd6dYbrhFl+2b/AJ/9XVcopSudh4YhT5ZrW22f89JK6jStEutUdYvL+T/npVHPL4jee30rw5bfvZE31xPif4kTPM1hoP8ApDv/AMtP4UoK8znbDQZtQvGv9U33N47/ALv+LZXTQ6Iml2H2/Xrz/rnHXRzc3uomPU5/UvEPiTxJ5ml+HZEhhT/lpJJtqlYaPc6PI2qeKLyN0df3ccf8dbRlyxMZe9K50d58SPBnh+2aK71BHmT/AJYx/erjtV+JHirxg7Wug2cltbf89JPvV48Y2XvbnqSqe9aJUs/sOn6lH/al751y/wDz0k3NW3f63/wkFxpfhew++kKxSfi+5mr6zh2LdOUn3PmM/lzSjc+ird7P4X/CiTXpZER0hVLfzPu+afu//F184X/xIj0uSSLQdDe8uXmZ5JP77H+Jm/vVPG1XmxNLDL4Yxv8ANsOEacadGrif5pW/Ay4b/wAVeIH+1azb/Zk/551o2dzolnD5UWn/AGm5/wCekn3a+O5V8MT63m0vIs2yajfv5t/Z70/55x/KtT3OleEpNSjlu7iaF9jJ/ocaNXbluL+o4uMvvOHH4b65hZQl8jhvFqJZeIbz7BI7wo6+RJJH5e9f722tzw3OlxprS/xb6/Q8PVhWtKPVHw9anUp+4+hh63bf6fJ8/wDy2qFIvugR0p/EEX7pKkL1f02H5+KV2B0Gmp8/Eddbo8L7FrekjOp8J1OlP5briuy0R/Mda9bD9jy6/wAJ12jony12GiXP3Yov7texR6Hi1jq9ET7tdTo6eZXo0zy6p0empW7YL2xW8TlmbVgnvWtZo9UZmpZJ8/Falr1oKiXoKsI9BRwP7Tni2Hwf8EPE2sy3GzZo8kUcn+1J+7/9nr87ofH6Rw/YNBs/OdE2eZ/DxX5fx5L2mMpRfRX/ABP1rw8p/wCw1pf3kvuVx/2LxH4jT7Vql4sKf+O1Q1XxD4S8Ho0UuofaZv8AnnH81fnk5e9Y/Qqb944jxD4/m1R2+waf5Kf89JI91ZP/AAh+q65/pV1rGyN0/wCWcdRJez03Z0Rqc+5UuvhRo9n+9uvED1VufBk3kyRafql5s/5Z+ZJtqo1JfaKk4lPRPCVz4fvPt8txD/383V2+g3La2/lf2fNMiN/y0+VaqRF0amq69Z2bra38m/Z/q7WOqqP4z8WXPlRWf2Oz/wCelTy9ZGTqe9aJeuZ/Dfgy2WKWOF7n/vpqoveal4kmWW/uEtof+eclEY81jOUruxPDKkl41h4Xs0+T/WTyfdqKbxDpHhi/+1XUj39/v/1cfzUTuZyN6y8W+OfEiR3fiO5TT7BP9XB/E9d14J1HW9ch+weHNH8mH7kl1JSUZSnZbsJS9nHnfY6dIfAfgeFrrVLlL+/f/wBCriNb8T3OoX811LIvk/8ALOD+5XTUVOjT5UcqlUr1OZlG215PJk+yxvsf/vndWZC+q6jM3lSbE/56Sf8AsteRKUuY7IRN2z025uEWK6k2JVi5v9H0dPKtd91cv/yzj+ZqqMdzRmdqr38afavFF4lnD/z6x/ef/eqCS41jxJA1h4S0f7NbJ/rL6T+OrjuDGp4V8N+FEW/1S4+33n/PP/aqnqtt4k8WTeVpdv8AZYdv+rjqo6Ssc8+pVTwfpuj/AL3VJPOf/nnUtn4b8Q+IE/0D/Q4d9VHqZTkUdVTRPDUzWsX+mXKf987qozJ4q1yHzZbmRId/+r/hrTqZSIv+Eh0Twnb/AOlSedNWTefE+a83TaXp7/8AXST5Vq27hynFeJPjDbaOjReI/EkKJu/5ZyfNWJ/wvvwNIn/FOXEPnf8APSST5quNCpUNJezpysZlz4//AOEkmk8283r/AM9P4awvE/ipLOzbyvn2f6ytKcHpEmck7nO6D4q17XLxrXS7T+P935det+A/BP2NFutZvPtM3/POP7qVpXSpvlRzRftNz0fw34YuZH82WPZD/wA9KueIfHnh7wnE0VrJvf8A6Z1jGQ4x948/1XWNb8WS/atUuHhhd/8AV1d0Tww8kLfZbfYm/wC/VR90cveLMvifRPDcLWGl7Lm8/wCWn+xXNw3upeOLyS1luJnfZ/rPuqlax92NyH8I108PeF/9A0+4S8vP+eccm7/vqofJ1i8v1v7+8R/+mf8Acq4ycbsz5dOVHDX+q+CfC6NLdXiTXP8Azz+8z1U/4Sf4l+MP9B8JaOmm27/8vVxH81efKLjLnkd0dVaO5qWHguHw3YSazqmoTXl5s/19xJ610/7PFo/ij4qR/wByFK+w4Zkq1Pl/vHyvEXuS/wC3T2/9smGGPwx4f8OS3nkwveTXEkf9/YiRrXhv9pQ6fCsWg6Wjv/z0kry+Kf3meVF0VvuSPQ4W5YZNTb63fzuLbQ+IdYRrm/j+T/vlaZNquiaXxFvvJv8Annb185y+9yxPoubXmkWrC58Q6pbebfz/AGa2/wCWccfy7KzX8VeGtHufsGl281/eP/yzj+ZKbj735l83u6/Ij8VaDqslhHrN/Z+S7/8APP8Au1V8Hu9vNJFLI+x6+6yapGWHi10R8XnFOVPEO3Ud4nTy9Vb9399Vqoife/d16017x5UfhJIUffWjZw+lTylG9YQv5y4rsNHQ/LW1Ezq/CdFZoftKg113hj94616mH+Ox5df4TsdKT/nl/A9dLoLv5y+V/fr2KR4tY7XSn+7XU6O/yV6NM8uqdFpT/dJresJPat4nLM2rB/etezeqMzVtetX7Z6Col2F/Sp0figo+eP8AgoZraXHw3034ffaNn9saqrz/APXKFN3/AKG9fIV5N4V8Lw/utjzf88/79fjfG1d1M4cV0SX4H7VwNQ9nkkZfzSb/AEMLWNY8SeKNsVr/AKHbf981kX+ieGNDTzdUuPOmf/nnXxcn0PtuWzMa5mmvNsWjaX5Kb65zxbrGq6G62p1jY/8Azwt/matKUX7S27MZ1LbHPP4k8TyWzSxecnz/APLT5merdnea9cJ5t/eOldUox+0ZRqSZuaVOlunmGDe+z/Wferfs9Sv7yzWX+0IbOH/nnHH81c8jX2g+HW/DelzKYrhZrn/lpJJHuq3NrHiTxQ/lWsn2a2/5aSUcr57yM5VOkSjf/wBi6fcLFa/6Zc/99Ut/4Y1W4t/7U1i4SFET/V/xVUvckiY6qxmaV4k8Z65M2jeDbNEh+550kfzV0Gg+GtN8Lwt9qs/tmqzf5+aplIqJ1+j6PZ26R694tuN//PCCOtz/AITDUrez8rRrj7NC/wD31WsYSo2k92c1SXtp2Xw3OevNY+2X/lRSec8f+s8v5qkf7NcM3m+Y+xP+AVzSkpas1jFxukNhsEkdfKR0T/ppVm61LRPD/ly38n75/wDVx/eauaVuY6qY65vLnULD7dql5/ZVm/8A39emaJ4khuEXRvh9o/yf8tL6T7z04dQkakPgzSbO5/t7xbqj3lwn+rg/hSn3l/r2sTLYaDHsR/8AlnHHVRXvGMpE9t4FsNLm+3+I7j5/+efmUQ395rDtYaDZ7Ej+TfVNaWMefcz7vRNB8L/6frN59sm3/wCr/hSsl9e8Q+K5msNLt/Jtk/j/AIap6ELUdc6P4Y8Pw/atUkSab/lp5lct4h8bXmof8SvR9P2p/wA9I6Paalxjcwv+EedN13r2xP4/LriPip4z0eOwk0uKTybZU/5Z/LXRTjzCsj5P+M1/c+IHW1sLh3tkk/1kcm1nqb4P/By/1R1llt7+2T78klx/HXtSqU6OFt1POl+8rHqM3hLUtPvIbCwvESzT/WR/elmroLP4V6r4kl+138b21m//ACz/AInrynVSszq9m9Ts/CXwfs9LTyrW3/65xx/wf71eg6J4P0TwXYrf69ef7EcdYylJy5mTGPYo+KvHl5eTNo2g+XCn3fMjrmLywS3mhtYrN7m5d/3kkn8FOKHLRm/baDZ6fbLqmvXCQp/zwrK8SeOby/3aX4ct1hh+55/8VaR94iXumHongq28mbVPFGseSj/P/d31U1W8udk1roO+2hT5PM/ida1j71S/Qh/CRaJ4em0+GTVPufJv8ySsjWPHOpSTSaNpf9z95P5f/oNbxSlWb6EKXs1dnOW3g/wx4Ldpbr99c/8APST5mertn4n8Q6g/2XRrPyUj/wCWkleXye2ftJ7HoX5dIbljV7B7fQbq61nXPOufJ3wQV0f7Cuqx3nxRm83Z91a+y4U0nb+8vyPk+JI8tO/91nvf7Yeg3moP4d1SLydkL3UUkkn8GXRlrxea50fR5v8AQNP/ALSvv+WkknyqleTxTCVPPKvZ2/I7eF5xeT0/Vr8Slr13qusL5WqXiW0Oz/Vx/KtULO8tNPdYtG097yb7nmfw1862on0nxSNWw8N3+oW32/xPqiQp/BB92tDSrCGNlHhfQ97on+vkj+Wsd3dHTGPLoy7r3hLVbjRJLrVNQe5mRP8AVx/dT+9trhNHtnjvJIvL/gr7bh231e3ZnyPEEf33OtmT+Ibb5oZR/HC36VUSz4/1dfQSPnYL3Se2s3jrQsLby3WqLuje022fetdTokL7MeXWlNGdSRv2cfmPXV+GD5fevTw/xHmVvhOy0fMddHoMKRzeaI69ekeLWOw0dvn611Gmv92vQpHm1PiOh0p/kXit+wf7vFdRyS3NuwcVs2b0ESNO2etG2oCJoQ/cqx5fvQUfOX7WPwQf46eI4/7L+Ik2jzabbfZ44/sfmROxfczf3t1fO2vfsQ/Fnwn5l/pdnZ+JNn/LSzuP3v8A36avznibhfFYrETxWHfNJ9Nj9I4Z4qw+Dw8MLiPdiuu55drcXjzT7xtL1XwneaPND8n/ABNLd4/++d1c7qV54V0dPJ1nUPt959/y46/NKmHrUZuE1aXY/TqOKo4mmpwd49zIuZtV8QP9lsI3s4X/ANXHH/H/AMCrL/4RvwxZzTfb7x2uf+WkccnzbqUans9I7hKKsm9ixaaJfi0b7Knk/wDTST71OttK0LT/AN7qfnPN/wBPH/sq0O8XzGfN7tgm1WF/3Wlx7KZbaVqmqJ5t/bskP/PSP+OhS5Xdk8z5rRDf4a0x82tv5zpu8yPy62NHs9S1CFv7Uk+wWf8A00krW/L7zCPxWHDW9K0u/Ww8G6W9zN/z28urs3h6zk/4nPxG8QfZrZP+XWsJSlzebNNr/wAqOg8E6PN4sTzfC9n/AGVo8P8ArL64+VnX/Zrpr+HwHobw2vhyzmvJk/188n3XauqNGOHXPV3OOWIliJckNjKvLy3kdroSfc/5Z/w/7q1mzX73FpJYZdN77/L/AIv+BVy1Kjczop0+SnYdYabF5PlWsf8AH+7/AIV3VqfYIbf/AErVJP8Atp/Cn+7WMmdEdAsLm81B/K0uN4bZP9ZdXH/stY1/qVhpepN/wi9v/aupO/8ArLj7qNWXKy7omm0G/vN2sfEbVF2J/wAuscm1UqzZ688iLYeF7PyYf+ekdXf3Q+Iv2FncxbZdY1DYm/8A1fmfNXRaV4zto3XS9GjR5n/6Z/NW1F+8cuIFvL2w86b+3pJnmtvn8iOP79UdS8W395bfZdB094U/55x/+zVco8uxzc3M0c++lfbZvtXiO8dE+95fmVX1z4i6Vo8K6Xo0Wz/pnH9+suXc3jqcvc22veIJmv7+42W33/Lqj4h8YaR4ThW1tAn2l0/ef3qOW/us1UrbHkvj/wCO9np/mRfaN7/8tP3n3K8h1vxPrHjjUv8Aj8TyXf8A1knyrXoYWi+Vykc1apGT5UdJonw38GeH7ZfEfiSTfs/1c8n3Xb+6tdN4ehm8aO1r4Xj22yf6yT+FP+BVjVnUqavoTCNPY77wr4D0rRtssu2ab/nvJ93/AIDXa6LoN9rEn7qNEhT/AJaSR/LXLzSlIcmal/rfhvwXbNa2EaTXP/LSSuId9Y8WX8nm3D/f/wCApVy98P4ZasPCvlv9ltZP3ybvMk/hqLXvHPhL4f2flSyfab963p6+6T/eZxsmpa3441VZZLiZ9/8Aq/3fypV+/wD7N8Nv5UVv9s1J/wDVxx/wf71W9PdRkvefMytDe6l4nvPNv9jzJ/3ylW9VhsPDdn5uqyedM7/u4I/vPV3taKH8XvM43xB4h1vxXcrFLH9ms0T/AFdv/wCzVBf6Vc2enLdXVnsTZ+7kk+89dcVGKSRnJczbM+HTtB0eHzb+4kmmf/WVVbVXuLn7LoNnsT/pn96vO+KPkbc3LHlW5oxeGIbO2a/8UXf3/wDlnJJWX+y14n/4V/8AtCLpd/cfJNM0UEn99T92vpOF63Li7ea/M8PiClz4e/kz7l+NPgyH4ieBmtfN2PMi3FrP/clFfLOsXmvaXrEnhyLw+6X6fJJJJH8v/Aa6uNsHOOIjils1Y4+CsTCph54d/ZdypN4GubP/AE/xlrv+35f/AMStauiZuE+y+HNM2J/z9XEdfn798+65eWR0XhvwZp15eL9v86/ufueXH83zV7V8N/2OvjN8SIV8rQ/7E01/9XPefLvX/d+9X0uT8P4vM6lorQ8POM/weWU+aTPoT4V/8E/fh14Ts4/+E31CbW5k/wBZHJH5cVfLf7WP7Kml/BfxteX/AIXkmWw3/uLWT5tiv93a392v0uXDuGyzApU/iW5+bR4jxGZY5qp8L2PCfEOnv9gjliP3H/nVC2s3kT99HXkyPXhL3TRs9NfZir1rYfPzS5WUbOm2ddNo9m+z/V100kY1GbNhb/P5JrpPD0L71zXoYde8ebW2Ow0pK6jRE+7XqUjyax1Oj/0rp9Mz8tehSPNqfEdBpqfdre01/u11HJLc3LHrWzZ78UESNazR607ZKAiaNsh2cU3WL+HS9Nmv5f8Alim+go8kdJriaS6l++7s8n41KiPH0rNxv1+YK0r/AJCaxpuleJLBtK8UaPbalbOmyS31C3SRf/Hq8Q+JH/BPf4J+MHk1TwRJN4Yv3/5Zx/6Tau3+0rfMn/AK8HNshwuawbtafc9/JuIMXk9RJO8Ox8+fFf8AZm+NPwfdpfEXh/fo6fJHrGj/AL+3f/e2/ND/AMDriIdN8PafZrdXVwib/wDgUr1+N47LcVlmJlTrrU/ZcvzPC5pRVSi9DDu9b1uO5aw0E/6G/wDy3uLf97Vi08K/bEa/l+d3/wBZPcfLXH8K5mdXN71h8h8PaO7RWv75/wDlnH5dOm03WNcgW6uZPs1snz/vPlqY+6vaTK5lbliQy+LfCvhuz+y6Dpf265/5aSSfdSqdtpuveJN2s69qHk23/PPzNqotVF2jzSKj2NfwTeeJPEF//Y/wg8Fvc/e8/XLyPy7VMfe+Zvv11OifDrTdH1v+2fFusPr2pbv+Wkf+ip/urXZGjHDRVSpuzhniHiJezhsjotY1iaT91LJCiR/6uOP7tZE2pXLv5VqPL2fPJJHXHWrSrbbnXRoxpL3Sp5yRv/osbu7/APLP+5/vVo2emzb2+1Ru/wAm/wDd/drG90bqPNYim33n+gWFpNcvv/56fukpbz+wfB7rdeI9Y8642fuLGP5qmURy0HJpvif4iTLLLI+j6VD8/wDq9rPT5rzR/C3nRaDpaXM33PMk+7/vUcouYhs/DeseIPMvtZuNif8ALSST7v8AwGmw3mlaPqX9l6DG9zc7P3kkf8FHL7pHtOUm+zXkcK3Xi2f7Mm/5IP4nqwPiTDZuul6Np623/POSOP5qcdJGVR3Oi037B9jbWfEeqed8m/yPM/8AZqxbz40+BvtP2DS7dHm+5+7rpvyx1MYU3KTM7WEvNURb+W4SFX/56Sfw1y154k8DeH7mSaL/AEm52fv7qT5tlCjc3l+7PKPHn7QP2iaSKw1BIbb5k8/zNv8AwFVryDXn+OXxEvG/4Ryze3s9jeZ/z1f/AHmrsp06dP3pnNUdSp8Bw3ifwBrfg91v/Hlx8u/fJBJcVo+BvGGg6hra/wBjSW1zcxp+7gk+ZUrqf7ym5RMOWVOXKz1zSvAem/FCw+1eLdQmfZt8i1t/li/2q9A8N6Vomj2cej6Dp6WdgnyQQR/emb+81ePWlLSK6HTBR+I7fRPD1ts/tTWZNkK/6uP+/R4h8ZzW9t5Vr/o1n9yOP+J/92sublkaRiY1nZyaxCt1fv5Nt9/y/wCL/gVbmj6In2NvtWyGHZ/rPM2/LWkfdFP3jB8Q+LXjh/svwvH8r/J9q/v/AO7WJoPgPR7h21TWbPe+/wD1lx/6FV/DqRL957qF1XVbCPzLDw3eIif8tJI4/wD0GsF/CWr3lz9qluPJh+/J+8+Z60p6asj4pcqHf8JJFp8f9jeF7ffMm7zLqOP7n/AqzLy2mkdYpbeaa8+/J+83NW9OPLZsUve91Few1Wy0+aSW10t7+5h+WSOOP5Yf/sq9H+Bv7KnxO/aE1Vdeuo3s9Etn3yX158vnf7Ma12YKhKvXSOXGYj6vRueLW3hL7HH9v8UawkKbP9X5m5qtnxJYafD9l8Jaeiu6f8fUkf368uV6m2iOyNqW+rIX0dNQ26pr2sfP/wBNP/ZVrkfiFZ6rHqtr8QfCWlzI+j/PJJ/FMo/2f9mu7Lq6w+MjJaK5x4yjKvh5LqfcP7LPxc0342fDq1iivEe58nZ5fmfxf3Kn+KPw9sNcs4YrCzhsL623J9u/57Kf4W/2lr9TxeEoZvlvJPqfmOFxFbK8x549zxq/+FfiHS9SaXVI5r+ZP+Wkle//AAE/Yw8VfFSwt9Z1XydK02Ta/mRyLJK//AV+5XweA4TrVMy9lL4O595mHE9Cnl7qx+M+sfhj+zf8K/hXDHLpfh+F7zZ+8uryPdLXfx7I0/dV+wYLCUcJh406S2PyHGY6tjq0qlVkiPXhn7efw9/4ST4UTeMrSP8AfaVt8/8A65b/AP2WjMIqeEk+xngpcuLi/NHwimjpHeTRfwU7/hD9NvG/e2f/AH7+WvjfZXPuI1LEqeAIetrJ/wB/Kmh8D3kaL5Wxv/HaiNIuNYu2fhW/j/5c99a2m6Jfxv8A8e9b06RlUrXNew0q8kdf9Hf/AL910elaDNHt8r567qVM46lQ6rSrC5j2/wCjPXQ6TbTfL/o716VOJ5NSceY6jR7a5+U/Zq6TSrab5R5dd0EedNnQ6bC9bumw10I5ZG7YIvy1s2B6UEGpZ9K0rZe+KCol6HpXNfEXVfM8vRopP9uf/wBloKOU8j3p2w1MhRDYajfpUjBLxrd28r+NNkkf8Lr/AHWrxT40/sK/Cv4qXk3ifwHHD4Y15/nkgj/48Lxv9pf+WLf7afJXh55lFLNsK4W99bM93I84rZTilUXwPdHzJ46+HevfCfxPJ4S8T+F7lNVtv+Wckfy/7LL/AH1/26zYPAeseKN1/rMezZ/q/Lj27K/EamHrYbESp1laS0P22jiaOIw8alPZq5l6reeG/C955WjWf2+52f6uP7u7/arn30Hx54sm+1apcQ29s/8Azz+VdtYyqRUby6HRGnroaHhj4Y3Nxc+X4c0t7mZPnknk/wBUi/7Vem+D/hv4D0ewW++INm+t3jt+5sY/lgTH+z/HW+F5ZNVanw9jDEaxdKn8Xc1fE/iR49NWwsJYbDTYX/d2tv8AL/31XK3OsXNxOosLdIUf/V+Z97/eqMZipYioXhcNGnT1K6JDbv5VrI7zTf8AAm3VJeWdh80V1cTWzp/ywjj/AIv9quWJ0S2HfZks/wDSvub/APlnH/HU9zst4ftXijUPsdts/wBRH951/wB2nDQJEFnqXiTxAkml/DnR/s1n/wAtLq4k/wDHt1Gm+HvB/guaS+17VP7V1V3/ANZJ82z/AHa0RMttBL+/8VeOJ/sGjW7eSj/6jzNq/wC81aMOkaT4Ms/tXiP/AEy8+Xy4Lf7qNRF825MpcuxagtvEnij97LcJZw/9NP8A0Fac+seFfCcMlro0iPc7P38/l/NTl8Nzn5jFttK1vxRDJf394/2bfv8AMuPvf8BqtrF5pulp5UWnpv8A+e9G5bdzmL/SvHPjCaS10HUJoUdP9Z5fy14t8cvBnxg+H+mtrJ+JtgkkL/u/7Pj23E1deD9j7VKoS5TjFoxvh18RfFusW0ms/FD4galNbJD+7jk+WmXOlfEj4y3/AJVh9psNBR/3fl/L9p/3mreboUqjl0Wxly1KyXdnoPgP9mDSkeG/1mNJnj/1fmfd/wC+a9Lu/h79j03ydGk8mvMq1pYiVzujBUqfKjjPiF+y14D+KFs1148uLyP5P3kkdxti4/i21wug/snfCXwm7XPhKNLNE/1mq3nyq/8Au7q1hi60afs0Z1KNOXvs6DQbDTdjaN4Ije5RH/f6lJ8sVdb4b8K3vy+bH8m//Wf3/wD7GsJy94xiuiF1vxJ9nmbS9Lj+2Xn/AJCh/wB7/wCIqvbaS8dyst/51zeTJ/q5P8/ItOJcpfZNaZ9N8P2X9s+LZEh2J+7g/h/4Ctc3qvjaH4gPHo2jXn2nf8/kW/yqi/7TVrBe7zGU5cseU3YdE0Xw5pccusyeS6Jsjh/i/wCA1xfjPxVreqXkel+HNGmuvn/49Y/up/12anTj7SV2KUuWN+rF0Hwk/h9G174g65C83347WP5dn+9VHxDqt/4k8y/luE03SoX3+X91nWtviqW6Cty02+rIdBSz1Czmv9L32Gm/8/1xHt3/AOzGtNgebUJvsHhyObfcvsk8v5ri5auhRlOpyLujOUo04NvtqfSv7MP7BkNxcw+I/i/p7wp8stpo/wDf/wCulfWiaZpXhOwt4rXT0RIfkhgt49qoo/urX0mFo+wo36vc+fqVPrFa72R+LqQ6bZ3LXXiPVHuZn/5Z/erR/tLW9UX7LoNmltD/AM9JPmavl62vkj6Cmn6sdND4e8H7b/xRrHnTP/ywjk3NU0fjy5vE8rQbdLOF/k8yT/WvWbpyrWlsrm3NGN09y/4AvvGH7PfiFfFvhLzrnSpvn1Wx/uf7Ua19ofC/4x/Dr40eG47q/wBYSzmmj2R33l7l3f3Zl/g/36/TuG8fTxGHVN9EfnPEeXujW9pHqZnjbwNc3CeVFcb0/wCWf8S/8BauZ0TVNe+HWpNf6Cbmzmd98klneSwf+gvtr060pU63NH7jxqXLUpqMz0Lw9+2l8a9LSOL/AISiZkT/AFn2i3SRn/76rcuf2/PjJHJHFYR2L7tv/Hxo6f8Asr1rDNqkY2ZlUyumndEqft8/HKN28230H/pnHJo+3/2esDxn+2B8fviJoN94Sv8AXNKtrO/haKeCz09I98RT5lZm3VUsxrVKbg+qFHLaMZJ+aPItNeG8uVl/7+JWolj5b+V5b15sI3PRloaENt93H8daNtYH5cVvGJMqhqWem/8ATOt7wxpVnJfx2t1/H/q/97/ardRMZTNSazSO5b/iXpbOnySRx1c02wMbrmOuinE5Kkjo9Ns62bC0+evQpxPMqc3Mbumw5/5Z1tWENdkInLNm3YIflrasE96qJhI2rBe2K2bNKvlQjUs0rTtqgqJLf38Wl2cl/L9xErz28vJtQvJLqX77vvq+VEzIqKhocQqF+lRyssjkqP8AeUl0SG+7Knjn4feEvjJ4bXwl43tnSSH/AJBWqxx/6RYS/wB5f76/3k/jr4x+N/wj+J3gvxVN4D8ea4ltDD+9gks/3dveQH7sqt/Hu/uV+bcc5WoxjjYLrZn6TwJmfNKWBqvVao5Xw94Gs3l+w+FrCa/dF/1kkf7pMfxVrWHg/R7ebzdZvf7SdP8AWQWcm2KH/eavzinTjOaqS+FH6RWlpyQLdhNcxwraxSfZk+5JHH8q/wDAqzdV8VJp7x2FhH9o/wCel1J91P8Aa/26VStJyb6diqNP2cUuvcyrm5v7ib7VNHsTf+7nuP48/wB1f4K0YbaaOGOX/j2T/ppJuleueUpbnQ+XYsf2PbRv50u+2/6YR/616bNpU2qWy3Utwlnbb/3ckn3nX/2elGLMZFC/8SWdneR6N4N097y5d2/fyfN/wKpLDwrDbuuqePNQeZ3+f7L5n/oVa7BILnxteahbLpmgR/Zrf7nkRx/N/wABosPAEVv/AKd4o1B4d+39xHJ+92/7VUif4a1NSz1K81GZtB8EaWuxJFTy4492/wD4FWnD4Vs/Daf2p4o/0mb/AJaQR/wVry82xy81tyhr2u+JPFEy6XpdnClsif6uP+D/AHqRNB8PeC7NZdZvEvLlE3SR+XWcnrcOUwbzxVeeIHa10u3+Sb/lnHUlt4Mh0+H7f4j1DZ8n+r/ienA2jE5z4hfG+28L2X2CKzRIdn7u1jk+d68i8Q3Ot/Ei8/e6G77/APUWMfzM/wDtNW8G7qTC0pSaN/wT+zrZ3FzDf+MreGaaH547X/lkn/xdetaV4Ss9PtlltLNH2fcjjrGtUlUduiNoR9nHzZrw2CbP3Vvs2f8ALOqGsXtnpcLXOoXCIn/LT/4msdo3RKvuzz/xz45s7fy4tZt5tj/8eulR/wCtm/2pP7i1z8fhXX/iJNHd+KJESFH32ulR/d206fLGOpjW96Wh3ei+D9K8L6V/xOfJtrbfvjtY6yte8TzeKE/s/RpPsdhv2eZHH+9m/wB2i15FRtT95kOg+G4biH7LpXzzI/8ArpLd1X/7Nq0NS1vRPBVt9ltZHv79/wDXzyfdRv8AaariY/3jhbnW9e8WX83lae/k7G/064+6/wDsxrXQvcw+C/D0NrL9jfUv+Wn2e327F/6aV0bR5TP4pXOM1jxPf3GvQy2Fw2pX/nbJP3b/AGdF/wBmuyl1iw8D6asstukNzc/6yCOPczt/tUcto3Q1HnnfojhPE+rPeX8eoa9Gjzb99rYx/M3P+z/eqPUNB8uH+1PGW9N777XR45P/AB6atErK3UXNzNvojY1L4LftH+JPhhffFDwv8N5tVsLD/V2tn/rZv+veBv8AXNX2B+xh8AfBPw7+HdrqmqeG/wC0tb1i2WbUtSvLfy2sGKblijVvubf4q+qy/ArCRVet1T5T5rG4qWOqSo0vsvU9x322n38Ojaf8/wC5/wCWknzP/vVNcwvebftUm+b/AJZ+XJ9yun4otkSfLaC6I/Fl7Pw94Xhb/SPtk3/PO3+Zv++qxL+88f6xbNa6DHc2EMz/AOsj/wBb/wB9V8ok6j1Ppvdpx0NTwf8ACuHS/wDT9Z+//wAtJ7yTdK9dpbWEMkKw6NocKbP+Xq4/9lpVqkY+6iIxlK7O6+A/wh8T/GTxV/Y014iWFn8+q6lHHu2f7K/7TV9eQfshfC680i3/AOEcE2g38MKrHfWfzedj/ntE3yzV9/wjlf8Assq8vtaI+C4qzJrERoR6asp3nw6+KPhNGtdU0eHWrNP+XrR/m/76ib5krBv9K0TUN0UvmQv/AMtI7iPy2/8AHq+mqYeUV7x8xTrRlL3TntV+GnmbprCSsS58Aa3Z7vKjryamFlGR6tPEc0Sv/wAI9r0af6uq9z4b1y4Roh8n/bSsXTqI054sj0rR7yzvG8353RN8kn9+uqhihuIVuoq6qceWNjKpLmkXodHS42/7Hzx1uW2mpXTCJzSnYv22m/8ATOtO301/ll/266YROedQ6a2s4fEEy/adkNzs2eZ/C/8AvVNDo82nzeVdR7Hrop6HPUlvI2LCzf5a1rO29K7YHDORr2ENbdhDW8TlbNewhNbNgvbFaRMzasE+7gVrWaVQGrZpWjbVn9oqLOc8W6k9/craxf6mH/x9qxHh7VoZyI3Xvim1MhxG/fpyW00lSxg9mn/PSmeSlv8A8vCVmaRiV5tSQPny99Z3xY+EuhfHz4aNpd/Yedqmj7rjR3j+87bPmg/3ZP8A0OvPzTCLMMuqUH1R6WV4r6jmFOuujPjzW7/UhC2l6D/oFn/y0jj+8/8AvVhf23Yae7WtrI7zf887f+D/AHv9mvwHEStNx7aI/oChBci7PX8SjeX+o3DrFf3EL7/9Z9n/AIP9lqihS5kRr+K32I/+sk/hTH+zXLKWp1RjaJZs5raOH7fLtdN+/wA+4+8mf9mrVvDqWolpdLj8n528/UriRF2f7VZr3palSegk2paVocK/ZZPtl5M/7yfy9zbv9lazLzStb8QXP2/xRcPZ2GzfB+82y/7rf3K2ic/2eYlufFVhof7vw5paf3PPjj+amW3hjXPEH+n6pIlqkL/8fVx/7KtP4pBHa5rPeeGPD7ra+F4/tN5N8klx95nb/wBkqxD4S/tyZtU8b6g9tD/zwkk2s6ir+KSRzyk7NkupeLYfD6Na+ErP7Kkyfu5I/wDWv/tVX0fStYvN2qeLbx4YX/56Sfvf+Bf3Kq/LKxnvIl1vxzpWh6b9g8Lxp8/yeZH97fXMWGla94sma6l/c2bp+/nuKL80jSEbBqvifwT4DsGi8N7PO/5aTyfKteSePPjRf6hcta+HJEuZn/1c8knyp/e2rVWvKxpzEPg/4V634sZdZ175Ef8A5byfMz/7teoaD4M0rw3Ctra2/wB//WSfelf/AHmrOtVctjSmuU2P+EYsLxMy70/65yVfs9K+xwrFFvSH/nnUxiEpe8Z/ifxDZ6Gi4O53/wBXBH952ryTx/8AEvUri8k0vRp4ZtSR/wB3JJ81vZ/7q/xtRy80rdiJz5UW/hj4D1XVPL1S/kmuZppP3+pXHzL/AN9V2WseJPCXwzs/9Fj86ab5I5PvM7f7NTL3pEU4+7zHJPrD+LHkutZvP9uCP7yv/wDF1p2FhDHo63WsXCW0Kf8ALP8AidR/erR2UdDKT55XZQ174qJJbR2Fh+5s3fyvP+7/AMBjrk9bs9K1C5s86wln/pPm2kf9of8AHz/tSL/drpoU1a7MK07WSN/WPiQv2BbDQfsyJCmyfVbe3/i/iWFaydB1LRNY1VdFljmv/nWWfzI9qvn5tzNTjG0W2HNeyL2peMNB8NvNYaDHbfad/wC8k/hh/wB6sPSrnVfFk11LoMnnb3/f6xefdT/Zj/v1Ebx95nRbmiktyxbaU+l6xJo3g2D+2PENyn+suP4P7u5v4Fr6V/Zo/Yt17+yofFvxu0O2vNbvJll+y/aN1vbRf3t392voMjy/61WdSWytc8PN8Y8LT9n/AEz6q0zRNK0ewh0bRbdH2Qqn9q+Xt2L/AHIV/gX/AG6zdR+0/wBsXFrayfIm395/fr6HMMR7aqoraOx4uX0fq9Pme8iwlnFZ3EOqfIjojeZJJTm1W2vH8qwt0RHf95PHXG5ct4nRbXnPxh0TRLmOb7ff6f8AY7b/AJaSSfef/gNXHs3uJvN0G3dIU/5b3Fx8tfN8y5tD6CN+XUgv9Y+x3Ky394l/N/0zj+X/AICtaej/ANq+OJrOL+2IbP7fcrb2NrH81xMx/wBn+Ba6MNl8sRqzmxGOjh7n3X+z34G0H4beG7XwvpezZCi+fPJ96aU/eZq9Y+3vbp+6vE2f9dK/XsuhDDYWNNdNEfk2YVKmIxUpvq7jE8T+W/8ArKfc69pupp5WqW8Nz/18Ro3/AKFXc5RmveOHlcH7pn3PhjwDqD/vfDdt/wBs96/+g1Vf4aeALj/VR3kP/XO8/wDiqzlQoTkV7SpTRUl+C3hu44sPFGoQv/00jRqyNY+BXiS3RpdG1jTbz/YuI/Lb/wAernqYM2p4yRwXiPStQ0e5aw1nR3s5v+mkf3/91v46w7O8/su8aKX/AFL/APjlebUjyysehTlzRudHpTwyf6qSujsIfMRa3pmdQ17KwTbWnDYfJXXCJyzNCws/kWuktoU1C2/0/wD5Y/6uf/2Vq25TnnLeJLZ2abPK8utSztq6YHHNmpZ21a1nDXTExka9kn3cCtewQURMrs2LNK1rNKos1LNKfqVy8cPlRffep+0TIxZrP1qrNY946olsqTWzxvTU8r/lrb1MhxEme3j7yVVe/wDL/wBVHUyLIZryaT/lrVaZ3eszSMis6JI/72Sui8ATPb6woikpfDLlK8z5J/a28Gp4X+PuvaDYbLezuZlvYILf5flmXzPm/ufO9eVpC/nNF5kPkp8n7v8Agz/FI38dfz1nVH6vmlan2k7H9EZPUeIymhPq4r8hbnw2vmRyxb5ofuSXXmbYk/75q9pum3P9qLa6VGl+kP8Ay3k+7/3z/BXlPc9KUrREvP7K0eaOLVNlzM25JPs8fy//AGdQzaDrfiDdLqdwltYJ/wA/Hy/J/cVf46vl5tjNy0ItYvPD3h5I7DQY0mm2f8f3l7vmrEs31zxZulluIf8AWMkk8kj7aqI7aXNaG28MaHcrdS3j39zIi+R/D0/urVyHTfEnihPt+qXCWdgj/u57j+Oj4ZGEpWlcIda8MeE0msPC8fnXif6y+kj+V2P3v9ysx9K8T+MNVa6l1Sb7Nv8A+Wn+qT+Kn8VkS7Xcuhp3dzpXg+zWWw+f+DzLiTdWZc69qWuaktra281yjx/6iOP7jf3mq5fykw+Ia+j+HvAkP9qePNUTe/zxwfd6/dX/AG64j4l/HhLi2k0uw2WcKf6uC3+Zn/3v7i1SjyyNjze2sPGHxI1KO1tY3dPl/wBXH8qL/eb+/XpngP4D+HvDaLf39v8Ab7z7/wDeVP8A4uiUuVWDlPQLOw8tP3seyrKW0Nu/72P+P/WSfeT/AHazS5iubmJb3VU0+zaWLTnR9n7uPy/v/wDfNYWo/EK2t4Wtba38652f89N0Sf7zVUnYzkvePHvGvj/W9U1KbQfBtu9/qUzss99b/wAC/wB3/Yre+Ffwc8N6Bbf2z4yufOmm+eSDzKPhp26sz/iVDc+Ivxm8GaHp8fhzwveW73OzZDY2/wB3/gVcPo/h7StU1JtU1nxZI9zc7fMkkk3LD/0yj/uLWaTTNL2jymrN4M1WRJL/AEvXLb5X/d2vybnx/wCzV5prGseOfEHiG4sPEf2yzsNNdfMsY/m86X+83/xFbU5RjF3RjUp6XRznjz466D4Xs7rStZs/n8v9x+FeQQ/tXWGsa2thrEj6bpqOySXUdvuZ1/usy/w17WX4RYik9TzMVUlSqJHf6f8AtIfC77NHFF4gtnR02eXHJ8rrW7pvx40m38NND4S/0lJpNn+jx+Y23/gNTLBVKMnGRrTr09zS8JTXOt2C/wBvaPbaVYJ88FjH96bP8Ujf3qseIvizNJr2k/D7wRbvbXmpXkdlBdXEe2JN77flrnjT9viuVfCdcpLD0HN7n6BfsqfsbfDT4V+A9L8Y+PEvE1W8ffdWt581xNKP4tv+1XtevX73Gg/8eb21m/yR2sf8efl/eV95UjSy7CKjQ3klc+Ii6uYYz21X4Yv3fMX7e9xpS2se7YiKnmSfLv8A92lsNKhjs1l/d+SkzP5nmV51+a19zua95tbEGtzJqiR2sseyHfvo1KFLOGG10uRPn/8AHMVTjzXkTze8fhrqHxCmt0W617UEeb/lmn8P/fK1zmufHXUrh/sku+FI/wDWfu/m/wCAr/BXkYfC80tT0a2K9nsVdY/als47aHRvC/hiztkhT9/JcSeZLct/ekb/ANkr1b9gCa8+InxyuPGXiOWF00Sw3wQRx7VSWT5Vr38LTjGpFI8XESlKnK/Y/RvwTbW0lmt/qm+GF3ZI5PM9Km1LUr+3vGi0G4muYU/5aV9pT+BR8j4io37RoryeJNSjT/StP/79yfNTYfFVn/z0dX/6aUvbcstSeSNSNrFq28SP8vlOj/8AbSraeJ3jT/VvTeIuEqAs3im4/wCWUnyf89KiufH6Waf8fG+qeKJjhmYmveLbPxBYNa6zGk0P/LNP7n+7/crzHxDss5pPssjzQo/7uT+L/gVctZ+0OiMvZy5St4Y8c28d+1hLcfOn+rr0nw/q8NwiyxSU6MtCa1pbHW6bMZK3bPZIlehTjzHDJ2NLT4fL21spNNcbfN+RE/1ccf3a6FE5psu20NaFtDXRE55M1LOGtS2hrSJjI1LNPStazSqINewSStmwhoKjI2rOzeNPNplzCn/LWpiUzOubaqk0NUZlG5SqFx9+gCtNvqs698VMgG1DNWcjaJQuZ0j6yV0/wxtnvL9ZamPxFS+Gx8y/t/SW9x+0fNFY73ubbRbFJo/4eV3fM1eJ38MMb/6LbpNcu/7u1jr8B4j97O8R/ia+5n9B8Oq2R4e/8qf4Ft7y30+2hl13UE+5+70q3j+5/wACqKz17xFrG7S/DunpDYJuTy45Nq/7zNXhKWmh7NubcmT/AIRLwfN/aktx/aV46/6yT5lhYfwqtY2sax4k8YXkcv8AaDzIn+rtbe33df8A0DbWnNyx9mjNRb95luz0Gw0d1v8AxHc/aX8n93a2/wB3/gW379T+TrHiTdYaNZ/ZoUffJJ92JMfw7qIr3bCqSGvc+EvAfmXV3v1K+hRvMk8vbEn+7/fqpDr3iT4gXjRRW7w2uxXkkkj2rx/DS126GPU1H0Lw9ocP2q/kS5k+VP8Aj3+VKy7/AMSarcO3lRfuY32R+X8qp/8AF1vyqMRayGf8I3eXCTX+vaxNDZ/f8uSTav8A9gtZ/ir4waD4Hs20rRreHYiKnnxyf+g/36hX5ro0lHlieK+M/iLqvii5k+wRzTPM/wDrrj73/Aa0/BPwE1LV3W/8Ub0T/nn/AMtf++f4K2lL2MbrcIwc3ZnsfhjwfZ6RCtrYRpDD8v7uughhtbd/K+0bN3+r/effrniWyfZ5e2WWPe7/APPT+CotS1LStPhW61mTy0T/AD8taRl7pnzHm3xI+KNn4ThWKws/+Plv3djHcf6Q+f4mb/litczongD4nfEy8hl1nUH0rRH3eZBH+7Z1/wBmtPdUTKUvaHUpoPgz4T6U0ug+TDH/AMt55P8A7KvJviF8QvE/ii8uNF8OXmyFP9ZJH8v/AHzWMfflzM0+GHmedQ+D/EnmyS2sly7/APLSSSP+L+9urI8Q6xqGnzNYRa5M9yn/ACz+9/3zXZRlGVS/Q5Zc0YmY8XxFuGaWw1y5s3f/AFc8lw7S7v7v+xXHar4q/aB0O5/0Xx5f73+fzPM3N/wKvQgsPUduxyzlXj1EufFXx78aJHc6z4X0fWLmFP3d1qGl/Pt/2tv36IfEnja3haLxb8Hra2hR/wB5dafZ7d9aKjhbcsJ8rRrTqVZPmaL3hu28N+KN3/CLfC/c/wB+eSTT4m+X/wAdrbs9A8K6fbTfYPC/9lXmz/WSWbr83+7G+5KUqk4y5U/X0L9nCaTa8kdX8Lvhd4t8aakvhLwvrGt22qzf8tNPkeSJF/vN533FWvrD9m/9n3/hXc0N/wCI/Flt4w8Q7N+m6xJp8W2wV32r5O3+L/beu7LqUOd1ZLRao48VPmj7JP4tD7b0fwY8ejw391I76h8vnyXEm7/gS1b1J7zVbCGW6vE2I/7/AMv/AJbV6MefV9zx5/Fy9Ex9tDZxQ28V/ebER/8AnnT7+we4uftVhvmtn+SOD7qp/vU6cVJ3M5XTMbUtb8vVbjS5Y9jomzzP79S2Gmpo8LS3UaNNsrNS5pa9LmqjaNl1sfzn3njPVbyZorX5E/56fxP/AMCrMudYSzT/AE+4R/8ApnHVuHLLQy5u5j3niS51BP8AQLNET/np5dfUH/BKzW0s/HniKwurzfNNZ28sfmf3Q/8ADXZh/dqK5y4qXNTlY/Q6HxbdR+DLOKK3jfybmT/WVS0/4k6lp7/urh4U/wCef3lr6ynN8il5Hx9RR5mups6J4q0rxZcrDrOoW1s//LOf7r11f/CAWF5beZYeKIbr/rpsauiNFV43OeVaVKVrGZc/D2+t3/1Cf9dI5HWsXxJpupeH7P7Va3FzN/0z8vdXNUwtSNzeliqdTc5y28WveTNay3mx/wDppJtp1zrdnH5ct1qCfPurifMd8Yx9nczdV8T21wn2W2uP4657W9eS3/1cnyV1R0Wp59SPvcxyOq+Nnt3/AOPjZUdn+05bfDuFrrWZHmsIf9ZJH8zIv96qUkkHs+Y9w+Ev7QPgn4gaVDqfhfxBDeQzf6uSOTd/31Xq2h+Iba4Rf3ldlCocNaNjoNKv0kmki8z5K3raZJEWvSps8+ZpWfStS2StkjnkzUs08ytWztn6VokRI1rCzkkrZsLB+tAje0rS3k2/u66XS9Htrebyrr7+3f5dBUYkl796qFy9TEqRTmftVKZ6ozKV10rOun8t6C+VFKaZN9V3ukzmpkLlK815VK5vP+mlZyNIlCP7TqF4sVrHv3vXsXw68NpoelfarqTYiJvkkk/gWjanc01lUSPhX46+JJviX8V9a8barcPbWd/ft9lg8v8AezRJ8sX/AI4lcBNqqW6LpfhfR7lPOdvMn+827/aav5yzat7bMKk+8m/vZ/RWW0XRwdKn/LFL8CSPw94e0uFtU8W6x9pff+7tY/4/96qOq+MLN0W1sPJtofl8iOOPav8A3ytcF1TR6HK5bE9h4GSPy7vxHeJDbO/7ux+9vz/e/uVYSG8kf+xvC+h7/k2zeXH/AOhVcVy7kVKifuod9g0HQ0aXVNQ+2X/y+XY28m3Zn5mWTbUF/rHiTxBDb21hb+Sn/Lext/lVF/i/4FRKXvWOeW4z+wdE091utekhd4d32e1jk+4397/bam6x4qT7Gthpcfkokf8Ay7/+zNWunLbqHUr22ieJ/Ett/otw8MO35/tEm2JP9pf79P1K88GeC7ZvtV551yiL+8k+7uH92jlckXdRPGPH/wAddV1gtp/mJMjvsjtbe32q/wDwFvv1iaJ8PdY8YXn2+WP/AG45PvRJn+6v8bf+OVp7tGOo4xc5Hp/gP4RWHh+GO6lR5rn/AJ+rj73/AAH+5Xd2GlW+nw/6v/tnXG5Ocrs3lorIuQp9oRvNj2R/LTprCwk2yxfIkO795/FWkTB7nPa94tuY0ktfC/2a5dPke7uP9VD/ALzfxtXmHiTxzr2u69/wi/gi8m1LUn+SfUo7f/U/9c/4U/360jH3TOckjsPAvwK0rw28Pi3xbcPc6l/00+ZUz/6HS+O/idbeD7aSwtbi5vLz5vLtbfZu2n/0BamV1IVKNjzP+0vEnjy5j/tnS5vsr7vIgkj8tU/4DWxZ/DHR7OFr/VLeGztkRf3n9/H/AKG1Z1N+VGnLzTuUfE+jza5ZtYeHP9DttmyT95+9dP8Aa2/c/wByvP7zwfDZ3MkV1GkK23zz3Vx8sSVpCfLHl6mM7SlYoalbaVcT/ZdGR4Uf/mJSR/NN/wBc1/u/7dSWHw0sfsyyy26W0Lv+7k/5auv/AAL/ANDrf20qS5erJ9nGRNeeIdHsNul+HNHhdG/dRyeXuV2H/odbHhvwTeapeLrPjzWHd0/1em/d/wC+tv3KUuanG8lds0jyt2RL8S/id4M0uzXwv4N8P2F9rDpsjjs7dG8lv9plrofgt+wnr3izw9/wnnxV8UTaDo9z5nkXVvH5txNL/dt4v42/vfwV6mXYWVaooye+/ocuYYyNGm7LyXqfSnwN+FyW/wAIrr4c+CPCcOjwzQqkc/l7Zbm4T709xL/ebZ9z7le2fAT4ITeG9HjuvFun20OqzbXvo7eP5Ux/Cu2vqJOP8KC0Wh8/L3aalJ67nZ+LZrnUEW1sLx4YUdknj/v/AO7RZv8A2H4Ya/Pz+cn7u1/i/wCA1lzSVVvsjKWtNepTsLCbU7xdU1m4dJvlSOCT+Bah1i5vv7RjisLzzk2bJ/LpX5YXHG0mTXk1nZ6at3FcJc3juqeX/crEvtVsPC6TeI/FuppZ/wDTOSp5eaenWxcXy03J9D+bubWNRvNv2S3SFXfZ5klUb9Ejfzbq4+0v/wCOpXVGOpxTlcpPqvmTNFFI7v8A9M69J/ZI+Ltz8I/jZpfii/uNlnM/2W6j/wBl/wCL/gNbQ92RnKXNE/V/wB4k03VbCGWWRJrO52y19Ea98Afgt8YPDEeveDbv+xNS+zK/+j/Mr/7y/wDs6V9llPs8Rh3GW6PiM49ph66nA8f8QfswfELT3b+y7mzv0T/nnJtrlb/wh8TvBc3m3+h6lbf9NI49y/8AjtVOhKn8JjSrRl8ZJpvxh8baP+5/tB32f89P/sq1ovjZ9sdf7e09HT/lp5fy1Ma1WELM2lRp1FzQKHjC/wDCXizVdPv/AA5H5Lvuiu4Lj3rD8Z+G9S0ubzYo3+T/AJZ/+zLXJVitbHq4ROVFwb1OL1i51KN/3UlYd4+pSf625d/+ulYuRhytSMq68K3mqTfvY3RH/wCW8n3a5X4i/DfSry2k0vSw7w+T5Ukn9+oqVOUrlPBNEh+KP7L/AIwk1SK8v5PD002/+0rPfus/+uy/3f8Abr61+CH7Z+sXmm2/2+SHUoXT/X2cnzPV08R75hKjGUOVn0V4D/aT8Jap5ct1cTWzvt/1kbrXq/hv4leHtURRa6pC/wD20r38PWjKx4GJoyjJs7PR9Ys7jb5VzXR6a6SP/ra9FbHBKWpv6bD6VvWFilVyszjI3LOwf/llb1qwvYaXeQ2us6pZ6e83+rgvLyKOV/8AdVnVqcr8pUbcxsW3jPw3bv8AYPDkkOpX/wDzzt5PMVP+ujL8qVpaZHc20bXN/PummfdP/vVnI0j7w+5uUkTrWTeTeWaoJGdc3lVvO83vQSUr/WIbf/VfO/8Az0rEudV8x2/eUDnIpzX/AM9VnvKUhRKlxfoEqo/2/UJltbWP771lzG10em/C74Yvbhbq++d/+mlcX+2l+0DbfDzw2nwm8HXPmaxqiql95cnzW1qf723+J/4f9ivF4hxv9n5XUqLe1l6nucOZfLMM0pw6J8z9EfHFz4Vm2NqnijWHSF5t8n2j73/2FZXiHxakafZfDln9mhZNnn3Hzb/9rb/er8Bqe7Lmluf0BRjzR02Muw8Ga94of7dE80Ku/wDyFbiT5uf9n+9XSJb6V4fs47XQdH+2X6Ps8+82fO38Tbf4KIL3by+ROIlf3YjrPwxfwW32/wAW648MLvujtY/9a/8A9lVW88SWFm82jeF7N7bzn83/AEf5mmb+Lc33qdRpbGPxLlY2Hw99nhbWfFtylhDM+94/M+Z/9r/YqPUvG1tZ6Uth4cs/sds3+rkkj3Svn7zLUKPLeQP3jNtnudUvGtdGt5n/AIPPk+6n8X7xv71bltouiaHbf2pr14lzNs/efu9q1tDqOoox2PPvid+0D9jhaw0G3hf/AJZSQfdVP96Vf/QErzp9N+IvxQuFl+zTfY9n/PTy1T/eZvuVtHljHnKjHmOu8K/AfQdLuY7/AFP/AEy5/wC+Yk/3V/8AZ3r0PStEs9LtvN+zxomz/WSf+yrXHUqe1qam6fs48qNOwhhuJm+/8lOmR5JvN8t3TZ+7jp6Gcn7xDrGvabodt5t1I6fJ/wAtP/QVX+9XD+LfH74X/hI99hC/zx2Mcn72b+75m37lHxE/ArnN6P4Y8bfFjUlhv45tK0f/AJ4W/wArTf7v/sz16VYWHgz4V6I1raSQ20MKb5JPM/8AHmZvv1XN9kxjHmdjzfx1+0VeeILxtG8B6fN5KIqT6r5fyp/srVPwZ8PftFz/AG1f3DvqE3z7/rSqysaR1XKdbrWpeG/BZWw0vT1vNSmRfLtY5PlRj/E3/wARXPW2lTa5rcmva9JfzIj/ALi1uI/lhx/s/wAC1lDm1JqStHlQ3UodK0eJr/VPkvLx99ra2+xpZl/uqv8AAtee+JLC51zWG0vWfD7zXKPvj0rzPMt4VP8AEzL/ABVrT099k/Z5TRh8MQaWkmqXVvC+xP3c/l7fm/6Zr/G1ZsN5rHix5LXS9P3/AD7IIJPmVMfxSN/H/ufcqqfvy55B8Puo0E8K6D8P9Bk8UeLdUt7NE/1l9cbP++Y1/wDiK5N9S8efFzUm8OaDp82m2EzqkEdvG/2q8V/u7WX7m7/vuuijGVafO/u7szqVFRhyPr17H2B+yD/wTo0b4f8A2Pxv8X9HtpLzy98HhySP/U/9fTf+0v8Avuvp/wAT+CU8V2DaXrMcP2NJlex+z26R/ZmT7u1V+5/wCvrsPR+r0VD7T3Z87UrfWMR7S2kdkc9pXhX/AIRPUpIrCP8Ac+Zv8yP7s3+9XZW3iQ6W62sW/fNDvk/efLD/ALP+9U06vJWbN8TGMqKVjL1K8eS5W/uZHhs4U2Qf3pm/2f8AZps39sSf6ff3FtDcvH/q5JPl2/7P+1W0XKV5M4vdjGMV2FvNS1TxBCtrFbww7P8AWTyf7NXNNvNEt/8ARYo/uf6+Ty/mf/Zq6esyakeWNonJ/Er4n+DPhPpUmvazeQpeTI32Gxj+9Xyz4/8Ajxr3xE1VrrXtQ/c7/wBxB/ClFGso1ednPjI1J0FSXU/Fd9YTf13un+rjjqFLa/vP3t/cbP8ApnXbL4jC5O8NtZw+bCmz5/8AgVZ1zrENu/8ArNlVGHNIUpKMT7J/YD/beh1BIfhL431REvLZP9Fnkk274h92v0X+Bvx1ttHeOw1TZc2b/wCr8uT5kz/HH/8AEV7WW1/qtdOWzPDzPD+2otxPRNY8Z6b9pW7v9UuUtpv+PXWNP+ZX/wBmaJv4q0NHtvEl5D5vhzx5Z6lbP/yz+83/AHy1fWcqraxPi5SlT+Ij1XwHp/iDdF4j8F6bef8AbPyGrnNS/Zp8GXELTWtneWDv/wAs/M3LWFTD62OqliOV3icfr37LXie3drrQdQhuU/55/daqz+HvG3huw/svx54fvJrP/lhPJH88P+6y1wVMO6d7np4XERlO99TnNe+FyapbSap4cvPtMP8A0z+Vk/4DXMw/Dq8s90t1Hvf/AJZxyfwV58onozqRuVrnwTf3j/6VvpD8NHk/5d6xdBzM/bEb/BC21BGhls0dH/6Z1x+pfsB+EtQvW1PwvcX/AIbv3+eSfQ5NqO3+1A3yvW0MKY1K0JO6NHQf2af2lvCDrFo3izRNehT/AFcd5G9pL/7Mteg+EtB+OWllf7e+D958n/LTT7iKdf8Ax3bXpYejONjzMTWhKLPVfBmpeJLd44r/AMF6rbf9dLN//Za9a8H6heSeX5ul3if9dLdq9qn8J4lZe8ejeHpn+X/iXzf9+3rtdHlmjRfK0yZ/+2ddBjEg8baV8XfGmlNoPhLxJbeEoZv9fqsf7+8Rf+mf8MLf7dee+D/+Cb/7NOmeJ18eePNLv/GGvb/Nk1LxBqEsjbv7336qUlyhGMuY9/0Gw0HwvpsejeHNHttPs4U/dwWce1auf2kPSs5G0fdI3v8AioLyZLiHyqkGznbzUobd2Msnz/8APOsy/wDEM0iNFF8iVoBlT3rSd6rPcvisxW7kEzv08zy6qPc738qKTe//AEzqGXEs6P4S8Q+JLlY7W32Q/wDLSevVvAfwrs9HiW6uo/8ArpJJS5TXlRh/tA/tIaD8H9Kbwv4c8m51qZP3cH3ltlP/AC1m/wDZV/jr4g8ffFHT9GvLrWPEWrpqWtX1y0rzfelmY/3v8/JX5bxpmn1issNB6R1fqfrPBeTzw+FeIa1lt6Lc4a2/4TPx3c/arqzkSHe3kRyXG1f95t38NdL/AGJ4Y8P+XdX9xDfzQw/uP3n7pP723+/X5zJe/eZ+gSlyx5IFtNH8VeILCGW/uEs9Kfy0knkjX/gSr/fpsusaP4Ts5IfC9m9tDbKqT3d58zOo+XatFusvkc/NeXLEp6J4V1vxBMt/9seGF3XzJ9Qj2s7n+6tO1LxD4b8HwyReGLNLy8+Z7i68vd1rJRcY87HL3nyo4+8vLnxpftLfxzXNzJt8iOP7sP8Atbf7zVt6V4PezRr/AF64tvub5LW3/wDim/8AQauL5nzFtcpneOfi1pPhe2b7BcWyQwo37vzPl/4FXk2pePPiX8YdShtfDlhc/YJHbz7qSPaqL/u10RVrmcuaO513hj4OaJp6LdeKJE1KbZ+7gjk3L/wKu2sNNS4hjiis0RE/4CqVyuUpbHTH3TVg02z0uFrr7H52zb5kn3VT/gTffqa8hS8hWWLYjun/AHxSlDqiIv3rsghT9y1pa3G9F2+fPH/G1ZGveJ7bQ/8AiV2v+u2b/Lj/APQmb+Cp5WKT944mbxVf+KLxjoMa3k3zJPfR/wCqh/3WrZ8E/CXR45v7Z8Uedeb/APl6uJP/AEGtPhIlLmd0WviL8VNH8B6athDcfvkRvstjb/61/wDe/uV5df6V46+LF4t14tke2tvM3x2Mf+qT/gVK32ipPkjyndeFvhd4b0v97dae9giJv/eSfL/vVR+IXxIsNG01ovDkiIk22KOe3j+aZv8AZ/ioivaGcvcjzFPwB4b8SSPH4j17S0s5n+SOxt5PMZ/+um77lP1jxVeWcMml6NI+qalczeVJ5f8Ax62Hz/8AkZqfuqxMVaPMzl9b8If2Pqrf8JHcJc3k0O/zJJP9d/tN/cX/AGKytY17w94X01rC18mGabb5Fjb/AHv96Rqf8SWmxp9nmKOmxalqj/2prN4n2OHb/oscf718/L/lK09e8W+Hvh3NHFo0aTarcp+4sZP+WK/7S/wKtdElzvkiZ/Crsyvg58K/ij+1Z8RWtbDT/t9tpu559SuP3dnZr/z13fdSv0F/Zw/Zm8Cfs9wxxafb/wBsa8mms8muXH8DP/Daq33Fb+J/v19FluFjTtWqdNl5nh4/FOrehHruz0TStS0+PSF+yv5zvueCPzPuf7LVS1K71jVLOO/sNcWH/rn8v/oVdVWalHfpqZ0/3XTXoVrANrCXX2rUPO8nb5n95P8Aa+Wls4U3tf6pePDDC+yT+L7Sv8NYx96KaNpVJSk422LqSPriWuoapZ/6NvZJI5I9uxh8yt/sUmt6DqWuWDXVhJ5MNmjS/vP4H/h3f391ejTjKVOyPJlKMJXfcZc+TJpbHVLfyd7xvayW/wDH/vf3K82+PH7SXhv4Po1rayJqWvOn7iCOT5U/2mqan7vlNqb5ouTPkXxX4u8bfEjXpPEfijVHmmmf/gKf7K1XttCeTb5sj151SfK7BG85c3c/KeGzsLeH90lVbyZwi+U+z/ppXvR+I8+UvdM+8v23/urj7j/6usnVXkvN0XmV2U42sc9SRztzrdz4b1KHWdG1CaG5hffHP5nzJivsX9jb/gpH5k1v4J+I1wkN4ibIZJJNqzf7rfwN/sV2zoylS5+xxxmvacnc/RL9nv432fjWzktdB8aab9pfakej6pcJA14p/hjZvl3f7D16poieHpL9rDWbe/0e/wD+ef8Aq5U/4C3yute9luIfsUpv08j53MsHKNVuKOxs9N+KOn2ay+HPFCaxZ/8APOT73/AlarVt488baf8A8hnwXcp/00t9/wD6DXsqV9WeHy9EXrD432Fu/lX8fz/887y3rf0r4x+DLhPKutHd0f8A1n2eRG/8dalKMJ7hHmWxka94V/Z+8UXP2/StQm0G8f8A5eLe3eBf+BL92uJ8SfDFNLuf3V5DeWz/AOoureTcr/8AxFedUwdM7qeKqcvLIx0+HsMn/LOrdt8PUidcx1nTwtip4o1bDwNb/L/o9bFt4Jtv+feu6lh0jiqYhmnZ+CYf+fetrTfB8Nu6/JXVGnynNUqNnSaVoiR7a6LTbDy60iZcxvWCGOte2m8uqIL0N5VhL/mgBf7SHpT/ALc9A4yD7a/rWV4k8VQaPD5fmfvn/wBXHU8pV0chNr33pf79Vn15N/8ArEpsURUvLy4/1Vu7/wDjtHk3J/1twqf9c/mqDXlRa03wnc6xJ+6093/6aXFdt4V+ESSBZbr5/wDpn91am3Lr36At7dup2Tr4S8D6ZJf6peWyJCm+SSSTbEn+8zV83/tJf8FC/DfhPTJrDwRrMMKbP+QxJ/7br/H/ALz183xFnlPKMJv+8ey7H1nDOQVM2xik1+7i9fM+MtV+LXxC+MGtyReEvtkNrNMzzX15va4mb+L5v9ytzwr4J0HwfMt1r2ofabl9vmeZ8zOxf5d1fik6ksTWu+p+4Spxw9Hkp9EbM0PirxBrC6NoOn/Zod37+SP5V2/9NG/9kqe21Xwl4Tfzf9Hv7902RyR7Gih/h+Vf/Z6ylH3tehzt+67bjftPiHx5frFFZvMiOvmSSXH+io3+6v8AEtal+/hLwnDJf69eQ3l5s/ePJGm1Mfwr/ClQpc3vMmMXtE43xD488SeKIfKsPJs7Z/8AUeXv+f8Au/7VVNK8DX9xN9v1S42LsVPLk+VnX7235f71cspykdahGmXNb1jR/B9str9pW23/ACeRbyfM/wDtSNXlXjn4i+JPGFzJ4X8B2c1zc/8ALOOPftT/AD/fetaeu5MuaQeEv2eEiv4/EfxV1x7y5R99rptvJ8qYr0zSra5uLWOwsNLSztUf/j3t/wCOtKlRzlZFcsYtnSaV4YtLeHypbdNz/wCs/iq/bWFnbp5cUbv8++PzJP8Ax3/dpfAZylzlbUryHUEa1ij3p9yST/P8NZ032O4h8uK42Qp/yzjk+/8A/Y1nJ8wo+4jjfFXxUWS5/svwvJbbLZ/38/lu2/8AvLDt/wBdJXO/2DrHjS5jsLrT3SH5X/sqOT/SLnP8VxL/AAL/ALFN+7sTOV42PQtK8N6P4T0pYr+zh+Ta8djb/LEmK4Xxn8ZtV8QalNo3gOP7S8L7JL63j3RQt/dj/gdqhmlGNtzI8K/DS5uNS/t7Xo3mfZ+8e4+Znb+JtzV215qXh7wPbW8uqXn2ZEj/AHFjb7N03+f71J+/Kwpe97zOGv8A4u3PijW47CKT/Q0RpZLWOPd52fur/ttVmZ9St3XXrXw/Z6bYW0Oye6vI90rsf+ef+1WjioxcUYayfL0Oc8YfF3XdPs4fDlh4fdLaZ/3drZ71luf9qRv7v+xUGiWHj/WJrW68W6glnZon2iSCO4WNUVfus23+JaJL93ZblfFNLoVvFXxUs9Q26D8JbNdSvG+fUtcuPmihX/pnu/8AQ6ueAPhW9vD/AGp4j1D7Nc3LySyT/wDLV/7rLu+5W0Y/V6atuxyftJW6HKfFH4qWGh3Nxo3w5j+2XNm+yfVZJP8AR7Zn/u/89pK7z9lr9gPxb8VJrX4l/GmS50Hw3f3i+X9s3/b9V+f+FW+5H/v162W4P2svLqefmGKhRStv0P0C8PeCfCHwv8H2Pgfwl4Th03R0uWSO1s/vTN/ekb+Nv9+ryJe6H4p1K/0u4SZLy5V7WP7yw5T5lX/gdfQVpRjp2skeNh6cuTmb3uNdNK0+582XT5n3ozpP/C7VkTaJrd5M0v2h/J3/AOf+A15+IWnLE7cPy/FI1rbR7Tw/Cvmx73d/9RH71VhSz1S5kuvEdx9j2IySR+XuWGtKdOMUkZVJyldx3LGmpqtxpTS22oI9sj708yP/AF2P4mrUl8Qw28LRf2gk0exfI/uov+1XpUajpW1POqRUpWsfPXx+/a0ttDhuvB3w5uEmv/mSfUo/9VD/ALK18u39zeapeSX1/cPNNM++SST5mdq8utilKrzM6pUWqfKi7pSJ8ua1ovJj215eIxHMzoo0eWJ+PX2x7dPK+zu71n3NzbR7pbq4dt//AEz+5X20Y6nzsn7pnpc3GoTN9lt02J/y0/iSoLqzv40aL99s/wCWnl10c1rGMjmNd0r/AJ5R7/8ArpWHcw/Z3/dff+X/AFdeph6ilC3c8+rGUZeh6r8HP20viF8J5odL17drGmwuvl+ZJ+/hx/db+Ovu79nn/gpjY+O9Lt9Gj8aPeQw/8uNxcfv7b/gLfNXPiKNXD3nTfu9fI6KcqdZckviPrP4Xftpabshli1yF/wDpnJJ81e8+Bv2qfCWtosV/cJ8//TSvUy7N48vJUPBzHKZQlzw2PQ7PxD8PfFkK/wDHtco//PTZSXPgP4b3D/8AIPhhZ/8AgNfSRlTqbHzco1KO46H4UeG/+XW9vI/+udxup8Pwohj/ANVrD/8AbS3olTiwjVlzXkSJ8NLyN/8Aj4tnj/4GtJeeHH0qfy7q3/7aVn7MPaElpptn/wA860rPTbatIkuSZpW2mpWlbWEPStY+8Z3L1tbIDV+2RI6UTMvWz1chuaoCdLp8ZqaF5pOaALUNs8lXrbTXoHGJneJ9U/sdPskUe+5f/ln/AHK46fw9qWqTNdXUd5M7/wDLT7tTzFcqHf8ACJQx/wCt09N//fVXbLwreSf8etht/wCmn3aUhpGpYeA7y4f97In/AKFXQ6V8PdKs9st1s3/9NKQ+Vmnf634M8H2DX+q6hDDDGnzz3EiRxf8Aj1eQ/Ff9u3wT4XsJovCWy/dP+W8knkWqf8C/jr5/Os+weT4dzm/feyPp8g4fxmdV1CCtBbs+M/jr+2r4/wDihf8A9l2F5/bEzv8AuLWP5beH/gK/L8v+3XH+G/hJqviiZfFvxk1x3d/ngtY49sSf99ffavw/MMzxGZYiVWq9/wAD90wWW4fK8IqNJbL7zsk1C2j22HheD5H/AHUfl/61/wD4itnRPDem+G7BbrxlqiPcw7fLtfu78/dVqjD2k0+xOIlJax6lHxhrHirVJl0vRrfZs+eO10+P5UU/3v77VEmjw6XZRy+LZUd3/wCXW3jRm3f8BoxXx6dDGg9FfcyNV+OSx3MmjeHNiR7FSOOP+D+H5qTQfBM3iRF1TXrx3T78klx/B/wGvOc+Z2R2Rh7PVG5c+J/BPg+H91KibP8AWTySffri/Gfxb8Q6pJJYeDdPR3f5I5P+Wv8A3z/BVucYhGnLqc9D8N9S1SZdZ+I3ii6R3dnjsbf73/Am/grrNEtprOH+y/CWjw20P/LT7P8Ax/7zUc3NsbS5YxOm8PeBryS8kurrem9/3nmfe4/u/wBxa6ZNNsNP22sUab5n2R+XHuX/AIE38FaxSUeY4Zycmye5eGP91EU//VWJqVzNcI1ra/cd/wB5J/fpz94I+6Y2sarYeH7Ka/1mdFh/5aRx/wAbH+Ff77f7Fchfaz4q8cJNDLo/9m6V9yC1jk2y3Lf3pP7i/wCxWduUuXvRNTw34Mij3XVrZ2yO8ipJdfwpj+GP+/WpqviHwr8O9Hkl+4nzfvI490ty3+yv3nal8O5KjeR5F4h8SeLfiw7WsUlzYaPv2eRH/wAfE2f4mb/2Sut8H/DhPD5hM1u6IiL5kEkaLvx/dVazl8JfNz7Gpr3iRNHhh0bQY7e5dvk/dyIsUOPvMq/xtXE+NvAdzcX7X+qapM7zTK/l28m6WZT91d33UjrSPux5jOfve6izYaVB4TmtZdBs7aa5eFng023+XZ/tNL/ArVhJrPjDxJcx3Xi28S5uUdkgS3+WKH5/uwr/AOhPRT5opyZekY8vUnudH0rwmi+JPFpmt0uZm/dyfNcXLD+Ff4n2/wBxK5nxDYeKvihqsel2HhdtN0q5k/49fM3S3K/9NGb+L/Y+4lbRhaTmxfDFLqdNbJ4Y+Fdqv+kWH+hpvvv7QuE+y2H+38v+uk/upXnXiTx548+NHiFfC/hz+2Lm2vH2Wuj6HZ+Xeakv95mb/Ux1th6brVlfoYTl7KmfVP7MH/BO7TfAdta/EH40x215r1s++x8P2/7yw0r/AGm/5+JP/Z6+pbDw9rEn2yPVLiGaG8tt8cHmbVRt+7cu77i19Vh4LDU/ZrfqeBUlHEVFUe3Qlv8AW31hIfKkhS2f91fTx/MqN/d/2P8AZeqzvc3kMOl2uhw7/Oby/wC66/dZqmVSU9+tkhqnGPu32ua9y+j6HDHqF/f73Xanl+Z8kK/3VrmpfiE+r6k2l6DGiJ/z0uKxrS15YnRh6T5XKRoabc/u5rrVLj/Y8+4/9lqR5JtceP8AtS4mhsIU/dx+Xu/8erenOMoKJz1IyjK8dzJ8Q+IdH8N6bcapqmqJbWFtH/pV1J8v/Av96vlr45ftUan4wmuPC/w5kms9HZ9kl192W5/+IWuTHYqNOKpp6mtKlKUXKx49NcyxlqLZ4f8Alr9+vLnKVSGhUfd1ZctrzvVh9SSMKPMpQp80jSUuWJ+RVtZvI/2X/wAife+WnpYQxzSeVvd9n7yOvvZSPlYoc9snkLD/AMs/+ecf8dVr+H/Q2i8v5N9Zxn7xUonIa/Cmz/W1xmqzbHaKKOvYwcubc4cTGyMya2uZN3m1WE97pdyt9YTvbzQ/6ua3k2sn/Aq9anaR50tJM9S+GP7bXxe+H7x2uoXC61bp/wA/km2VP92Ra+m/g/8A8FOfCdx5drrGuXOizf3NQ/1W7/eWvNxmWSUuaiztoYyNWPs6p9S/C79vB7y2jutG1iG8h2f6yzvNy/8Ajte8fD39v/8A1cWqap8j/wCs8z5q58HmuIwsuSRni8no4iPunrngn9tjwNrO2K6jRH/56W8m2vSvD37Q/gbWNv2XxZND/wBdPmr6jD5tSqRu3Y+XxeU1qErWudfpXj+z1RF+weLLCb/rpWtczXmqWyw+ZbTf9NI5K9KnVpz2Z5kqNRfEiC20e/j/AOXZ/wDv3VyHTbmtJX6GcrIu21pc1chtrmhGe5dtobn1SrsMM3+xWnLzC5VEtQo/arcKUElyGaHr5iU/7fDH1uEoH7xZh8SWFvx9o/8AIdT/APCbQon7rfU2tuP4bFG81s3k/meZ5O//AL6qNL9JH/e73/6aSSVL93yH9pW1LcN/YW//AC0RKTVfiF4M8N2zXWqapDCkafvJLy4SNf8Ax6s6k40YtyehvTo1KklGMdTyX4hf8FL/ANnL4fu2jWHjD+2L/wD5Z6b4ft/tMv8A3191K8u17/goX8V/iBC0Xw58Hw6DDs/4/tY/f3Gz/d+6lfE59xhQwcXSw/xdz9CyHgmtipKpitI9jxr4l/tD38k32/xH4wvPEmqv/qEuJNy7v7sar8tcbo/g/wCKnx0v/N8ZapNp+m7/APj1+623/wBBSvyHHY7EY6o51ndtn69g8Hh8to8lFWSR6Xo/hvwH8L4Y9G8OafDNcoi/vJPm2Y/2mo/sHxD4vv21nXr17O2Td+8uPlX/AID/ALtcnZBKWl5C3ni1PD+7S/CNvCnkptk1KT/Wv/e2/wC9/DVvwT4Sv9Y1X+1PFFx5ML/PJPJH+9mU/wDoFd2FXPUUTgrcsYuZ0fxI8baD4L0GaXRtLSF3TZHJ5nzO3+83/odeQppvir4max9q+2TQo6bI4/u7F/vLWmY6VOVGeBjePMyz/wAI94P+H6NLdSedMi/u/wCL5v8AZrmrv4u6lrmqt4b8ORvc7Hb9xZ/dhX737xv7395K8vltBnpx/eNHAfF342aD8OoVute0PVb+bztkkdnbptdgu77zfw1r/CL9qXwx8RdH/svwR8P9Ys7lEV7qD+z9u9j/ANNa3jg5fV/aXHKrHm5T1XRNHTet/rO+aZvn8uT5VSun0pHjf/Vwvs/1cdvH8v8AwJv71ZwjynNUfMaj63Z72sJf9cn/ACwjk3Mn+9tq4msQ26eb5Xlps/5afL81bRd73MeXliZ9zcvqkLf8utsn/LSSSuU8SeM0t5l0bw5G9/eTJ/q7f+D+H5v7i/7dO7KijCtrCaO/W5164TUtSf8A5Yfeitv9mFf42roNH8K/6y68R3Hk7/8Al1+8zsfm3N/8RWROsjA+IvxmttDuW8OeHLeF7lE8ryI/mWH/AK6bf/QK5TTfAGr+LdY/t7xRqk01zNCssEce/wCRh/D/AHf+AJSlJXNGuWNkdXDZ/wDCOWEl9qlz5MKf8t5JPmdv7q/36wNS8darrnk2GjaW8NhNM3/XW5Ufe8xm+4tKMPduJtRVyOz0S/uJo9Ql1iw/1LTeXZx+X5LL93c38arWP45+KnhjwnHHpfhy4eaaZGSTWPL8/wD3vLi/9Bd6cY+0qWWyIj7sbmf4A0rxDrmpQ/8AE41iG2ebfHJcSL9ouW/6aM33I1/uV2HiHxnp3hO8+waDJDqusf6qSeSRGis8/wB5v42/2Erp5eaXKgUteZnKpYX+qeJ5tZ1nXEv7/Zv/ALSvJNuxf7ir/Av+wla2ovbaPps1r9nmv7lEVp47OTy5dv8AdZv+WK/+P1N5VKnKttEEdKd5eozR/wBjD46/FzwNqnxL/wCEHmTTdE0e41DStDt/liv5YU8xYIVb5ppJP7719k/s2fs9/DH4V/DS3i8JeH7n+0te02G41zUtQ+a8eWaJGaBm/gVfubEr67A5fHB0VVrLVrQ+ZxmYxxVb2VHZNXPRbOH7H5kvyNDYbf3Hmf8Ajq1ka545trPzLWK3+Tzv9ZH8yv8AP91v/iKcqigtOxUaaqMz3h8Sa5NeWtrcW0O+SPzLqONPKe33/Msir99v4Feti/17TfD7/YNLt3uZk+fy/wC4v3V3Vj7SWsmbezjzFeHw3/bEyy6nKs0yTb5JLeR18mp9budHs5Y7XQdLR7lX2favs+5aupFeyb6smlOp7TmZUvIW09IdZ1mTzt7t/rI/m4/55qtcj8YPjdoPwr0RbrX9Q/5Y/wCg6bHJ8zt/d2/+z1nKX1ejd9iofvqiZ8i/FH42eMPixf8A/E0vHhsE/wBRpscn7pP9pv77VzGyP/npXyeIxDxGIcmetTpqNKxWvHSNGrN+0/PXrYWLlA8nEy5Zl+zvPMSraP59bxSjMzk24n5WJYfZ9sXlp/10qSFDvbNvsr62UjxYxGXk3/TT5/8AnpWTqV4Y0aL+P5qIr3ipHN3OiXOoP9qu96R/9NKydV0SzihYRW6b/wDnpXZTqcstDllRdRHM6lC/nNFElZlzpTybvNKV7dCpZHnzp+8zOuIVRsRJVaaCQv8Avfkr0IuPLc8+pTZb0fxLr/hi6W+8O65eWM38MlpcMv8A6DXpHgz9tT47eFWjjk15NUhj/g1CHc3/AH0tZYjBUMVH31Y0o4urh5WjqeveBv8Agp1f6eY/+Eo8ETI//PbT7zd/461e0+AP+Cpnwqk8uKXxnf6a3y/u7y3dVT/vndXgVMpxVB81J3PUhj6FTSorHu/w9/4KKeCdU2/2X8UNKm/7iCLXtHgz9uS5uP3th4kSZP8Anpb3m7/0GopYrGYf4rhWwGFxFO8bHpnhz9uHV44183WPuffj8yu78PftyXEn7qXyX/7aV6lDOKi3PKrZHT6HV6b+2fDJxLZp/wBs5K27D9rezuEx9j2V6tLNEzyq2Typ7GrYftP6bcf6qN/+/daMP7RWmyc12U8amcM8ukidPj/ZyJ/rJI6m/wCF5ReYvlXH/XSt/rRl9TkS/wDC6bOQ8Xn/AJEp6fFdJEaXzKX1qPcX1Op2Kl/8cvDGj7pdU8UWFt/18XiRf+hPXJa3+3h+z34X3f2z8ZNE3p/yzt7zzP8A0XurCtmWFo/Gzsw+T4ytb2aOI1//AIKvfs8af+60G81LWHR/+XOz+Xd/vNtrjNb/AOCteq6g7Wvgj4b/AD/8s5NQvP8A2Va+dx3FVKj/AA9T6bL+DalRr2uh5v8AEL/gpT8bI4Wm1nxgln5yfu9N8P2/zf8AfXzV5FN4z+PH7RGtw3XijXLyHR96/uPtjsz5/vV8Xjs8xWIu5ysj77LcjwWBsqMdT03QbT4dfA/R2ludj3Lpvkj+Tdx/eb+Crem+J/Hnxgh+weErN7Cwuf8Al+8v5nX/AKZr/d/23r4zEVpSk5bn1VGmoRXMd34G+C2j+DLZdZv/AJ/45PM/eyv/AL26uvu7q81h10vQbd/JRf3lrbx7Wf8A3mrifLfTdlVKjlLXZIsW1noPhe2t7rWZPtNyk2+Oxt5N0SMf7zfxtVR9S1vxpefYIv329/8AWSR7YkX/AOKq/sqJyy7yNu00rwl4ff8AtTWXtprnyf3f2j5Yk/3arXPiS8vP3dhbzb5vufxNXrYOHLFM4K15FebwHbXKNqni28R9n+rj+9sy/wDtVzfjn4mab4P02b+wdLSaFNyfu5Pmmb+7/t1jif4nMzej8HKjgtK8GeMPiQnm6zcfYLCbb58nmbf+A7v/AGRK7HRPDfhL4b6UujaDo+/5P9Z5e5pm/wBqvOm/dZ2L4nY5/wAbeGNV+IlhJpes6XZ/Y5vkkg+zo3/fTVR+Hvhf/hX7tYaNJbwwon7yT72z/ZX+/RGdTl5bilyc3MdpbxTeJHW68yZ4f+W8/wDE/wDs13Nh4eWTTVtZbj7Grp+8/vVtTfMc9T3TM8N+DPAfwvtptL8EeG4bN7maS4u/LkdpZpT95pGaqfiHXrPR4ZNUv71HdPnk8yTaqK1VUabdhQ95HGeJPH9zqEP2q6uP7PsE2+R9oj2y3P8A1zi/9neqmkf8JJ4sufsvhyB9E0rfsnu/L3S3P+8395qVynob9tbaP4HsJNQurz7NDCi+fqV5Julf/wCI/wDQ64XxJ8TvE/jy5msPBtpc6bpSfJPqUny3Fyn92Nf4F/26gr3YkvgD4aWemTR/YI0f7zxyXH7v/wAeb5t1bnjPx/4Y8HzNpctwl/c2yfvILeTcqf8AXRl/h/2KwpQdSWpKlyx5mcH/AMLF8YeKNSjl/wCEPfzv+fq8+WKFf4fLipuq+Fbmzb+2fG/izUpN0zSxwRx7pZsf7P8Ad/8AHK1lL3uUyjFyfMcxqV/4kvHWKON/sE02+102O4+ab/akZfv7f7n3Kk0HRNK8P+d4j8W6hC7zf98/8B/v1svhtDdjj71S5Ym8f6rql/HF4c0P9yjb7q1kk8hpl/h8xm/1Mf8Ae/jp9hef2X4kkuoo0mufM/efZ5N1rZqf+eat9z/gddMY+xp+Zjze0lY6D4b/AA6+Knxzmvovhfpdsmm6VuuL7xjqG9re2x/Grf8ALWT+6iV9T/sZ/sl+Ev8AhW+j/Eb4q3OpalfzJ9rg0rUJNrOu/wCWWZfl+9/cf7lfUZHkPM41sT8O583nWc+zi6NDWWx9JrqV5rlzDp+lp9mhjRk/1flttPy7F/uLWPeG5tz5VqX+zzJt86OT5tw/hX++1ejmWKeKmmvhWxx5bh44SDjL4na5wOteIPEmoTN5ulvZ2cL+VJH5e37Su/8A1v8A7JWn4f8ACtzqmmWviPXdH+wQ/Y/KutK+0bt/z7t+6vIpxrXdz3JypxhGw/SvG2ieJPEV98PvM2PDpv2iCCONI/tkRfa3kt/Htf71X9H022juZvtUf+hpDHF/pH3to+6q/wB+qi41IqS7mNZShUcPIdczXOoXUdrpcnk23yrH/Cz4/vNUr2lnpcKy3X+u3s8ccf8AHSl1fRBHmeiPKf2hP2sfDfwz8PX3hLyIdS168h2Wtp/z4f7TN/A1fGXifxbr3jDW5Ne8UaxNeXM3/LST+D/ZWvPx83WjGMehpR/duTfcz/7ShjqRNS+T91XmU8FzS5zoniOVWCbN5UX2avYw9PkgebWlzyDZ5f8AqqkS5eM/uqzlTfOVGpHkPzWms0jT+49ZFzfoZlitfnd3/wCA19NBupuebP3Sm+j3946/apPJTd/q6l+x21u/7qOtZS5Y6GfKZGt75HaKLfM9YV5on2gebdSf9s46KUrahJGXeabbRp5X2dP+udY9z4bvLiFpfL8lEr0sPiOVXkzlqUzFv9Kis38sffrIvNMmD5r2sPV5tzy6lNlWawSNah2HHlwj5q7oy5tzjnTHJZzSf62neSsaUc3MTy824RoZB9ytTRtZ8Q6VJ5uma/fWf+3b3jrUT9nJWaNKcpR6nV6F+0L8a/Dm3+wfi1r0f/cQdv8A0Kuz0D9tj9q3S3aW1+Ld4/8A18W6NXnVsLhpayR2QxNY6jSv+ClP7WGlyfuvHNneP/z0uNPSuq0r/gqh+11Z26xX+r6JsTb/AMw/b0rneHpxNo4qT3Oq0T/gq5+2Tqk0cVrcaV/0zj+xv8//AHy9dRD/AMFU/wBpnS0WK+1zR3uXT5LWzs//AEY1c0qlanK0GaRjTqbohT/grX+2SP3UXiDRbZE/6he7/wBCpLn/AIKoftmXG3yvihDbN837uz0eJetOWIxHLuEaNDsZ1/8A8FCP2zPEn/NeNYhR/wDlnb7F/wDQUqu/7Q/7QPix2Os/GjxPePs/1f8AbEtctbFVu510cPTjayJv7b1vVHWXWdcvL/8AjkjkvHbZ/vbq6Dw9dJbuv7vztm39zH7149as53uz26MYxtodfc6lYaei3Ws3kMKf8s445Pmq3ompeOfHEy6N8PoHs7N9qT333mdT/wCh15tSSjHnkenTvzWjuereC/gnongvTZNU+IPiB33f66SST5nX/Z/+wrvU8SX8elrYfD7wn9js3/1ckkm1n/2v9ha+dxmIdSp5Ht4enyR0NTwH8BLnXL9fGXxBvHmhSbfawXEe2L/e2/x/8Dr2DR7zStCtll0G3RE/573H3a82pK9jrlsbGm+G7mR/7Z8R3jww/wDTT/Wuv+ytWrnxb/oDWvhy3/s2wj/5af8ALWapj+7i5HM/3j5XsQ23ga51hPtWqXj2cO/f5cknzP8A71TzeIdN0O2bw54cs0m+f/ln/wChM1bUY8yuZylzPl6IuaP4S8Q+JH+3ap5Lp/1z+VFH91a6C5tvDvheHzfvu/8Az0k+Z/8A7GvcpxjTpHn1pc1RJHn/AIz8Q3OqbYovMe5kkZYI4/8A2ZVrIs/ASWb/ANqeMvJvLlPngtf4YV/2tv8A6BXl4iV5M9ClG0UWn1u/1Dd/o7okK/u/3f8ACP7q1ZsH0u3gbzf9c6b5I5Pll/4F/crlgnzXNJyKd3K+op5Plun/ADzjjj3L/wAB/v03QfAyahftLFp6O+xUn/h+X+6zU/tXM/snYaPpWm6Hbeb8m9P++U/3aZqXiGGSz82K88mF/wDlp/E/+7Vxly6GfxSOU1LxbbWcM1hoMezYjPJJJJ9xf4mkb+CuKvPE+lagYZfDn/E+v3/49f8AR/8AR/8AehVvv/8AXV6EVfluS6J8Lrm8v1v/AIg3jzX6fvfsscj+VbZ/vN/eroPE/wAUdL8F6bHYXV5bI6IqWtjbybWRf/ZF/wDH6KkuXRAo83vM4LXptb8YXlvf6zrEKQwzM8drHbu0SJ/DtX+Nq0LO80rQ0+1X9wsMMMP/AAJ2P/szVk5c0rIqKv7zKj/FS21yGTS4pfJhhT95HH81w/8A3zu2f7NYc01/I66XothJZ21tJvnnkj2/5/4HVv8Adp2IfvPyILzxn9n23Wg3lsk1y+yS+vJHZU/65r/G3+19yjwxBNqH2z7fp9zNNfv/AMf2qXHmfL/tL/6ClEY8tG/VkuXNLk6GbMiaWkmg+HNLfVbyPc8nmSbf+/jfwf7lRP4Z1uO882/t3uZtn7z/AEf/AI9l/uxr/B/s/wAddmHi7c7M6zWyNubR3+xray6Hc7P+WFjH958/7v8AE1e+fB/9i3R/EHh6O6+N1nMlnNtuJPDmlyeR/u/aJfvOv+xX0+S5bHMMRzSWkd/Nnzmc5lLL6PLHeW3kj6c8PaJoPgvRLPRbXQ4bC2eH7PY6Ppdn5auo+7tX+CNf4d9bum6RNHNa2t/b28MMKb7WCOTdsz95mb+Nq9/NMVGNsNDbS54eWYWU74mpvrYu+JNe03wnDdRC4/0xIVeOP73/AAKvNtS1tPFmpTWv9x4/LtY5Nsry/wB2Nf7v8e+vBxNSPNyR6H0WDhKMPaS3Z21t4esdP8Kr/wAJHJ+5R1mjj+984/vbv4qzPEP9q+KLlopbPydNs9rf9ds/3f7+6tK0ZcipLd2OejJazltd2MWbw94b8L+KtLllkf7YmmzJBax/e8ovu3N/sq9XraGTVP8AiaX95vuXuf3EdvvVYVP95a5I8sZ8i6M7JN1LSfVFbxJ45h8LwtaxXiJMifv55I9vkr/eWvmj9or9tt7iGbwl8L9Q86bf+/1yP7qf3lj/APi65MTiXFuPY2hSioqXc+e4bm51S5kv7+4eaab55JLiTczt/eZqgvKxwtTmjqc9Ve8UpsR7jmi2uWjr0YRUrJHG5Wlctpc848ynfa/+WXmV108PI5alaKdh6TJsX97VyFE3/vZK6KeFjKRzyxPKj81P+Ee1jVP3t/I8Pz/6iP8A9mqSHQUs9sVrb7ET/lpW8ai6G/s3MoX6JGn+3/zzqrDpT3n7y5k2Jv8A++6fNyrUco2C80c29s3lW+z/AJ6VgXmlXlxN5UVvsT7/AJlSpWdxNFG50GHTt0ssez/pp/FWbNYXmqP5VjHsj/56SVtTrfakRUiUpvB9tH/rfn/6aVjXnh1JH8qxTztn/LOOvSoYvmOWpRRk3/gm/jdjfxun3dkfl1nz+HprNG81PJSvWp4tT0R5s6BQe2eR/wDRY5H/AOmlImiXkj+bLHXX7WMTmdHm2FSFLfny/nqW20u8vHb938lKVSMVcfs7FoWdnZusUSfaZv8Ax2rkOiX+oJ5t19z/AJ51zyqxj70jSnRRf03w3c3CLFY2+9/ueZ/DXY2nwxt9ARbvxlf+TNs3R2P3rh/+A/wf8DrzcRiEtjppUJFubUHkh+waLZ/YLfZskjjk3Sv/ALzVBa2iW6LLLJsSuXmWyZ1ezkti7bW1/eTeXFHsT7n7z5mf/wCIrW03wlqUkym6/uf6uP71ZTrRtubwovsdbpXhiaJP9Pt9ju37uCP7z5rptN02w0+ZYpY3f59nkW//AKDXmTq+Z6FKjGNrnW6VoOpSWbf2p/o0PmbPL8xFq7ba35lzDoPgjw/NczP/AMvUcf8Aqa86pU5rnpQp7WPQPh7+zB4kvLmPxH43+e2d98kcn8H+yq16xZ6x4f8AB9nJoPg3R0mudmzz44/NX/drxMVinXqWj8J62Fo+zjzPcufD3wN45+IHiT7fqE9y7p/rI5Puw4/3vlda9k03w34e8FusUUk2q6lv/dwfwpmvMxElN6bHoUm4x1Og0d/E/jDbYf2W+xEbz/M/1ULf738f/AK3LPVfD3hfy7qXTkuryH5I5NQ+6jf3Y1rmtsaOfulfSrDx/wDES8mlv96Jv/eT/wBxf9lf7tdbb22keB7ZovL+2TIn7yT71VGPtHfoYyf2UUIdS1jxZc/ZdPt/km/1knl7m/8AiUWux8PeCdK0yz+1apHD8n/LP+H/AIF/fr1MNR6nJWrKMeVdR+u+MNNjhaKwvEf/AJ5/u/lT/wCLrkbabxD4ouZPLjRLNPk+1fe/3v8AfratN2Io0+W0mFz9g8PpJFpcbvM/+snk+9/n/YrLuXs7K2+1azcom/8A5Z/7NeTUlebOyLtFGbc+KoftP2W1s4f+mlUX1IXl55Wl2/7nf+7/APimp8y5bjt3Ol0HQvMm/wBP3pv/AOmnzf8A7Nbb/wBnaft82SFHh/1fl/dSp+zcz+yYniHxPFGkksVwjuib5I/4f97/AHq878YeP4Y7aS61S4S2+T935n+tm/2VX+7/ALdRG8pmvLyxucU/iS88aI1r5SW2lQp+8g8x/srsP4pP4ruT/Y+5XR6Dd2HhdJteurh4XRFeS6uLjazqPu7v4UX/AGKqUuhNOPNcz7/436x4wv2tdBTY+z/j+8v5uf4lX/2d6n03R9K1S2hsJbPznSZprqeT+Nv9pm+/VS0jYq/N7qDXvFXh7wuk1rYf6Tcwp8nmXG2KFf8AaavPfEmpXPii/kiuriZ3/wCWflx7f97av8FVTp+zjzMzqSv7qLOmaroPw3hW68RyfY/u/Z7W3+Zpm/2qqax428RfFe/s9B0u4SHTYZleS1t49y8/89P77VVOPM3NmbfL7h0MXh6w0OGTXvEdw7vC+/z7yT5nb/ZVat3OoeKvGjrFa2cOj6UifvJJP3d08Q+98v8AAv8A4/Wijza9EDly+p1fhKz0fT7BYtF0LfCqb45PM278/wDLVt3/AKG9WfBj6r8R9ek8OfDnS3vHhf8A07Ure33Wtt/eZmX77V30Ye2qRpo4K0nSpykz6l+BX7L1n4Xmt7qK3hv9em3eZfSR7YrNdn3v9ha9kvLDwf4b8PSWulyfb9Sdv3l1H/eHy7f92v0mn9WyvLuWO9tPNnwEoYjNMyUpfDfXyRlaVp0xS41jU5GeGabfvkk+d2C/dVqp3PjSws7NtLsbjznm+eDy/m+zIP7v/wAX9yvkZVZXcp7yPrqdKLjyx2jYx9P01PGGpf2nc3F5Ml5t/wBXJ/c/hkZq6KFPCXhd47+X/XO/lQTyRpuRj91Vop8lOPtJdSqnPOXLHZFbzvEXiiBf7a0t7aF5tklp8km/H3fmj/hqRNSTT7xdL0GN/tKJs8vy90VtW0uaGr3djGKhOWnwpFGb4e3N54vtfFuqXiPss2t/Mkk3edvfc33v/Haw/jH4y0rwPolxfy+MLPwxZ2D7o5LizSf7T8n93/2SuSpRlRi5Pds2hWVRprZI+GPjx+1F8QvjBeSWF1eJa2CfL5FnvjW5UfxNu/vf3K83s4Zrh/3pryK0lOTl3NLy5VHsbltMlvD5VR3NylYRnyyshyjeJn3V5D/z02VXS8TeuK9TC171EcmIp8sR9zrH2dPufPVC/wDElz/rYvkr7PDxhKlc+WxEpRq2IodbvJK0LbUrz/npWPNThI15OeJ8WW1/pUifvZPk/wCWf/xNR3+mvqn7qLYiP/yz+61ea3ySbZ9BGN4qxDc+BodPh8262J/0zkqg+lXkjtFa27/9dJPvPS9rz79CZUX0FufDD29nJLf7P+2ny1zt/wCdcTeXpcfmfJ/yzj/9mq4+9qzCqpLRGdD4G164dpdZjR3/APHaoaolhpb/AGC1j86ZE/1EfzUa1JW6ERUoK7M+HRbm/vfK12Nkh2t5cFvJt+b+Hc1SJoVvZ2uIrRIU/wCe/wB5tv8As1tKpy+5Ey5eb3jHu282ZorG3Znf/lp95qp3HgP7ZMt1fwO9dNPE/V/eI9lzOxBeeDNKt/8AVW+x0/6aVW/4QPVtY4tbfZCv/LT+F664473VKZjLD392JDc+DrHR2aP/AI+bj/vqnW/gzUtTTyvs8yps3yVq8dzR52Q8MXtK8GQ7/sthZvM//TP7qV2Om/Be4s9Pt9Z8eTpYWz/6iOSP55v92L7z/wDoFcVbGu+j1N4YX3TZS5ttHLReCNPez/g+3SbGuv8AgP8Azx/4BWanhK5+a/urh5t77/Mkrj9sdEaIsegpG7RfZ9m9P3ckkf8A6DVzR/hpeSf6ddF0T5f38n3nzUvFRh1L+ruVjodN8B3Nu/lWunvs/wCWkn3mf/d3V1mm+A5rOHzpY0+fa3meZubbXHWxMdUddHDyOu8K/DTVbyGOXS40jh+7JJJ97iugm8JeGNHeGwsLeS81KZv3cdv8yp/tV59bF/Zj8z0qeHdub7jrPB/7NniHxq9vqnjeT7HYfN5djHJtbaP4m216zp3wx+HXwv8ALltdDRry2TfHH5fr/d/vtXi4jHSk+RHqUcLyrnZV1i88c+LGW2sN8NnNu/d+W8f/AAHbXoPgb4P2fh/TbfVPG+qIv7xX8uOPazsE+Xav8C1yymuXlOyNP3rnYw3/AIk1zzPDnhezhsYd6pHPb/Mz/wD2Vb1t8OvDegf8TnxxrFzczP8APBYxyeY3H8O2sY+9LUJS05iLXvE/i/xp9l0HwRbpDbK/7uCzj+ZP9pmWuk8HfByw0OFdZ8Z3n2q5f/lh/Cn/AAKt1TbOd1FTjoad/wCM4dLsGsNAs1+0o6p9l+0bfl/vbqu6b4M1LWPLv9Zt3hh+/HHJJtbmuulh2Y+3sdNbax4e0OwXS9Gs4V+T/ln/AOzNXK+IfGFzezfYIpHuZn+SCCOuiU4xjZEQp80uZkmj+D/L26p4n+d/+fX+H/gX9+tDUrma4RbW1j8mFP8Ann8q/wDjtc0n7vKb/FI5Xxb4h07wvDH+7e5mm+T9391P9pq4fxD4ktrh47q/k/h/dxx//E/3q4KloxsbRXui6P4Sv/EH+lX/AJ1tD/cj+VnX/ars9E8PaPpdmsMVuibP+Wkn8FZWZpKQzV/Gdhpe7yrj5/8Avpq4rxD4h1DVLlbCK4fzpk3/AGWOT5tv95v7i/79D1JieSfHXR/i1rFzb+E/AfxMv4dSd18z+y7f91Zr/st/G3953rD+Ff7DfxEt7z/hI/Fvx0udV86RXkjuLfz9/wDs7vvV6VOvRo4V0+X3n1OWUK1asnfY9e1jwf4S8DwQ2Gv64k00Kb47G3+X/vr/AJ4rWDNYXPjHUmv9Uj/0a2+exsY49tu/+02777f7dedy/aZ1S92PKjsNG8K6JoeiSaprN/bWcP35/L+Xf/wJv4a4vxb4q/tRJItBk/srTd+z7VJ8ssy/3Y/7n+/9+tIxvUu9jKUuVGNZ+G/tltHYWsi21tCjPPPJ83/AtzVNbXmj6eFtdBjmdZP+PrWLiP5f92P/AHv79HPKpO3QUfdjd7lSHw3N4nvFi8yFIXf/AF0ke5pmP+9XQWzpp+3wv4N8Npf36fJJHH8sSMf4pGroUbvkWxLlrzM1LDwfZ+F7xde8W3n9saq6/u4/L+VH/ux/3FqxczW1vN/aniPUIYd777XTY/42P/PNf4/9966JRgo8sUYR55S3N7/hQ3xC+JGlWcus6hdaPol1Mrx6Pp8e64uV/vSN/d/3/wDgEdfWH7OXwif4f+Bo9d8R6Wmj6JDc7bXSrff9qvJfurO275vm/wBuvfyfByjWU2tk3fy7HjZriYezcFq27Jefc9Bjh168hWK1s30qwhVv+JbZyfK+f4pGb77VJYac9pcrql9ssbGFF8uSOT79dWIrVK1Vc3woxwtGnQpvu1r6mTrvjLUvEnmaNoNvut0+T7VHt/cqf/Q2/wBmo9B8HpJ/xMPL8mb7S3nz+X8s2P4v7vzf3Kwt7aak+x0S/c0+VdTUv9e0e3/0DS7NEeGFvM/up/tM3+/WVDbJeXK3P2iHfbbknnuJPlRvusqr92leNSSbM+V048iLOj6lDA7ReHLdIUmhb/Sri38nex+95daukeG4dDuYZfLf7TcTf6v7R9//AGmb+7XRH97ou9kZTlGndP5nkH7QH7TPhX4Pxtba/qEN9qVs7Pa2On/Mu7/Z/wBn/fr4m+M3xv8AHPx08Tt4j8Xaj+7X/j1sY/8AVQr/APFV5uKqXvE6FGPKrdUcelsvSX+CnPcJb7f468mpqVEgfUrmR/Koe8/5Z5pRRfMVnd960138t6qMiZe8Ur+/8xGrPSaaSavoMFj+WnynkYrCe0qXNzRNN+0ba30sLa3T/Wb60qYh1JDp4dU4n53694eufC8DX+s+ILa2RU3+Z88jf8BVa5C2+NGoaJqzRWtw+x9vlyXkfl72P+9XsUMOsVFsc631eSR2Vt8UdSu7ZdUtbNLryU33XmSbpU/3f9mu88GfEbR9csGltbdN/wBz95/e/wBrbXHWwvLC66G8MR7+puab8HPEnxB26p4jkRLbf+7t/wCFP+A/3qb4q8JeBvh2jRTSb7n/AJZwRx7m3f7teeq/NU5UdXsVGnzM4HWPD3iTxfcxxRR/ZrOZ9kcFv/rXqP8A4U5re9tLtdHfZG/7z7PG+58f3mrb20aWhwypzraozb/wYmju1ra27zTf8tPLk/i/2mqingPxBrif8ebps/5Z/dWo9uo6sr6u4+6Q6l4D/wCEXRpb/Yj7P3cf3m/75qunhvW9XX7LYaXJ89KNfmjzMPY8uhN/wrGHw3Ct14jHz/8ALOP+/UP/AAj2sa5M0Vhp721t9z/V/M9H1jnu3sEaPvcsTQs/hSmnzLFNpnmXL/8ALrH9/wD3m/uV2vhb9mDxV4gsP7Z8R+ToulO6p59x8sT/APAv+Wrf7lRLGOT3No4U3f8AhFfB/gfbo3w58P8A2y8RP3msahZoyo3/AEzi+6n++9Y+pfCXxF4gmW6urd7m5f555PM3VySxUYvV6nRDC6EqfC6G33RfZ0mRP9ZJH91Mf7VPm+CN/c3PlWvnIv35Lr+H/gK1l9e3Nlgzd0H4IW2lR/b4tP8A9MSbypJ7j5m/+wWt7RPhXZ3DtdS2zpsm2SeXH6fw1hVxUpdTop4S1js7P4UWeq+TFo2hvM//AC3kk+V93+yrV0F/8PdE8P23/FUbHuYUZPLt/m3r/tNXHPGSaUTsjh4ox7D4e/Ejx5eQ6N4Sjms7BP3UEdxGm51/2f8A7OvdPB/wT+Hvwz0GGXxRZw/afL3/AGjy3aWZv9r+5/uJXPWxHu2j8zanT96/3EuseNtV1hF0fwvo7pDsX/SPse35T/Cv+1VzQfgnreoWdnf+I4932b/V3XmfM+f9qubSK1OqOrOtNz4b0yH7L4ct3mm3/wCs+z/+Pba09N8Aal4kh/tnxbePDbI++Ofy9vy/7v8AG1EacubmCUrRubk2t2elzWujeDbe52IjPJdSRorO3+zT/Dfwi17xRc/294jd7Ozd2ef7R95/++a66eHlN6HHOsua519zqWg/D+GPQfDmhpCjIv8ApEexd9Ziab4h+JDxwy2juifJPB86qmf4t1ejRonLKempv23h7wH8K7Bbq6j+03Kf8tJPm+b/AIFXDfEj4wXOoTeV9t8mFNzyRx/K23+H/frpqWpw5DOEXKXOc/4VtvG3iiFtUl1R7Oweb93dXEe3f/e2r/G1dponie38Hu0ejaXC7v8A6ye4k3XD/wDAv4K82c4UpandGPNGyNvTfE8WoW3mX8kyfeeTzPmrO17x/YafD/xL9kn/AE0rjrVNbm1OPKrnBareXniCbzfI3vv/ANX5n/jzVoeG/BltG/2+X99cv/y0k/g/3a4/elI2jH3Tbv7nTtHtvNupPn+/5f8AFWDf+J5pEkurmT7NZp/rJJJNqov+1V3JjG5gX/jCG8RYdPjdIX/1d9Jb/M//AFzi/wDZ3qHR9Kv/ABxctpfhyzTTbOF/9KvvvSv/AN9ffaqjHuZylY2Lb/hGPh/pskWmXKIibnur64+8+f7zfx1x/i34x+LbiFdL8B6e9sj/AOsvpI/m2/7K/wAFOMuaVm9iuT2cE77mP4e0+8t911dRvNM82/8A0j95vb+8zNXQ6x8QbDwnZrFfx/ab/Zvj0232bv8Aek/uLQ4upWstiX7quzjdY8eX/iiaO61SV7l0TfBaxx+Xbo3/ALPTEtrPfHr3jzWIdj7nggj+9N/sqtby95ciMl7z5yhr3xCfxhcw+HPDnh93tv8AlnY/dX/to38f+5WrZ/2bodm2oeKbhEhT/lhJ/qv7u75q19mqcbdTJS9tO62NXSrN/EkMd/dSPpWiI/8Ax9fdlvF/6Z1u2dxoMds2jeCNPubZIdyWsdvJ8zsfvSt/tVtRjyLUzqy9pKyINW/tW3j/ALG8GyW1/fuyxT31xJuiRv8AdX77V7f+yx+xt4h1C/XxR4o0v+2NY1L/AFceoSf6n+6zL91FX+FK7cDh6mNxUaUUceKxMMHhXNs+ufCXhXQfh/oF54W0fVLa516HbLJfSWe6JJU/hXd9+pJrObxBcyS69IjzTTb4/L/gx/dr7PGclGhHD0umjfn2Pk8H7StiJYiro3svLuU/EnjPRPDaLa6hInnLD/qfvf8AfX9+uIudS8YeJLmP93c21nMi+ZBHInm7W/2fupXz9etKVTkjsj6TD0owXPU7aebNuz8JaLb2EN//AGYjrbfvbGPzNvzfd+ZqcniG5uLD/iVypCiO0Uk8lu+1MfwxrS5uWyQS967fQszWFnpelQy3WsIsKPvn8z/l5x93738VULnUpvECXGl2EexIfnjgt/maZR/e2/L81XKMeZRRnSfu87NhLPTbO/tf9E33jw7I4/4YVX+Jv9la8j/aZ/bS8H/DezuvBHw5kttY8QzQrFdalH81rbf3l3fx/wC4ld0JU8LRdZ+iPNxHNWrKnH1Z8N+NvFGseMNbuPEfiK/e8vLp/wB5PJ/n7tc/n/pnXzcnzXl5noa8qXYbveSleGsZQuXEr3MKW7+b5dZU94m9s1MYhdjX1VLfmWSqGoeIfMrSNMhy5Si+qvI/+spH1Df1etox5dSZdy1beJH0/wD5aVag8eI/SSuyjL3jGo/dPlyb4J3moO2qeN9U85Nn7uCP73+7/u1wWtfCuzt9Vaw0/S7a5tlb93BcW+5k/wB1q9aljLOyHLC6XluegfCX4M64ieVo3guwtkmf95J5bsz/AO9Xpk3wN+G/g+w+1ePP9Gmf/UWtvJ+9dt+75V/grhxGOqSrPkZ108NBQVzYhtvE/iSzktdGuE8N6Vbf6z95/pG3/wBkZv8AYqpZfAe2vNVjtdBjvJrm5+eT7RH803+033q4KWI9k5Slsa1I89kjpPEPg/4e/C+zji8R3CR3ibf+JVpce64mY/3pf4K57Ur/AMQ+OF/suw8PppWmun/HjZ/edf70kv3nrmdapKXNPZFRpxUeVblWw+Ffg/wvZrf+N9QhR3/1af8A2P8AHVK/s9V8UOujfDnwv9mR3VPtXl+ZK/8As7vupSdbmXPLZD5OWPKtyTTf2XbPwvD/AMJR8S9Q+R/nkj8zd/31uqzrfh5LZI4vBHhP7NC/yefcfedR/dX/ANnrmli5VJK+xpHD8sfMhPwKh0+H/hKPGWoPbJN/q5Ly33SzZ/55xL8z10fhH9n7xP8AEBGl8OaP/Y+mw/6/VbzYrJ/tbm+VP/Q6f1h1Co0eX3jaTwf8KPhHDbxeF9GXxNqU0i+ZqV5H/osMu/b/AKr70v8AwP5KpeNIdV8WXMl/4y1hJpof9XHJIqrCo/hVf7v+5U1MRypJdTenRt7xz8tt4e0b/Rvs8PnIn7uxj/1rt/eb+5Vm28M+IfEGnqIpPJsPmTy/L8tXb/a/vtWEpfvLmsaSNLw98Orm2uYYpdP854fkjjkj+Xn+7F93ctbsPhh7O8+y3VnDN915I47fds/3qzct7G3JzJXLWk+DLPT79vtelpNM/wDqPs++TYx/vfw12CfD3R7mzW68RyfY4X3JHa+XtldampUKhFF+a/tvsa6X4Os0hTyVSP8AvTY+8rfxbq3PDHwWs9Q8u/8AiCj2yOn7z94/m/8AAd1c0Ze8bSZqX+pf8InbR/8ACB6Wk0MKMsd1HH8yKP8AnorfxVQ8MeG/+E4todUv/tl4n/LPy5H2p89NxaWhNOV9z0PR/D3hjwvbLLrz77lE329r95d3+1t+/Ur22seLL/7BfyeTC/8Aq/s8m1UU1tTg2FSokzo7DRPB/g+zWLS7f+1b/wD6aR7lR/8A4qn2Xg/xt441iO6urN/9SvmRx7FiT+7u/wDiK9CNFyaSOGrX7na6D4G0fwnN5stnDNeIn7uST7qf99fcqvrfi1/FEklro14jv52xP3e5eP7u379exQw/L7qPNnUctWWvD3wTto4V1nxvcJN8m/yP+Wr/AMX/AACn+M/Ftt4btPsGj+TCif8ALOOTb/31XdLDxo033MYYiVSojxXxh4k8SeKNSXT9Ljd977JP93/dq1o/g/TdHhW68UXEN4+/fHa/8soW/wBr++1eBiK3I2e3RjzRL15rdz4guVjtbh9n3PM/uf7tTw2aaWjfvIX+7/vV5M5+8dduXYwvFvj/AFKS5j0Gws5t7pv/ANX+6Rf96mWGmyagi3Usnz7P3k/l7VT/AHawnK5pGJuabNYW22KKP93/AMtJJPlps3ippLltG0G33zP/AMtP4Uqo2QfEY2t6rYaHLJYXVzNf6ls3yQRyfc/3m/gWuZm1VNQf7frxSb+OO1j/AOPeH/aVf42/23qqdPllzE1ZKMbI19H8N6bJYXGs6pHNHC/z+XJJtab/AGf92srxP8V08H2y6Xaxwo7p+7tbf/Wv/wDELUS/eOxMI+7dnGQ2fjD4kXn9qa9I7wwvvtbG33rbp/8AF111h4bTT7NftX8CfvJJJPlRf9pqb/lQP3mY3i34hW0dh/ZfhK8Teif8hXy93/ftf/Z64DSvCWqyaq11a2f768k3ySSSPIz/AO03+1XRD93FrqzGX7yQut+LdE8Fo1jpWy8v/uSSSfMiN/tf7X+xWToPhvUvFF/NrOvXEyb5l8+eST97/ur/AAotdFKPs4e0fUwqS96yOyvLiz8Lw2/9jQTTO/yW8FvGm6Zv+ma/+hO9WvEmgw6f4n0O6l1RNSk8nzb7Tbi3/wBTcH7u3+/t/vvXTh4RqRc2ZVpSp2ivmbE1nf8AiR21m/v3S2T919okk2qjf7Nbfw30rxP4g8Sw/D7wb4fmvH/5ZwSf62Zj/e/2f9itVSnKSt3SXmzldaMdelr/ACPqb4G/sT2HgTyde+NN49tqU1z+5tPveS33tqqv8Ve8w6lbaXoM2l+DY3trNZv3j2/zXDsv95v/AGSvpKdH+x8O2/4sjw5Vv7Wr6fw0yaxtrazsJpb+4Tztm/zLj7yZ/wDZq4fxn8Sr+4X+wvC9pv8AJRvtU1vIjMn+9t3f98JXFWrVI0/NnoYWjGpU97ZGX4V8PWd5rdvql1ePqFzcwxy+ZJ83zf8APJV/gr0J7DS9L8m61m4SHyd3kRybPnb/AGqjD8sYuT20NsVLmrJLdHO39/eeILyGW/ihSzR5IvsP3f8Adb5a0Lm30rSEW6urPfczQ749Lj+Vvl+7/wAB/wBupjKMpOUwknpBFNLO58Wa2us6hof76GFbf95J8tsp+Zt39+tfxD4k0fwPoNxLLeW2k2FtD5t1qlx8qp/D8q/eeu3C3lJzZx4qUacUl02Plr9oH9sDW/HFtfeCPhpG+m6JM+yS+k+W6vF/9oq1fO+pWb7OK4MdinXqcq+FbGeHo8kFfqYlzYTSO0RqL+yJP+edcMdzokO/sp4/+WfyVWmhSN/9XV8rJ5jI1WZKxbx03sBU+zsLm90wtSvPLdvKrIe/m35reFMiTG/2g/8Ak019ZSPdV8l2RKXukc2pJJx5lZtzqv2f/lpVQREjlP7B8beMHa6v7n7Mj/PJBH8vyn+81b+ieCfCvhO2+369qkNtv/1fmfef/dX+OpqT+zA9SPvPmkdBpXirXv7N/wCKNtIbC2d9kGq3kfzP/wBc4v4P9963fh78HJvFl42s3VpeXLzf6/VdQk3M/wDsx/365pKEKbs9SpSjUaSO91Xwx8OvhW8cvii48l9myC1jk8y4m/3Ylrk9b+JHiHxIjaX8NNL/ALHtm+SOeP5rqb/gX8Fc6XP70tjR6JRM3TfhRpvh+zXxH42vNm/55J7iT5n/APi2pmpfEJL9G0H4aaPcps/5byW/718/3V/g/wCB1MuaslJ/CjVctN8vUbbfBazt/wDirfih4g2I+15Ekk/ev/vVs2fiuzkhbRvhL4ThTZ8n27+J65qsvbW5fhRrGPLK73L9h8I3t7mPxR8S/Fnk7H/dx3Enzbj/AM84q6vwx4Y17xAn2X4ceG/7Ntdn7/WNU2ea+P4l3fKlc05e0klHY35eWOu5V1bSvhj4HvJPK2eJPEDv+8uryRvs6S/7335v9xPkrnte1Xxt48tvsvii4dLOFleOC3j8iJGH91flVFrb+FC5EYuU2zM1Kbwf4Yso5b+Pa8yN5MfztLN/F8q/+z1Ss7DWPiI63Wl6f/Ztgj/vLqT5rh2/us38H+4lYpW999To/umn4e+GNt4fS48qOF5ptqRySW+7Z/ebb/G1btt4Oubjzrq/t5n8nb5fmSbWfD1Ll1CKZLqr6Vo8U1hFHc3N5M6rawRyI3/Amb/0KtnTvh74w8SJDf6peQ6VZo++S1j+ZnWhfu7XLvzRdi7babYQbZdLkfYkyxTyR/N1/i/3lrds/Adz4of+1PLRPJRf39x/e/iqajREIsuPN4c8MXLXWgn7ff8Akqn2q4jp9teeJ/GF+vm/O7oyfvPm61MY+8dEVc69Phomjv8AavFEiPC6bJ7H+F2/2q0PJm1iH+y9Bs4bPeipJHH/ALP8Xy12U6fu6mEpp7GxYeCdE8Po1/4o2TTPtSO1j+bfj+Krlzqt/rB/sHRtLSF9/wDq4492/P8Au12UqJxVKvvG/oPw0mt0a68b6hshRP3Frb/K3H+0tbt/48trdI7DS7NEtnh2RwW8iV7GHoqCUWebUqe12MXRPhv4k8UX8mqXVp9jtn/1kkkm5XWuqs4vBPwvt1/suzh379nn/wByvUw9Dl95nDiMRb3Uc54x8W69eSTeVqCOrpvjT7u9f9muX/4QDXPFltDfS+dYQ/N/rP8A2WivCUabvubYWUdCteaVpvgezXS9Bs/4P3kn3mf/AGmaud1Lw3rGqQyXMsn2b/nh+7r4vGXlVaPpKL5Yl62+zafbLa7Nmz/nn/HWdcveXF40tr/c/wCWlefL4jrj7u5DDbebc+bLG8zv/wAs/wCGrWpeLdK8N23+n2c00z/cgt7fd/31/crJK45SMuaHxP4kRtU1TybCwRN8fmSfLWHrHj+w0OwkisJPs1unyfavL3XVy392Ff8A2etqdNyqGc5cpiaPpviHxJMv31h87dHY/e/4FM38bf8Ajldp9g8KeE4Wv9ekhmuUT/WSfdT/AHqudTllyozhGUpanH+LfjTqvii5XQfCX30/1l9J91P+ua1X8MeBlvNVXVNU865+dn8+4uN29/71ZP8AdqxpJ+0lyI6rXtS0Hw3pq3WsXkcNqifubW3+Vpm/2V/9nrzXxD451DxpM1rFbvbWcL/u7Xy/3X/Av77VvQjb3mZ1JcvuDk8MQ2FnN4o164SG2T/WSSf5/wDHK5i/8a+J/HF4vhzwjp95Z6b8yeZHHtuLz/e/uLV0f3tTm6Ixn+7iO8N+AIdOvl17Wf4E/cWvl/8AoK/+z1dv/FSW6LFYW67922ODy/3Sf73/AD2aumX76fKtkQl7OPMzrPCWy80qaW1jm+0zf8fV9JH+9df7u7+Bf7qJV500Xw/M11r1nNc3ly/+i2Nv/rZv9qT+4tenRoxsrfM8ypWnq312HaP4D+Ivx18c6f4X8JeF7+/v7aFpfIt5PLs9NiH/AC1b/wCLevs/9mz4V/Cz9l94dZ/tBPE/jaa23z6l5m61sM/e8tv42/269PAqFOosVU+GF1HzZ5+KhPEQ+q093rLyR6rqeoeIfiLpd1dXWuPpt8kP+iz28fyw/wC7u/iakuNSh8AW1rYeetxNsVp445Pvyn+FqqviZYibxVT7isPh4YemsLTXqzmPF+q634pv5IrTVHsLlJF8uDy/L85f4kb+Lb/uVp+GPBmpXltay21ummwp/r/s8aRs8X91tv3K5VzVql+jO3mjhqeu6L1/f2Hhe8ktfDFpDeXPmfvJJJNuxjWTDo+seJNSm1SW8vIbZ/8AVx3Efy8f3f7lTyqUnFbExlypTe7NW/v9N0fR1uvMR7xP9Hgnt49zO3+zu+/t/vUaJo2lfZv+Eov7ze/y+ZPcRu3nf99V0KNOTjF9DCUp8r5e5zfxI+KOieD9K/tDWbuG2hRGeSxuPmd5f4dyr99v9ivlr4s/Gzxt8YL+P+3tQ2WFt8ljpsfyqn+0399qzqVZRjKK6k1IRco36HHf2a3+TUE2j+ZXHy8qswVT8SP/AIR+H+5UP/CMJI/WiMfeM5yI7nw8kcP+srB1LR0j3Vt7M5+Y5DxDbHe3kj7lczqXnR/uqckbfZMG/wDMldvNrKuPv1cCZMpXNwkf/LSsq/1VLfd+8ranC8jOUvdKdz4qhjT/AFn8Fc1rfjxI9372uiFExlUO2/tvxhrkcl14M0dLOz/5/rz73/AV+7Wr4M+Fz3msf2prN4+oTbF8zUrj/wBAXd9+vJlanFvqexzucrdD1dL/AOGnw/s4f+Eokhh/55wSR7pX/wB1ao698e/GeqeXo3gjT00Gzf8A1c8kfmXjr/sr92GuOFOUleR0+7HYytN8JPqj3Gqa9eff+a+nkkdt/wDvStVTXviR4e0J49G8L2cd5c72TzLeP5U/2v8AptTUfaxf8o5Pl33EsPhv4q+Ik0eu+LdVmtUR/wDl4k3Nt/uqv8FdRNqvhLwPZro3w90r7TeOmyS68z7n/Av/AIiuetLmahH4TWn7vvSILb4aeJPGFzb+I/HmoIlnD/y0uPlt9jf3Vb79dPolm8if2X8L9D+R033Wq3Ee3p/Eqt/7PXJOXtIpRWh1U4xScpGtpX/CrvC+pNf+I9U/tvWNn/LO4RleUfws38FZPiH4heIfHln9lutQhs9NTdFHY2f7tU/3v77LVKn7GN5bkRftJ6nNalqug29n9khs/wB9C/7+6kk3L/e+WsywvNe8SXklrFZ70+59o+z/ADbf723+D/gdTy80dTpp6Ez/AAxT+0prW6vESFI/3kFnJ5lxNj/prXR2ejv/AGXDYWultpVmiL5EEkiebxU1JXsEviua9/JDoejrc/aNjbG8uOT/AI+Jv+A/wVSS28W+OE8rS7N7Gz/5aSeW+51H8TVJcZe8dLonhjwx4XfyrW3/AH2xfnuPvbv7zVrQWet+ILyaWws0mf7kckn3UrKXvS1KibVzpfhjQ7aPVNe2XmpW3+s/u/8AfNZmseJNe8STLFYW/wBgs5v9Zdf/ABNOMQWm5t+D/hjNHZyXPmfZoUff9uuI/metrTVsNMdrDQZE85n/AOP7/a/2a6owvqTKdjpNH+G+sXm7VNe1R0hf5o5NQk3N/wABqV/FGg+G93hzw7F5Myf6y6kj3b/92uynTscM6n2TX8MeD9V1xI7+/k+z73/eXUn3kU/3f9quz01fBPgPSpLbQZIUfZvkurj5mdq9XDwUfePNrylLY5XVfHNz4sdtL0uzuXm3/u5I/wD7Kt/QfB+leH7aHUNet085EZ5II5Pvsf739+u+jHm95mNSXs4cqL1/45udQ3RWsaQon/LP7tYvkzeK5msLXfczb/3f7v5a9KjfmR584pxdzrNK+HthZp9v1nY8yJ/qP4KoeLf7buH+y6XZ/Inyf7i0YyH7lhhp8tZHFX9nbWDt9p2TTf5+9XMeIrz7P5ksUj7/APx1K+Cx0uWTPrsPeTucf/b2qi/+yxafM+5/9Z5dbttbXlvbLdapIltD/wAtPMryvikek3cqt4qfUJmsNAtN/wA/+sqnrFymh/vrq4S5vNm/7LHJ8qf7TN/drTlv7qMebmlqebePPjHrGuXkdj4Xkh1K8+5HJ/y62zf7P99lrT+HvwZ1qO5bxb48uPtN5N8/n3FxubmuyTjRpW6s5+aVSob3jXxh4b+H+mtdX946O6fuLW3+aV68qmvPE/xElWXVN8Nnv+Sxj+ZU/wB5v42rlpR5YuqzoqS5fdR2nhjw3Z6ei3V/b7fk/d/3v+BVR8VfHjwrob/8I34X2Xl4nyR+X/qkf/a/v0U6cq0r9CdKcb9TlRfXPijVWutU1ia5md18yO3j+5/sszf+gJXSJNong9GutUk+03/k/uLGP7sK/wB5v7n+/W1Zc0+RbGcY83vM47W9V8T+O7lf3kz7JmePy43W3h/3V/8AZ66PQdNfT9HW6ijS2h+5PqUn3f8AdVa2dqUYxRko+1ndjZk1jxK7aZ4cjeGF/kkupI9ssy/+yVes/hKl4lr5Nxsh/wCenl7fl/2d1d2Hp8sTmxNX2k+VFe/+J3hvwv5mg+CNRtpvJmVL7UpPmitv93/ntJ/sV6B8Cvg74k+K7trOl+do+gzXK/2l4u1iPdLc/wCzCv8AG3+x9xK7qfNpHv8AgcMqfvc3a/z8j650f4ffDf4X/CjUNL8JaRdQ2esTf2Y8kcm24uWdNvmzS/x7f7n3ErQ+Hug6Vpeg6Lo19cOnk2cfkeZ83nRJ8qs3+zXbmXs4KlCnot/vMctjU/eVJatu33G14k8c6xpaLYeF7dL/AFKaFkjgs/vf7+7+CsLwlo839pR3+qXk15qqP/q5I3j+zb0/vfdT/wBDrzuaU5Ri/kelyxp0pOPxdfQ9AsdHi0OGPXvE+ou9zCmz7RJsVtp/u/3Kq6lf6rqEP2bS7Oaztn+SPy49zbP71dnLKMeVdTzfdc+ZkWiaQ9un/CReI5Ps2m718uC4j/ezY/vbf/QKo3Opa9rOm/2Xa6p/ob3jPB+7eNniL/Kv97dUK8Y6fEzZWk+d7I3obC00OGOHXZEmuf8AlxtY49rbW/hb+4teb/GX44x+Hry3itXW81K3t2iSxj/drZsf7235dv8A4/Xb7ygmu6/A4J8rm/PX7z5x8W3+t+KNSbVNevHmmf8A75T/AHaxf7N8t8eXXHOIub3ibZ8n+qpH8mM/6us5QJK7oagmuUs6I/EEzH1XXoZHrB1i/SSFv3lbNk2OR1KSHe37z79cxrDp/wA9P46zjEtnN383ztWJfzLbpXTCBlKRzuq6x96ue1W8mG6u2nT2OWc/eOY1u8mj3fPXF69qU29h5ldNONjllI+tn03wx4X0r+1PHl49t8m21h8xGZ2/65LWd/wsnxFqDt/wiVn9gh+VPt1x+8uOf7q/dSvl5c1S8j6an7vulrRfDF3cO2qX8/nTb/8ASr64k3Nx/tN/7JVm/wDG3gzw2kcVrA+q3n3PLj+Vfv1lyzrT5Ym65Yw1H23hv4nfETb/AGpvsNN/5ZwfdVP91a24bn4Y/C947XS9P+336J/yzj/iP97+5UVpXbhDY1pxu+eZGkPjz4manNLdXiWelfK/mSSbYv8AgX9+tnw9Z2+j6ra6f4I099bvERkkn8vbawtXJJWg4RNoq8uaR2+m6J4Yt9Y834v+NPtl5D+9/sqz+Zof7vyr8ibq5v4ozf8ACeX/APoEl5Z6JD/q9Dt7zy4pm/56zMv+u/3Kqj/stRSktQnGVf3YnP21no9mixX88K/Js8iSTau37y1Xm1jWJJmisJ4f9c3kf3Ub/gP3/wDgdZ1Je0fNLc6Yw0ui3o/g+/l1JrrxHcP52/8AdwRyfM6/3dv8FdV4eS8t7C40uwsoYYUff5fl7W2/7Lfx1jVleOhpsXobaz0uFdZv7hEhR18yOT+P/dWqH9pTapf/APFEaX++mfZJdSfe4/8AsKypq9y5fDc3ZvCmiW6w69ql4l5eQw7LWOT+D+L7taela/ea26xWunuif8s4I5H2/wC81LmJjuWrbwBYWaSX+qapvTcvmR/d2f7KtVe88Zw6xDJo3hL/AEa2hk/eSW8n/s1J++zSJDoPh/W/EF+0VrJNNGn/AC0uPlVP/i67rTdEtvDdsstqkN5eQ/6yOSTctaxQVNDR01PFHizba/vER/8AVx/ww10CaJ4e8H20d19ne8vN++TzPlVK6Ke9zjqSK2par4h8ebbWwj85t/7vzPlVFrpdH8H+G/DiLrPiO8S8uYU/55/cavQo++cc9rFbxV8Wra3eTS9G3vMm3y444/uVneG/CXiHxBc/b9U1DyYd++STy9vnf8Brsp+9oZ8qhudrba3oPguy+y2Oz5P+WklYGq+P5tUuV/efcr1KLv7qOOUerOj8MeEtR8QPHf6pJ5Nt9/8Aefx16H4esND0O2+y6Nbov/PST+J2r1aNuVHl4h80mkX/ALNNIjS3Uvy1y/ja/v8A7NJFayJCn/TP7z0sZ/BZOD96sjyjXtSfY37uufmhubiZRLH8n/POvzfHPmrNeZ93h7Rp3K1/qVhp+61/103/ADwj/gqj5M2qQ/b/ABRqH2W2T/Vx1w8vLI1i7mXf69DHC0treQ6VZon+s/5azf7v/wAXXCalPeeOLmTRtBjmTTXf9/J/z2/2mZvv11U4+z95mcnzS0Oh0Hwx4S8FwrdeYk01sn+6sNZOv/GzWNYuf7G8EbJrmZ9n2q4+6n+6tY3liKnN0RVo09TKsPAd5qF/JdeKLya5mm/1/wDFvb/erpHsNB8F6P8A2pf3CW0KJ+78z+P/AHVok+dqCM1p7zPLPGHxaufFG7RtLjubaz/5aeX/AK2b/eb+CqPhXwfc3kcl/a2fkw/89JPl/wC+a7JSWHp8i3MdalS/Q3/t728P9jeEpPufPPqVx93d/s/32rMs7OTVLyTS/MupkebfP+83ec3+1VUYctO73CdTm91HUvbW3g+Hy5bNJrl0/cabHJ/6M/2apw+MPL1LytUt5tSm2fuII/8AVW3+6tVQoupK7HWqqnT5Vubdhr1np8LazrN5DbJCn7uD6/3axNS1vxz8SNS/4RbQdLv/ALM/yfYbON/tFzn+FmX7n+4lehF22PO+1zM+l/gJ+wF4V8N2ljqnxtkSa/eFbu18F2ce1YV/h85l+5/uJX0Jpnhi81y/t9Gls7ezttN+S1sbO32xQr/sr/Aq12VqcacXST957+Rjh6ntJe1fwr4fPzNXWNK8PXHhWbwlr3iSGa2SbzYJPL2ruH/xNYU13c+P9N+y6Xstbbyfs8mpeXt/dD5di7q5q0+aSitbK33HZho+zi5vRN3+8s+CdETR7ZtB8LRvbWDv/rI/3lxMo+83+xu/vvXT/wBseG/BcP8AoF4j37o0snmb2bcfvM1EKijHml8jOcZVKl4/P0I9mvaxcr9q1BJnuZFl8j7Okiw/J8u1v4Gq5qup6X4LKzXO68voYV8m18z91Dj+Jv8Aarq9pKMeZnLKMakuWJC6al41v45bq4W586H93H5brFCv97d/eqbVfFWj+FLH7ValXdH8q41Hy/lhx822P+F2q4S5bztqyXeTUFsjzzW/GfiTWXuL7Rri5tkuf9RdSXDtL5R/u15vrHg997S5317FHCzjRTfVX+88LEYyEqzS6afcYGpeGJo+fLrKn0d0/wCWdc88My6eI5o3KNzpvl7v3fz1Rms3keuaVEv2hWuYXt4fNrntbvn/ANTUSp2kXz3OW1WZ/mxJWDqV+/aSiMe5d2czqupPv8r56wtS1LzN1bRpkykYtzcvvaWsPVXeTd+8rohTOeUjBvLT5+ax9ShTZ++rphT2OaXxHMa3bPJuiirktV0qaT/lnWtrGcj6K0f4dXNw63/iO43zffknkk3N/wACrS/4STw34f2nS7dLm5f5PLjj/dbv/Z6+Tqfvpe7sfWWVNXe5Inhv4kfESaOXVLj+zbDerRx+XtVP9qui0qw+F3w2m8ry31LUt+/y44/l3VnOWns6ewU46XkWftPjbxwnlS77OHeyRwR/+zNTtE0nwZo959l0vRJPEOq/d8i3+6jf3mauWUoxdlsdkV1Z1Wt+CbyPR/7e+JeoQ21tCjeRodnJtabH8Kr/AHqqp481uTTf7L8JWf8AYdhDtfy7fZ9ofH8Mjf8AxFEV7Onee/QJSdSpZbGAn9iWe77VI7vND/qI/m34f73+3UV/4w8yb+y7C0kfZ/y08z+H+7Wcn7WTub01YrpZvqFt5vmfuXb9/wDxfx10mm6bNZwta6NGmxnXzJI4/mmX/e/grOUVy2Zp8Oxq+G9E02S5a6+2PNcwps8+4+6n+zRf+NreO/j0vQY/7VvP+ekfyqmP71c/LKW5tzcsSrD4M1vxHcrqfje82b9zyQR/wVtvf/Z7ZrTS7Py9n+rk/v8A/wARRLe3Yy5jb0TQdS1SFrrWZEtrZ0/eSSfeq5qXxA0XwXbLpelx75tn+s+871nbmuaRfvHGvYfEX4salJa3Uk1tZ7/kgjk+aZf9r+5XpGieDNH8D6P/AKVbwzeTtf7Db/LWk9uQO5oJrF5cXkdhpVvs3/P9kjj/AIf96un0rw3Z6fbfbvEb+S/8EHmetEY7EuWlzQvPEkMltDpegybH/wCefl/w1b03wTc6zMuqazcPCmzZJB5n366aceY5p+6atzqug+G4YbC1kRP4P9yuY1i/vvFlz/ZdrH+5trnf+7kf52/vV1xkjLlkaem6DYafN9q8v7TMn/LSm6r8RZLO2Xyj86fJJHJ/BXRRl7wVI+6Zem3OveL7/wCy2Fu8zvXpvhL4aaVoYXVNejS5vP8Ann/Cle5hujPLxEuW1up1jvc3CLFFcbfn/wBZW3YTJbovnOm+vTot3PJqakt5eP5PlVyfie5Xf+93v/zzjpYx2puxpg7e0Vzg/EltZ2e6/wBUkSFE/wCen/xNcLeXmva5Mx0f/Q7Pf/r5P46+Fx1GVOdz67D1HUgZlzrFhobyafpcX2zUn/5af3P/AIivN/HPxFfSLxrW1t31XVnf935fzRW3+6v8bVw06fvczOiVTkjyoi+G/wAKNW8QarJ4t+KF5ebH+f7JJJuau/8AFXjDwh4L0TybW3W2RPkj/d/M9Z4qftanJHY0o0/tM8b8Q3njbx/ft+8+x6bv/dx/xP8A71dD4V8Bpp6LL87v/wA9P4UqpWpU1FGLblUH+MPidongOFrCG4+2Xzp+8j/5ZQ/71cJf63f+LLz7Vf8A2m/d/wDVySfdT/ZVf4K2p0lTp+0fUmpLm91Gz4Y8AW1vbNf6pZvCn/LCP+J2qh4zv9evdulxRoltD/rLG3k+/wD71Th6bq1ueXQmtKNOjyrdmn4b8K+IdUtPtWqb7O227I4446nv7zSo5Y7XRoPJdPlnvv4U/wB3+/XVOPNU5TKnFRjzi2em3Mj/AGWwuPOd33yT/wDxTVNNr3hj4ef6VqkiTXk3yRx1tGUaeiMOWU7M779k79nLxn+0p4i1DxnLJDYaJYbvP1K4j+V2/wCeUP8A8XXvngn4XeGPgOkd14N0O8h153/f6rqH7zyVd9qrHF/tV7mFwXssJ9Zlv9k8mpiY4jG/VltpzHpHh6LXrjWJpde1zY7wrL58lwjSov8ADu/3vv12Vt4o/sOwkmurxIYXTZHP5e5n/wB3/erzI1JxqSk3q2ew6MZQUVscl42SHXL+PS7+ztvJ8lfIsbff5v8AwL+5W1o/gybVLzT9ZtdPewtrB9kn2eRNv3Nvyr/drKnTlKq35/kVOpy0I9rfmdBqs2sSfaLXw5GltC+3zJP7+P4qg0/wNZ2Hk3V/bq6Inm3U9xJu/wC+q6pUXUrXfwr8jkdWNKiqcVrL8ytfeMFvLyPw54XuE+f/AFmqRx/L/tLGv+z/AHq0vD2j+Ho9BuLrWdQf99+9knkt/L/3fvffrSny1JNvZaGdVTpxUIb6M5/xz8V7bR9HkjtbOb7Bv+zx+XIis7fe2t/tf7P/AH3XI634tm8ea21/qlxssE/49dK8zdEnyfek/vt/sfcSvSy2msRUu/hPOzSv9VpWXxO5a+0wyJiq1zYQ3HNfVSipRsj43nalqZt/otp/sVz2q+HopP8AVVjOgmdFKu4mHe+GMbqxr/RHj3fu68+th7HZTxHMc5r1jNsxXK6xo82z/V1586TO+nWOU1iwuY93365fVYZpKnkL9peJg3lg/wA2I6xrzTfK3S1cI2JlK5h6lD87RYrDuYXG793W9ONpEXRnXMLSbqxr+wmkf+/XRHRHNIpaloP2e282Wsy28K22qI3lSJV06ftr2JlP2aVz0uGHxz41uf3u+Gz/AOue1UWtRX8H+Cn/AHsf2+8jf/ln81fJScY+5A+qjdu8y8j+NvHH7rzLy2tpv9ZBH/Gv+9/BWzYQ+A/B1tHa/Z31XVf+eFvJu+b/AGq46k1y8tPc6oLrI2Lmz1+801dU8eXr6bpu/wD0XTbOP5n/AN7+/Q/xRTwnbXGjeCNL/seZ9qR3Xlo1w/8Ae/3KmjTi480thVKnN7qMJtSvLx/7U8Rz/wCmO6y+fJcbmfD03WNefVE+1WFx9m+TZ/dbj7vy1nUl7SV38jro8vLYo2ENzc3Nva/aPkdG8yT+H/gNa2iJZ6f51hH4ffZ83l3Vx/6D/sVOl2XzfvDfh0q28n7LFeJ5e/8Ad/Z6g1j4g6RodmulxSPM+xvIgt5P4f4qxs6ktDRe7uRWGla/rn+lazeJptns3x28cnzP8ldFo/8AwjHh6zW18Oaf5Pyb/tUf8bUpNS2J5uZF7R/7Y8SX6/ZZHtkRG8+68v5X/wB1a2IbPQfD9g0sUnnXP/LOST7z1zPa3cvlMfUvEPizxB/xK4o/kd18uOP71btz8Mv7Hhs7+/uIbZJNvl/vPmf/AGd396j4bmij7tzVOqppbxxaDZ/9s/4nb7taej+D9ZvLZr/Wbz7ND9/y5PvUdQ7m3J4ns9Dh+y+HLe2R/wDlpdSf62r9naX/AIws/KNw8KP8/wBqkk+b/gNbR6GMvibOl0230HwvZrLDcb5v+WkklZ+veObmSZbW1uEf/pnHXRfkM/jM620uaSb7VrMn/LTfHB5nzVrPf6Jpdt/x8LbIif6uiKZt7pzWq/Eua8drXS43+/s/d1oeDPhdrfiOb7f4jk8mF3r0KMdTjqS909i8E6PoPhtF0u1s0SF/9ZJ/FUupaVf+E9Sjv4rjzrN/+mny7a96jpTTPDqS5Z69TfttXs9i/ZY6kTUkkfyovv8A/LOu+FSzOKVNltHuZIf9K+RK5vxVrem2cLQxBHm/8dp15KNJ3KoRlKorHmPiTUH3tfancI6J/wAtJK8+8ZeObm3tvNurh7Cz/wCenl7ZX/3Vr4zGc1WZ9Vh37OBw9nc+JPFm7S/C+nvbQzP+8nk+8/8AvNXZeG/h1oXgOx+33UiXN4/+skk+bZXmVpe7yo6qUbyuzk/EnxEvNQv5tF8G77y5R/3kkf8AqoaxrPwZquoX8es+KNYe8vP+Wcf8KVz04+zjdmlWr9lHUQ6VZ2cP9p6zcJbQp/yz+6tcn4w8eT6xbSQ6DI9nZp8kl1913/3a2o0nUu2ZOpynGaV4JvPFGsKbS3dId+/y5Pmb/fau0Gj6b4Tha1sIkmvNn/AU/wBpq6Kn76fIuhnTXLeUiHTb+81S8a1sJGuZn/10/wDDW/Z+D/DHheD+3fEcib/+Wfmfx/7q1vKPsoWXUxjGVSrzPZGJ4k17UtcuVlluPsGmxv8AuLWP703+9SabpkN5Mvm2+xNn+skqebljfqXyuT8jJ8YfEXR9Lmh8G/C7R31jXpv9Z5fzRW3+9t++3+xXrfwi/wCCemvax4Aj+Mnxz8UP9pvJlePSv+Wrr/tf3K9HLcDLFTbfa5xZhi44WEbfadj6w8JeHv7L+Ev9g+DJ00SzheOK1g0+Pb5Kj7zf7bN/frpdK8PabbtDqkVw++b/AF88nzM/+81etmGK5YQpR2sefgcNU9pKo1rcv+J/+EM/sdf3cMN59+Py9m6bH/stYW/UtPRb+X/SZH/dWsnl7lRv9n/ZrwanJ7a9+h7VPm9ml5mrpfhu61RJvE9+Idi/6yG4jZfOb/dX/wBnq5bajf65fr4X1mJLDf8ALDHHJ/CnzMyqtbQjONn3/UxnLmUu6/QlmTStLtmuvMdLP/pn80s2P7tYMGt3nieZraLTPs9hcPtjhk3M0yj+JlV9z/P/AApVTt8C6/kKjG0eea1/U7Dw3pug+HNAh8R+I7Ozt7yaFnksY7NIGT5/lVt38Wz71eV/Gn9oPRNPdtZ1TaiecsUGm28n72bH+0v+q/2v467K8YU4Rgt9zloylUlKrU2V0fO+sfFrXvFmsf2hqknkojt5EEfyrCrf3a6Lw98RJo9sPmV1YOr7Fcq2PGxkfrEuZ9bnZaJ4/wDMRfNkroLXxhbXCZMnz19Fh6/NE8GtQ5ZC/aftj0r2fmV1bnHL3SGXR0k3fu6zb/w8kn8FEo85pCpymLqvhOGTjy6wtS8DJIjHy65Z4dHRCszltb+HqSbv3dchqvw3w/8Aq646mHsdsK3unMa38PZ4937uuS1TwleRux8useWxvGRzmoeDJ5Jv9XWbc+DH2f6up5rSL5UUbrwM53fu6qW3w6uZLj97b0Sq+6KNO4njD4UX95ojRWFv8+yvKrT4e+PNLv8A7BFbzfO//LOvTyvFUad+Y8zMsNWlFcp6VZ3Pirxxui8x9Ns/+eEf3qsQp4c8LotrL++m/wCWkEf+tf8A3q+Eqe7eCPt6f8x2Gi+HvGfjizW6uriHRNHT55I45Nvy/wC01Wh4z+FfgO5j0bwRp6arf72STUpPmiRv73+3XPGHvG8p3djH1jWPEWvzLqmvah50yP8A6uP7v935VWs7VU02NV/duuz/AJaSSbpaUpbo3jBcpXv/ABDNeP8A6LZpCj/8tPL+ab/7KorB7COFrry3mmf/AJZyR/66lThoTzF7QbC8t3jlv7jyYfufZf4q238VabHYNLL5z+T8scEfzM/+9U1o7l03sQWaa94sdojG9hprf8s7f71X9G0HR9Hul/suNbm5R/3k8kfyp/vVi/hN5atG3Ml/4gv4bW2s3me2ff5kfyqjf8Brfh0HR9Hhkv8AVLzzn+/HHJ/Ap/2a55yaukDj71yC88XveQ/ZdLj2In/LSP5flqXw94Y1vxh5d/dSeTbf8tP4WTFZm0TotNfQdHs5LXQY5t6P/rJP7wra0qwvvFmmtYXVukyb9/2i4j+5/u7qqQ7o0bZ/Bng9JJZbxLy8SP8AeeZ/e/2azZrzxP41v45bCz/0b/lnJJ/7LT5GZSkbelaFpWhu1/r0au6f98VNc/FSw3/ZbCPY6/6v/bpwVid2ZVz4kv8AVE83VLzyU3/8Cqe28T6Jo8LXXyJ8n7yST71bamkYxMbxD8adN0/d/Zfz/wDTT+KsbSn8c/E2/wD9Fkmhh/56SR/frqowSscs5vmPYPAfw30rwvDHf3Wx5nRfM/u13MOq3PyxRR/crupR945az2NGHWHjtsxRp53/AE0q8mq/aLP7BL9x/wDWf/Y17FKR5s4lywR5NsVp8if89K0k1Kz0yHzZZPOdK7qdt2cdS8tDOuPEmq6o7RWqfu65nxhf2Hh9PtWs3CTTf8s4I65cRL2unQ6cNH2Z4748+Ib+c3lbJpt/7iCP7qVykOj6lrl4uvePdQ3wp/yw8uvnMXPkPbw/vyNvW/ip4K8L6b5UVv5MOz/V/wAT157r3jbxV48tmisLj+ytN3/9tZq8inTdSSkz0HP2cWg8JaJ/ZcckVrvhhf8A1knl/frYTxPpXh+dvK37/wDln5n3najWpLQyjbdmF4n8T6l4jl/eSb/+mccfy1TsPB+p6pbfate+S2h/56fKtdMv3dNQRz3das2zfs9bttHtvsujaelnZ/8ALe6k+Vn/AN2sz+wYfGGtt5Md59j/AOWcf3V/3mq6cfZR9ox1Je1koI0n8SaD4Dtv7L0uzS5uf+WcEf8AB/vVSms9b125XXtZvPOm/wCWcf8ACn+7VRbluEv3eiNceD0khXXtevIYURN7ySf+y1wXjDWPiF8Q5l8EfCXw3czfaX2T/Y4/3rr/AHmb+BaqjTdStGwTqRo09T6//Yq/Zy8N/BPw3dQ/YobzxDqtnvn1KOPctt/0yjZv4q9P0HwZeafb/wDE6+03n2m53vH9o3bNtfSVKkcNglGHdni06cq2OlKXZHTxXM3nXH2+38m2dFig8uPbs/3v92qHifxPbaPcx2trqFts3r5n91P93++1fN1KkpJnvUaav8jEs/D3iHxZr199v0+5RLNFeOST5bfn+8397/YrsPD3hLSvA+jyaz4j1ia81W5+eCC4/g/uqqr9yijBuopT7BXqrldOHkaNnpWsa7ND/bMmyGF/N+y2+/5/7qt/s1a8Q+NvDGh2En/CUaHeJNpr74I44/8ASHz8vy7f4a9KnL2MX7TW55lSP1iranpY5yz8Mal4w8Xyaho3izUFuX/1lpJt/wBGT+H5v4K6K98Q+GPhZFHL9n33kyM73Xl7l/usse7+Ff71FGPLeq/l95daXtJRp+Wv3Hgf7QP7T9tbtHa2GoedfzQ/8eNvIm1M/wAUleBalrd/4kvG1TU9Qe5mf/lpJ/6DWaqe0qOozlxclGCpQ6MWNE38VqWD+X+931uqmpw8vumgniSaz/debWxo/i2b/no9erQr8sUcs6a1Ou0Txmke395XVab4ktrjb+8r1qGJ5zx6+HNaG/hk/wCWlMvNklehGfNE89w5WyjNbQ1l36fPQBnzaakm6s288Nwyf8s6mUdzaMjD1LwZbXG75K5zWPhvbS7v9HrkqUVY7KdRnL6l8MU3/wDHulYepfDf/p3rzpwO6FTUqJ8Pfm/496l/4QOzt/3vl1w1pSUWdMfekWbDwS+oP5UcFa1t8JfB+j/8TnXY4d6fP+8+6lY0PbTkrGlTl5T5q19mttEke2PlnyesfH8qi+Cdtb3msb7u3jlbzl5kUN/H715fc9uP8M6P4/3V0unSWC3Egg2/6nedn5dK4vw/HH9gkfy13fZ152/7FC/3cn/l4bGlSSfZrg72/wBS3eqttz9oz/tVxy6nbH4WZ94zfNz/ABLXR6eifY4/kH+p9K6I/CQQ3p/0S1/36q+DwH1ttwz+7XrUT6lx2R3OoSSRaS3lOy/vv4TipNJjT7L9xf8Aj2bt/t1xy2Ohbo9Ct0S28LW7WyLGdnWMY/lXnvjA/wDE500/9NG/9DesIfEzU3/A8aG8bKL+VdVJJJFPEInZf338JxWZTKmg86nar2+0tx/wOvQvGxNnobC0PlfN/wAs/l/lVP4iTz/Rv9JnX7T+8/ff8tOf516pgW2iRpbDy18npHx/KtjGJyHjSSTyZPnb73rXLaT80ce7n5260FR+I83+MWv67aeL4Vtdau4x5nSO4Zf5GpL3UtRlmh82/mb5f4pSf610djTudBZW9udXhzAn8P8ACK96+G0ca2ce2NR9BW0ehy/aOo3N9q2Z+X+7XQSf8ecf/Aa7qPU463QdAf3NTWpPmLzXoUehy1DoCT9jrn7yST7Snzt+dd8vhRw/aN6zPlac3lfL8n8PFeQ+NZJG1i4LOx+prmqfwTqo/Ezh9Dt7dvEkhaBD+8Xqoq74x6yV8zmJ7OD+M8PlZrnx5H9pPmfM3+s5/nXciOM+TmNfyrnj/DXob1v4jNjXvlsF28fue1eRalc3Euqr5s7t+8/iYmpwxFX+Gjp9BjT+1YU2Lt2r8uK6Dxczf2nYwZ/d/wBzt+VVL+IhUjP+I3/IU02DHyeX9zt+VdBas0Xw+nmiO1/J+8vBrorfAjGh8Z5ZoTM17M7HJ87qf9+u7hP77/gC05fCXL4zlfiXe3n22GD7XJ5e/wC55hx+VfSngKzs9G/Zf1fUdItI7W4kjXzJ7aMRu31K4Jrtyn+KvmcWYfw/mj2r4M/8hC0/2bBdvt8iV1zk+du/6bVtiP4K9WVR/iv0RPpX3br/AIFXn/g8C58Xp9pHmbZm2+Zzj5q8nsenS6+h6jogEus/vRu/eSP83PzbPvfX3rJkJbWVduW+2feNdFT+GjipbP0Og+03H/Cd2sPnvs8tTt3HH5VwOp3Nxc3WtX1zO8k326NPOkYltv8Adyece1bVvgZngv0O8b/iWfDG8fTf9HbavzQfJ/H7VxPxyubm08BSTWtxJG8enYjaNipX90/QjpXX/wAwMfT9TBf70/66HwTFJJLdzTSuzO1xlmY5J/Gt3TD+7WuSO5xT/iP1NNP+Pn/gVaUX+pqvtC+yQ3p+datWDH5ea9Kn8KOSRuaWzfu+f71ddokkn2hfnb73rXdgzlrnXaUzb+taMf8Aqf8AgFe1RPFrfEyJ+9VH/wBYtdBzkVQzfcqpdSomdL95qoXYGzpXLU+E7KRi3336ybiOP5v3a/lXBPY7IfEU7mOPyW/dr+VY9399eP4q83EbM7qXxHRaFHGthHtjUfQV5L+03eXkWhzJFdSKvzfKshFb4D4ok1v4cvQ//9k=;" vertex="1" parent="1">
          <mxGeometry width="520" height="346" as="geometry" />
        </mxCell>
        <mxCell id="WPf8kOVnsTrV6K4uPzjd-3" value="Content model" style="endArrow=classic;html=1;exitX=0.669;exitY=0.694;exitDx=0;exitDy=0;exitPerimeter=0;strokeWidth=3;labelBackgroundColor=none;fontStyle=1;fontSize=20;align=left;" edge="1" parent="1" source="WPf8kOVnsTrV6K4uPzjd-2">
          <mxGeometry x="-0.2268" y="-20" width="50" height="50" relative="1" as="geometry">
            <mxPoint x="400" y="270" as="sourcePoint" />
            <mxPoint x="190" y="220" as="targetPoint" />
            <Array as="points">
              <mxPoint x="290" y="240" />
            </Array>
            <mxPoint as="offset" />
          </mxGeometry>
        </mxCell>
        <mxCell id="WPf8kOVnsTrV6K4uPzjd-9" value="Assembly model" style="shape=flexArrow;endArrow=classic;html=1;labelBackgroundColor=none;strokeWidth=3;fontSize=20;fontStyle=1;entryX=0.488;entryY=0.746;entryDx=0;entryDy=0;entryPerimeter=0;" edge="1" parent="1">
          <mxGeometry x="-1" y="32" width="50" height="50" relative="1" as="geometry">
            <mxPoint x="320" y="298" as="sourcePoint" />
            <mxPoint x="253.76" y="266.116" as="targetPoint" />
            <mxPoint x="41" y="-12" as="offset" />
          </mxGeometry>
        </mxCell>
        <mxCell id="WPf8kOVnsTrV6K4uPzjd-10" value="Content type" style="endArrow=classic;html=1;exitX=0.554;exitY=0.243;exitDx=0;exitDy=0;exitPerimeter=0;strokeWidth=3;labelBackgroundColor=none;fontStyle=1;fontSize=20;entryX=0.279;entryY=0.367;entryDx=0;entryDy=0;entryPerimeter=0;align=left;" edge="1" parent="1" source="WPf8kOVnsTrV6K4uPzjd-2" target="WPf8kOVnsTrV6K4uPzjd-2">
          <mxGeometry x="0.0572" y="-18" width="50" height="50" relative="1" as="geometry">
            <mxPoint x="357.8800000000001" y="250.12400000000002" as="sourcePoint" />
            <mxPoint x="200" y="230" as="targetPoint" />
            <Array as="points">
              <mxPoint x="204" y="83" />
            </Array>
            <mxPoint as="offset" />
          </mxGeometry>
        </mxCell>
        <mxCell id="WPf8kOVnsTrV6K4uPzjd-11" value="" style="shape=image;verticalLabelPosition=bottom;labelBackgroundColor=#ffffff;verticalAlign=top;aspect=fixed;imageAspect=0;image=data:image/svg+xml,PHN2ZyB4bWxucz0iaHR0cDovL3d3dy53My5vcmcvMjAwMC9zdmciIHZpZXdCb3g9IjAgMCAyNjAuMzUzODggMTYwLjE2NDU1Ij4mI3hhOyA8ZGVmcz4mI3hhOyAgPGZpbHRlciBpZD0iayI+JiN4YTsgICA8ZmVHYXVzc2lhbkJsdXIgc3RkRGV2aWF0aW9uPSIuMzQzOCIvPiYjeGE7ICA8L2ZpbHRlcj4mI3hhOyAgPGZpbHRlciBpZD0ibCI+JiN4YTsgICA8ZmVHYXVzc2lhbkJsdXIgc3RkRGV2aWF0aW9uPSIxLjI1OTMiLz4mI3hhOyAgPC9maWx0ZXI+JiN4YTsgIDxmaWx0ZXIgaWQ9InAiPiYjeGE7ICAgPGZlR2F1c3NpYW5CbHVyIHN0ZERldmlhdGlvbj0iMi4xNjAyIi8+JiN4YTsgIDwvZmlsdGVyPiYjeGE7ICA8ZmlsdGVyIGlkPSJuIj4mI3hhOyAgIDxmZUdhdXNzaWFuQmx1ciBzdGREZXZpYXRpb249IjIuMTEwMSIvPiYjeGE7ICA8L2ZpbHRlcj4mI3hhOyAgPGZpbHRlciBpZD0ibyIgeD0iLS4wMDU3NSIgeT0iLS4xMjgwMSIgd2lkdGg9IjEuMDExNSIgaGVpZ2h0PSIxLjI1NiI+JiN4YTsgICA8ZmVHYXVzc2lhbkJsdXIgc3RkRGV2aWF0aW9uPSIuNzk3OCIvPiYjeGE7ICA8L2ZpbHRlcj4mI3hhOyAgPGZpbHRlciBpZD0ibSIgeD0iLS4wMDg2MSIgeT0iLS4xMDAzMyIgd2lkdGg9IjEuMDE3MiIgaGVpZ2h0PSIxLjIwMDciPiYjeGE7ICAgPGZlR2F1c3NpYW5CbHVyIHN0ZERldmlhdGlvbj0iMi44NTYiLz4mI3hhOyAgPC9maWx0ZXI+JiN4YTsgIDxsaW5lYXJHcmFkaWVudCBpZD0iaSIgeDE9IjE3MS43NSIgeDI9IjE3Mi43NSIgeTE9IjMyNi43OSIgeTI9IjMwMy4wNSIgZ3JhZGllbnRVbml0cz0idXNlclNwYWNlT25Vc2UiPiYjeGE7ICAgPHN0b3Agc3RvcC1jb2xvcj0iIzIyMGQwMCIgb2Zmc2V0PSIwIi8+JiN4YTsgICA8c3RvcCBzdG9wLWNvbG9yPSIjNWIyNDAwIiBvZmZzZXQ9IjEiLz4mI3hhOyAgPC9saW5lYXJHcmFkaWVudD4mI3hhOyAgPGxpbmVhckdyYWRpZW50IGlkPSJoIiB4MT0iMTcyLjc1IiB4Mj0iMTcxLjc1IiB5MT0iMzAzLjA1IiB5Mj0iMzI2Ljc5IiBncmFkaWVudFVuaXRzPSJ1c2VyU3BhY2VPblVzZSI+JiN4YTsgICA8c3RvcCBzdG9wLWNvbG9yPSIjNjU0YTAwIiBvZmZzZXQ9IjAiLz4mI3hhOyAgIDxzdG9wIHN0b3AtY29sb3I9IiNhNDAiIHN0b3Atb3BhY2l0eT0iMCIgb2Zmc2V0PSIxIi8+JiN4YTsgIDwvbGluZWFyR3JhZGllbnQ+JiN4YTsgIDxsaW5lYXJHcmFkaWVudCBpZD0iZyIgeDE9IjU0Ni44MSIgeDI9IjU1MS40NSIgeTE9IjI4MS44IiB5Mj0iMjQ3LjU1IiBncmFkaWVudFVuaXRzPSJ1c2VyU3BhY2VPblVzZSI+JiN4YTsgICA8c3RvcCBzdG9wLWNvbG9yPSIjMTIwYTA1IiBvZmZzZXQ9IjAiLz4mI3hhOyAgIDxzdG9wIHN0b3AtY29sb3I9IiMzNzFmMGYiIHN0b3Atb3BhY2l0eT0iLjk0NjYiIG9mZnNldD0iMSIvPiYjeGE7ICA8L2xpbmVhckdyYWRpZW50PiYjeGE7ICA8bGluZWFyR3JhZGllbnQgaWQ9ImoiIHgxPSIxNDEwLjciIHgyPSIxNDA5LjQiIHkxPSItNDg0LjU3IiB5Mj0iLTQyMy40NyIgZ3JhZGllbnRVbml0cz0idXNlclNwYWNlT25Vc2UiPiYjeGE7ICAgPHN0b3Agc3RvcC1jb2xvcj0iIzcxM2UwMCIgb2Zmc2V0PSIwIi8+JiN4YTsgICA8c3RvcCBzdG9wLWNvbG9yPSIjNTUyZjAwIiBzdG9wLW9wYWNpdHk9IjAiIG9mZnNldD0iMSIvPiYjeGE7ICA8L2xpbmVhckdyYWRpZW50PiYjeGE7ICA8cmFkaWFsR3JhZGllbnQgaWQ9ImQiIGN4PSIzMDQuMzciIGN5PSIyODQuNzgiIHI9IjE2OS4wNCIgZng9IjI1Mi44NSIgZnk9IjQwOC4wNyIgZ3JhZGllbnRUcmFuc2Zvcm09Im1hdHJpeCgxIDAgMCAuMzcyODEgMCAxODMuNzEpIiBncmFkaWVudFVuaXRzPSJ1c2VyU3BhY2VPblVzZSI+JiN4YTsgICA8c3RvcCBzdG9wLWNvbG9yPSIjNDkyOTE1IiBvZmZzZXQ9IjAiLz4mI3hhOyAgIDxzdG9wIHN0b3AtY29sb3I9IiMyYjE4MGMiIG9mZnNldD0iMSIvPiYjeGE7ICA8L3JhZGlhbEdyYWRpZW50PiYjeGE7ICA8cmFkaWFsR3JhZGllbnQgaWQ9ImMiIGN4PSIyOTQuNTIiIGN5PSIyOTYuMjYiIHI9IjE2OS4yOSIgZ3JhZGllbnRUcmFuc2Zvcm09Im1hdHJpeCgxIDAgMCAuMzYyODcgMCAxNjIuMTUpIiBncmFkaWVudFVuaXRzPSJ1c2VyU3BhY2VPblVzZSI+JiN4YTsgICA8c3RvcCBzdG9wLWNvbG9yPSIjNzg0NDIxIiBvZmZzZXQ9IjAiLz4mI3hhOyAgIDxzdG9wIHN0b3AtY29sb3I9IiM0NDI2MTIiIHN0b3Atb3BhY2l0eT0iLjUwMzgiIG9mZnNldD0iMSIvPiYjeGE7ICA8L3JhZGlhbEdyYWRpZW50PiYjeGE7ICA8cmFkaWFsR3JhZGllbnQgaWQ9ImIiIGN4PSI0NDMuNTkiIGN5PSIzOTEuMTMiIHI9IjE3MS43MyIgZng9IjM3NS40IiBmeT0iMzE5LjYiIGdyYWRpZW50VHJhbnNmb3JtPSJtYXRyaXgoOC4zOTU5IC4xODcxIC0uMDI1MDIgMy40Mjk3IC00ODcyLjQgNDA2LjA0KSIgZ3JhZGllbnRVbml0cz0idXNlclNwYWNlT25Vc2UiPiYjeGE7ICAgPHN0b3Agc3RvcC1jb2xvcj0iIzU1MzAxOCIgb2Zmc2V0PSIwIi8+JiN4YTsgICA8c3RvcCBzdG9wLWNvbG9yPSIjM2UyMzExIiBvZmZzZXQ9Ii43NTg2Ii8+JiN4YTsgICA8c3RvcCBzdG9wLWNvbG9yPSIjNTIyZTE3IiBvZmZzZXQ9IjEiLz4mI3hhOyAgPC9yYWRpYWxHcmFkaWVudD4mI3hhOyAgPHJhZGlhbEdyYWRpZW50IGlkPSJhIiBjeD0iNTQ4LjkzIiBjeT0iMjc0LjMiIHI9IjE1OC4xNCIgZ3JhZGllbnRUcmFuc2Zvcm09Im1hdHJpeCgxIDAgMCAuNTY2NCAwIDExMS4yOCkiIGdyYWRpZW50VW5pdHM9InVzZXJTcGFjZU9uVXNlIj4mI3hhOyAgIDxzdG9wIHN0b3AtY29sb3I9IiM0OTI5MTUiIG9mZnNldD0iMCIvPiYjeGE7ICAgPHN0b3Agc3RvcC1jb2xvcj0iIzJiMTgwYyIgc3RvcC1vcGFjaXR5PSIuODMyMSIgb2Zmc2V0PSIxIi8+JiN4YTsgIDwvcmFkaWFsR3JhZGllbnQ+JiN4YTsgIDxyYWRpYWxHcmFkaWVudCBpZD0iZSIgY3g9IjQwMS41MSIgY3k9IjI4LjgyNiIgcj0iNTcuMzIxIiBmeD0iNDI0Ljg4IiBmeT0iNjkuODI2IiBncmFkaWVudFRyYW5zZm9ybT0ibWF0cml4KDEuNDI5OSAuMDM5MjIgLS4wMTM5NiAuNDExNjcgLTE3NC4yNSAxNS44OTUpIiBncmFkaWVudFVuaXRzPSJ1c2VyU3BhY2VPblVzZSI+JiN4YTsgICA8c3RvcCBzdG9wLWNvbG9yPSIjODM0ZTBkIiBvZmZzZXQ9IjAiLz4mI3hhOyAgIDxzdG9wIHN0b3AtY29sb3I9IiMyODFiMGIiIG9mZnNldD0iMSIvPiYjeGE7ICA8L3JhZGlhbEdyYWRpZW50PiYjeGE7ICA8cmFkaWFsR3JhZGllbnQgaWQ9ImYiIGN4PSI0MDEuMzIiIGN5PSIzOTcuOTYiIHI9IjI0MCIgZng9IjM2Mi4zMyIgZnk9IjU3Mi4yNCIgZ3JhZGllbnRUcmFuc2Zvcm09Im1hdHJpeCgxLjA5IC0uMTQwNjEgLjA0MzU2IC4yOTY3MyAtNTguOTU5IDMxOS40NSkiIGdyYWRpZW50VW5pdHM9InVzZXJTcGFjZU9uVXNlIj4mI3hhOyAgIDxzdG9wIHN0b3AtY29sb3I9IiM2OTM5MDAiIG9mZnNldD0iMCIvPiYjeGE7ICAgPHN0b3Agc3RvcC1jb2xvcj0iIzMzMWIwMCIgb2Zmc2V0PSIxIi8+JiN4YTsgIDwvcmFkaWFsR3JhZGllbnQ+JiN4YTsgPC9kZWZzPiYjeGE7IDxnIHRyYW5zZm9ybT0ibWF0cml4KC4xMDUyNyAtLjEwNzM5IC4xMjA1NiAuMTI3MTMgNzUuMjUgMjguNjY4KSI+JiN4YTsgIDxwYXRoIGQ9Im01OTQuMjkgMzg2LjY1YzAgNjQuNjk2LTEwNy40NSAxMTcuMTQtMjQwIDExNy4xNHMtMjQwLTUyLjQ0Ny0yNDAtMTE3LjE0IDEwNy40NS0xMTcuMTQgMjQwLTExNy4xNCAyNDAgNTIuNDQ3IDI0MCAxMTcuMTR6IiBmaWxsPSJ1cmwoI2YpIi8+JiN4YTsgIDxwYXRoIGQ9Im01NjEuNzEgMzcyLjExYzUuMzkzOC0yMS4wMjctNTMuOTEyLTc0LjgyLTE2NC45NS0zMi44MzQtMTIxLjcgNDYuMDE3LTI1MC41NS04Ljk5NDYtMjUzLjU4LTAuODk2NzctNy42MTk3IDIwLjQyMSAxNTEuNDkgODMuNDkxIDI1Ni42MyAyNi4wNjIgMTEwLjE3LTYwLjE3OCAxNTcuMDYgMjYuNTI1IDE2MS44OSA3LjY2OTV6IiBmaWxsPSIjMjcxNzBiIiBmaWx0ZXI9InVybCgjbikiLz4mI3hhOyA8L2c+JiN4YTsgPGcgdHJhbnNmb3JtPSJtYXRyaXgoLjAyMjk3IC4wMjI3MyAtLjAzMDg4IC4wMzEyIDEyNC40IDY1LjYxKSI+JiN4YTsgIDxwYXRoIGQ9Im0tMTM1Ljc4IDE4MTVjLTMxLjAyMyAzMTIuNjQtNzEzLjg3IDU0My40LTEyODkuNiA1MDUuMDFzLTk5OC44MS0zMDguNTctOTY3Ljc4LTYyMS4yMSA3NTAuMzktNDczLjU1IDEzMjYuMi00MzUuMTYgOTYyLjI5IDIzOC43MiA5MzEuMjYgNTUxLjM3eiIgZmlsbD0idXJsKCNiKSIvPiYjeGE7ICA8cGF0aCB0cmFuc2Zvcm09Im1hdHJpeCg3LjMwNDQgMCAwIDUuMzc3IC0yNjk0LjMgMS4yMjIyKSIgZD0ibTM0OS41MSAzMjQuNTVjLTEuNTQxMyAyNC43NzgtOTAuODczIDIwLjQ1Ni0xNjkuOTYgMy41MzU1LTgxLjI4Ni0xNy4zOTEtMTM3LjA5IDI4LjQzMy0xMzcuMDkgMy42MDczIDAtMTEuMTg5IDExMC4zOS0zOC45OTUgMTg5LjUtMTMuNDQ5IDc0LjI4NyAyMy45OTEgMTE4LjU2LTkuOTMzOSAxMTcuNTUgNi4zMDZ6IiBmaWxsPSJ1cmwoI2kpIiBmaWx0ZXI9InVybCgjbCkiIHN0cm9rZT0idXJsKCNoKSIgc3Ryb2tlLXdpZHRoPSIyIi8+JiN4YTsgPC9nPiYjeGE7IDxnIHRyYW5zZm9ybT0ibWF0cml4KC4wMTE3NCAuMDMwMTEgLS4wNDA5IC4wMTU5NCAxNjguNTEgNDUuNDIpIj4mI3hhOyAgPHBhdGggZD0ibTE1MzEuNyA5MDQuOWMtNjMzLjkzIDAtMTE0Ny43IDIxMy4zNS0xMTQ3LjcgNDc2LjM3IDAgMTUuNjQzIDEuOTI1NyAzMS4xMjEgNS40NzgzIDQ2LjM3Ny0wLjEwOTU2IDMuMDU4OC0wLjIyNzg5IDYuMTExOS0wLjIyNzg5IDkuMjQxOCAwIDMwMi4yNyA1MTcuOTUgNTg1Ljc2IDExNTAuNCA1ODUuNzZzMTEzOS45LTI4My40OSAxMTM5LjktNTg1Ljc2YzAtMTAuMTItMC42OTE3LTE5Ljg1Mi0xLjgyNjEtMjkuMjM4IDEuMTQ3Ni04LjcyNzIgMS44MjYxLTE3LjUzNSAxLjgyNjEtMjYuMzgxIDAtMjYzLjAzLTUxNC00NzYuMzctMTE0Ny45LTQ3Ni4zN3oiIGZpbGw9IiMyYjExMDAiLz4mI3hhOyAgPHBhdGggdHJhbnNmb3JtPSJtYXRyaXgoNy4zMDQ0IDAgMCA1LjM3NyAtMjY5NC4zIDEuMjIyMikiIGQ9Im03MzUuNzEgMjU2LjY1YzAgNDguOTE3LTcwLjM1NSA4OC41NzEtMTU3LjE0IDg4LjU3MXMtMTU3LjE0LTM5LjY1NS0xNTcuMTQtODguNTcxIDcwLjM1NS04OC41NzEgMTU3LjE0LTg4LjU3MSAxNTcuMTQgMzkuNjU1IDE1Ny4xNCA4OC41NzF6IiBmaWxsPSJ1cmwoI2EpIi8+JiN4YTsgIDxwYXRoIHRyYW5zZm9ybT0ibWF0cml4KDcuNDQ4MSAwIDAgOS4xNCAtMjc1NS4zIC0xMDU1LjkpIiBkPSJtNzI4LjU3IDI2NC41MWMxNC42ODcgMTUuMDQ0LTE1NS40MyAxNy4yMDYtMTkzLjI2IDcuODExNi0xMjIuOTctMzAuNTQzLTk4LjQxMi0yLjExNzQtMTExLjAzLTcuODExNi0zLjU4MTEtMS42MTYgNS44MjU4LTI5LjY2OSA4MS44MDYtNy44MTE2IDgwLjE1MSAyMy4wNTcgMjE4LjU5IDMuODI5NCAyMjIuNDggNy44MTE2eiIgZmlsbD0idXJsKCNnKSIgZmlsdGVyPSJ1cmwoI2spIi8+JiN4YTsgPC9nPiYjeGE7IDxnIHRyYW5zZm9ybT0ibWF0cml4KC4yMzYwNiAwIDAgLjIzNjA2IC0xOC41NTggLTMwLjExMSkiPiYjeGE7ICA8cGF0aCBkPSJtMzA2LjQ0IDE5My4wNmMtNzkuNDUyIDAtMTQ1LjYxIDEzLjg5MS0xNjMuNjkgNDEuNzgxLTIuMDMyOCAyLjMyLTMuNDQ4MiA1LjU3NDQtNC4yMTg4IDkuODc1LTAuNDQ2MyAyLjAxMTgtMC42ODc1IDQuMDg4OC0wLjY4NzUgNi4yMTg4IDAgMC4zMjI4NCAwLjAyMDggMC42NDc2NCAwLjAzMTIgMC45Njg3NS0wLjAxIDAuNDU4NC0wLjAzMTIgMC44OTk3Mi0wLjAzMTIgMS4zNzUgMCA1Ni42OSA3Ny4yMTkgMTE1LjI4IDE3MC41OCAxMTUuMjggOTEuNDQ4IDAgMTY0LjM4LTU2LjcyOSAxNjcuMzktMTExLjgxIDAuMzkxNDktMS45MDkgMC42MjUtMy44MzczIDAuNjI1LTUuODEyNSAwLTM4LjY2LTc2LjUwNi01Ny44NzUtMTcwLTU3Ljg3NXoiIGZpbGw9InVybCgjZCkiLz4mI3hhOyAgPHBhdGggZD0ibTQ3Ni40MyAyNTAuOTNjMCAzOC42Ni03Ni41MDYgNjUtMTcwIDY1cy0xNjguNTctMjYuMzQtMTY4LjU3LTY1IDc1LjA3OC01Ny44NTcgMTY4LjU3LTU3Ljg1NyAxNzAgMTkuMTk3IDE3MCA1Ny44NTd6IiBmaWxsPSJ1cmwoI2MpIiBmaWx0ZXI9InVybCgjcCkiLz4mI3hhOyAgPHBhdGggdHJhbnNmb3JtPSJtYXRyaXgoMS4wMTcyIDAgMCAxLjYwMTggLTMuODE5NyAtMTYzLjY1KSIgZD0ibTQ3Mi4xNCAyNTkuMTVjMCAxMC42NTEtMTA3LjE3IDguMzYwOC0yMDIuMjQtMC4xMTE0OC05MS4wMjQtOC4xMTEzLTEzMC42MSAxMC43NjMtMTMwLjYxIDAuMTExNDhzMTQ3LjE5LTkuNjk4NiAyMzUuNi0xLjQ0OTJjOTAuOTM5IDguNDg1OSA5Ny4yNTktOS4yMDIgOTcuMjU5IDEuNDQ5MnoiIGZpbGw9IiMyYjExMDAiIGZpbHRlcj0idXJsKCNvKSIvPiYjeGE7IDwvZz4mI3hhOyA8ZyB0cmFuc2Zvcm09Im1hdHJpeCguMDY1MjcgLjA3MjY2IC0uMTE4ODQgLjEwNjc2IDcyLjQxNiAzNC4yKSI+JiN4YTsgIDxwYXRoIHRyYW5zZm9ybT0ibWF0cml4KDcuMzA0NCAwIDAgNS45Nzg3IC0xNTEwLjkgLTc0MC41NCkiIGQ9Im00NjMuMjEgNTIuMTg0YzAgMTQuMTAzLTI1LjY2NCAyNy43ODQtNTcuMzIxIDI3Ljc4NHMtNTcuMzIxLTEzLjY4MS01Ny4zMjEtMjcuNzg0IDI1LjMwNy0yMi4zMjQgNTYuOTY0LTIyLjMyNCA1Ny42NzkgOC4yMjA3IDU3LjY3OSAyMi4zMjR6IiBmaWxsPSJ1cmwoI2UpIi8+JiN4YTsgIDxwYXRoIGQ9Im0xODU2LjktNDE3LjAzYzAgMjIuODAzLTIxNy4zMy00Ni45MDktNDMwLjQzLTI3Ljg0NS0yMTQuNjcgMTkuMjA0LTM3My40NiAzLjczNjUtMzY1LjIyLTE4LjI0NCA1LjUxMDYtMTQuNjkgMjA2Ljc1IDguODE4MiA0MDYuOTYtMTIuNDgyIDIxMi40Ni0yMi42MDUgMzg4LjcgMzUuNzY5IDM4OC43IDU4LjU3MXoiIGZpbGw9IiMyYjExMDAiIGZpbHRlcj0idXJsKCNtKSIgc3Ryb2tlPSJ1cmwoI2opIiBzdHJva2Utd2lkdGg9IjEyLjUzNCIvPiYjeGE7IDwvZz4mI3hhOzwvc3ZnPg==;opacity=50;" vertex="1" parent="1">
          <mxGeometry x="100" y="200" width="70" height="43.08" as="geometry" />
        </mxCell>
        <mxCell id="WPf8kOVnsTrV6K4uPzjd-12" value="Content type elements" style="endArrow=none;html=1;exitX=0.554;exitY=0.243;exitDx=0;exitDy=0;exitPerimeter=0;strokeWidth=3;labelBackgroundColor=none;fontStyle=1;fontSize=20;align=left;endFill=0;entryX=0.402;entryY=0.514;entryDx=0;entryDy=0;entryPerimeter=0;" edge="1" parent="1" target="WPf8kOVnsTrV6K4uPzjd-2">
          <mxGeometry x="0.0572" y="-18" width="50" height="50" relative="1" as="geometry">
            <mxPoint x="331.49999999999994" y="152.08799999999997" as="sourcePoint" />
            <mxPoint x="210" y="180" as="targetPoint" />
            <Array as="points">
              <mxPoint x="247.42000000000002" y="151.01" />
            </Array>
            <mxPoint as="offset" />
          </mxGeometry>
        </mxCell>
        <mxCell id="WPf8kOVnsTrV6K4uPzjd-13" value="" style="endArrow=classic;html=1;strokeWidth=3;labelBackgroundColor=none;fontStyle=1;fontSize=20;align=left;entryX=0.7;entryY=0.348;entryDx=0;entryDy=0;entryPerimeter=0;dashed=1;dashPattern=1 1;" edge="1" parent="1" target="WPf8kOVnsTrV6K4uPzjd-11">
          <mxGeometry x="0.0572" y="-18" width="50" height="50" relative="1" as="geometry">
            <mxPoint x="213" y="175" as="sourcePoint" />
            <mxPoint x="220" y="190" as="targetPoint" />
            <Array as="points" />
            <mxPoint as="offset" />
          </mxGeometry>
        </mxCell>
      </root>
    </mxGraphModel>
  </diagram>
</mxfile>
